<svg width="47" height="75" viewBox="0 0 47 75" fill="none" xmlns="http://www.w3.org/2000/svg">
<path d="M40.8448 0H5.83508C2.61428 0 0 2.61428 0 5.83508V68.8635C0 72.0843 2.61428 74.6986 5.83508 74.6986H40.8448C44.0656 74.6986 46.6798 72.0843 46.6798 68.8635L46.6793 5.83508C46.6793 2.6261 44.0656 0 40.8448 0ZM2.3348 11.6814H44.345V58.3596H2.3348V11.6814ZM5.8355 2.33439H40.8452C42.7707 2.33439 44.3459 3.90959 44.3459 5.83508V9.34761H2.33563V5.83508C2.33563 3.90959 3.91082 2.33439 5.83632 2.33439H5.8355ZM40.8452 72.3758H5.8355C3.91 72.3758 2.3348 70.8006 2.3348 68.8751V60.7061H44.345V68.8751C44.345 70.8006 42.7698 72.3758 40.8443 72.3758H40.8452Z" fill="#3E0765"/>
<path d="M23.3405 61.861C20.7617 61.861 18.6729 63.9615 18.6729 66.5286C18.6729 69.0962 20.7734 71.1963 23.3405 71.1963C25.908 71.1963 28.0082 69.0957 28.0082 66.5286C28.0082 63.9611 25.908 61.861 23.3405 61.861ZM23.3405 68.8742C22.057 68.8742 21.0067 67.8239 21.0067 66.5403C21.0067 65.2568 22.057 64.2065 23.3405 64.2065C24.6477 64.2065 25.6744 65.2332 25.6744 66.5403C25.6744 67.8238 24.6241 68.8742 23.3405 68.8742Z" fill="#3E0765"/>
<path d="M19.8398 7.01387H26.8417C27.4837 7.01387 28.0086 6.48898 28.0086 5.84696C28.0086 5.20494 27.4837 4.68005 26.8417 4.68005H19.8398C19.1977 4.68005 18.6729 5.20494 18.6729 5.84696C18.6729 6.48844 19.1977 7.01387 19.8398 7.01387Z" fill="#3E0765"/>
<path d="M11.2389 38.0082L22.5469 46.492C22.757 46.6435 23.002 46.7251 23.247 46.7251C23.4919 46.7251 23.7369 46.6435 23.947 46.492L35.29 38.0082C35.5468 37.81 35.7219 37.5183 35.7568 37.1916L37.4492 20.3641C37.4959 19.8392 37.2042 19.3487 36.7142 19.1623L23.6909 14.0622C23.4222 13.9575 23.1192 13.9575 22.8388 14.0622L9.8154 19.1505C9.32543 19.3374 9.02189 19.8274 9.08044 20.3523L10.7728 37.1798C10.819 37.5064 10.9823 37.81 11.2391 38.0082L11.2389 38.0082ZM23.2705 16.4083L35.0453 21.0061L33.4927 36.4458L23.2581 44.1011L13.059 36.4458L11.507 21.0075L23.2705 16.4083Z" fill="#3E0765"/>
<path d="M23.281 37.414C27.809 37.414 31.4847 33.7264 31.4847 29.1985C31.4847 24.6705 27.8088 20.9829 23.281 20.9829C18.7532 20.9829 15.0655 24.6705 15.0655 29.1985C15.0542 33.7264 18.7418 37.414 23.281 37.414ZM23.281 23.3056C26.5136 23.3056 29.151 25.943 29.151 29.1869C29.151 32.4308 26.5136 35.0682 23.281 35.0682C20.0371 35.0682 17.3997 32.4308 17.3997 29.1869C17.3997 25.943 20.0253 23.3056 23.281 23.3056Z" fill="#3E0765"/>
<path d="M21.4847 31.9401C21.7065 32.1619 21.9983 32.2785 22.3131 32.2785C22.6279 32.2785 22.9202 32.1501 23.1415 31.9401L26.9925 28.0772C27.4476 27.6222 27.4476 26.8867 26.9925 26.4316C26.5375 25.9766 25.802 25.9766 25.3469 26.4316L22.3126 29.4659L21.2037 28.3571C20.7487 27.902 20.0132 27.902 19.5581 28.3571C19.103 28.8121 19.103 29.5476 19.5581 30.0027L21.4847 31.9401Z" fill="#3E0765"/>
<path d="M5.81339 51.3587H40.8231C41.4651 51.3587 41.99 50.8338 41.99 50.1918C41.99 49.5498 41.4651 49.0249 40.8231 49.0249H5.81339C5.17137 49.0249 4.64648 49.5498 4.64648 50.1918C4.64648 50.8338 5.17137 51.3587 5.81339 51.3587Z" fill="#3E0765"/>
<path d="M40.8211 53.6583H5.81144C5.16942 53.6583 4.64453 54.1832 4.64453 54.8252C4.64453 55.4672 5.16942 55.9921 5.81144 55.9921H40.8211C41.4631 55.9921 41.988 55.4672 41.988 54.8252C41.988 54.1832 41.4631 53.6583 40.8211 53.6583Z" fill="#3E0765"/>
</svg>
