<svg width="836" height="586" viewBox="0 0 836 586" fill="none" xmlns="http://www.w3.org/2000/svg">
<path d="M392.304 562.608C395.233 562.608 397.608 560.233 397.608 557.304C397.608 554.375 395.233 552 392.304 552C389.375 552 387 554.375 387 557.304C387 560.233 389.375 562.608 392.304 562.608Z" fill="#986FF5"/>
<path d="M214.304 495.608C217.233 495.608 219.608 493.233 219.608 490.304C219.608 487.375 217.233 485 214.304 485C211.375 485 209 487.375 209 490.304C209 493.233 211.375 495.608 214.304 495.608Z" fill="#986FF5"/>
<path d="M5.30378 585.608C8.23297 585.608 10.6076 583.233 10.6076 580.304C10.6076 577.375 8.23297 575 5.30378 575C2.37458 575 0 577.375 0 580.304C0 583.233 2.37458 585.608 5.30378 585.608Z" fill="#986FF5"/>
<path d="M733.149 71.4458C736.079 71.4458 738.453 69.281 738.453 66.6106C738.453 63.9402 736.079 61.7754 733.149 61.7754C730.22 61.7754 727.846 63.9402 727.846 66.6106C727.846 69.281 730.22 71.4458 733.149 71.4458Z" fill="#5FCEC6"/>
<path d="M236.775 456.859C238.96 456.859 240.732 455.087 240.732 452.902C240.732 450.717 238.96 448.945 236.775 448.945C234.59 448.945 232.818 450.717 232.818 452.902C232.818 455.087 234.59 456.859 236.775 456.859Z" fill="#986FF5"/>
<path d="M238.748 415.325C240.933 415.325 242.704 413.553 242.704 411.368C242.704 409.183 240.933 407.412 238.748 407.412C236.562 407.412 234.791 409.183 234.791 411.368C234.791 413.553 236.562 415.325 238.748 415.325Z" fill="#986FF5"/>
<path d="M308.964 452.902C311.15 452.902 312.921 451.131 312.921 448.945C312.921 446.76 311.15 444.989 308.964 444.989C306.779 444.989 305.008 446.76 305.008 448.945C305.008 451.131 306.779 452.902 308.964 452.902Z" fill="#986FF5"/>
<path d="M366.32 432.132C368.505 432.132 370.277 430.361 370.277 428.176C370.277 425.991 368.505 424.219 366.32 424.219C364.135 424.219 362.363 425.991 362.363 428.176C362.363 430.361 364.135 432.132 366.32 432.132Z" fill="#986FF5"/>
<path d="M40.9648 424.219C42.6022 424.219 43.9296 422.892 43.9296 421.254C43.9296 419.617 42.6022 418.29 40.9648 418.29C39.3274 418.29 38 419.617 38 421.254C38 422.892 39.3274 424.219 40.9648 424.219Z" fill="#986FF5"/>
<path d="M173.48 467.731C175.118 467.731 176.445 466.404 176.445 464.767C176.445 463.129 175.118 461.802 173.48 461.802C171.843 461.802 170.516 463.129 170.516 464.767C170.516 466.404 171.843 467.731 173.48 467.731Z" fill="#986FF5"/>
<path d="M265.453 417.298C267.09 417.298 268.418 415.97 268.418 414.333C268.418 412.696 267.09 411.368 265.453 411.368C263.816 411.368 262.488 412.696 262.488 414.333C262.488 415.97 263.816 417.298 265.453 417.298Z" fill="#986FF5"/>
<path d="M403.896 455.867C405.534 455.867 406.861 454.54 406.861 452.902C406.861 451.265 405.534 449.938 403.896 449.938C402.259 449.938 400.932 451.265 400.932 452.902C400.932 454.54 402.259 455.867 403.896 455.867Z" fill="#986FF5"/>
<path d="M452.357 402.463C453.995 402.463 455.322 401.136 455.322 399.499C455.322 397.861 453.995 396.534 452.357 396.534C450.72 396.534 449.393 397.861 449.393 399.499C449.393 401.136 450.72 402.463 452.357 402.463Z" fill="#5FCEC6"/>
<path d="M511.691 360.93C513.329 360.93 514.656 359.602 514.656 357.965C514.656 356.327 513.329 355 511.691 355C510.054 355 508.727 356.327 508.727 357.965C508.727 359.602 510.054 360.93 511.691 360.93Z" fill="#5FCEC6"/>
<path d="M607.668 89.751C608.76 89.751 609.646 88.8653 609.646 87.7727C609.646 86.6802 608.76 85.7944 607.668 85.7944C606.575 85.7944 605.689 86.6802 605.689 87.7727C605.689 88.8653 606.575 89.751 607.668 89.751Z" fill="#5FCEC6"/>
<path d="M815.342 114.472C816.434 114.472 817.32 113.586 817.32 112.493C817.32 111.401 816.434 110.515 815.342 110.515C814.249 110.515 813.363 111.401 813.363 112.493C813.363 113.586 814.249 114.472 815.342 114.472Z" fill="#5FCEC6"/>
<path d="M833.142 97.6641C834.235 97.6641 835.121 96.7784 835.121 95.6858C835.121 94.5932 834.235 93.7075 833.142 93.7075C832.05 93.7075 831.164 94.5932 831.164 95.6858C831.164 96.7784 832.05 97.6641 833.142 97.6641Z" fill="#5FCEC6"/>
<path d="M598.715 448.94C599.26 448.94 599.702 448.499 599.702 447.954C599.702 447.409 599.26 446.967 598.715 446.967C598.17 446.967 597.729 447.409 597.729 447.954C597.729 448.499 598.17 448.94 598.715 448.94Z" fill="#5FCEC6"/>
<path d="M171.555 169.849C173.192 169.849 174.519 168.521 174.519 166.884C174.519 165.246 173.192 163.919 171.555 163.919C169.917 163.919 168.59 165.246 168.59 166.884C168.59 168.521 169.917 169.849 171.555 169.849Z" fill="#986FF5"/>
<path d="M216.992 440.04C218.63 440.04 219.957 438.713 219.957 437.076C219.957 435.438 218.63 434.111 216.992 434.111C215.355 434.111 214.027 435.438 214.027 437.076C214.027 438.713 215.355 440.04 216.992 440.04Z" fill="#5FCEC6"/>
<path d="M385.111 425.211C386.204 425.211 387.089 424.325 387.089 423.233C387.089 422.14 386.204 421.254 385.111 421.254C384.019 421.254 383.133 422.14 383.133 423.233C383.133 424.325 384.019 425.211 385.111 425.211Z" fill="#5FCEC6"/>
<path d="M216.992 446.967C219.722 446.967 221.935 444.754 221.935 442.024C221.935 439.294 219.722 437.081 216.992 437.081C214.262 437.081 212.049 439.294 212.049 442.024C212.049 444.754 214.262 446.967 216.992 446.967Z" fill="#986FF5"/>
<path d="M295.149 530.435C298.079 530.435 300.453 528.061 300.453 525.131C300.453 522.202 298.079 519.828 295.149 519.828C292.22 519.828 289.846 522.202 289.846 525.131C289.846 528.061 292.22 530.435 295.149 530.435Z" fill="#5FCEC6"/>
<path d="M609.663 468.911C614.056 468.911 617.618 465.349 617.618 460.956C617.618 456.562 614.056 453 609.663 453C605.269 453 601.707 456.562 601.707 460.956C601.707 465.349 605.269 468.911 609.663 468.911Z" fill="#5FCEC6"/>
<path d="M169.668 540.751C170.76 540.751 171.646 539.865 171.646 538.773C171.646 537.68 170.76 536.794 169.668 536.794C168.575 536.794 167.689 537.68 167.689 538.773C167.689 539.865 168.575 540.751 169.668 540.751Z" fill="#5FCEC6"/>
<path d="M377.342 565.472C378.434 565.472 379.32 564.586 379.32 563.493C379.32 562.401 378.434 561.515 377.342 561.515C376.249 561.515 375.363 562.401 375.363 563.493C375.363 564.586 376.249 565.472 377.342 565.472Z" fill="#5FCEC6"/>
<path d="M395.142 548.664C396.235 548.664 397.121 547.778 397.121 546.686C397.121 545.593 396.235 544.708 395.142 544.708C394.05 544.708 393.164 545.593 393.164 546.686C393.164 547.778 394.05 548.664 395.142 548.664Z" fill="#5FCEC6"/>
</svg>
