<svg width="33" height="32" viewBox="0 0 33 32" fill="none" xmlns="http://www.w3.org/2000/svg">
<path d="M9.75 0C4.3725 0 0 4.24 0 9.45455V22.5455C0 27.76 4.3725 32 9.75 32H23.25C28.6275 32 33 27.76 33 22.5455V9.45455C33 4.24 28.6275 0 23.25 0H9.75ZM25.5 5.81818C26.325 5.81818 27 6.47273 27 7.27273C27 8.07273 26.325 8.72727 25.5 8.72727C24.675 8.72727 24 8.07273 24 7.27273C24 6.47273 24.675 5.81818 25.5 5.81818ZM16.5 8C21.0525 8 24.75 11.5855 24.75 16C24.75 20.4145 21.0525 24 16.5 24C11.9475 24 8.25 20.4145 8.25 16C8.25 11.5855 11.9475 8 16.5 8ZM16.5 9.45455C12.78 9.45455 9.75 12.3927 9.75 16C9.75 19.6073 12.78 22.5455 16.5 22.5455C20.22 22.5455 23.25 19.6073 23.25 16C23.25 12.3927 20.22 9.45455 16.5 9.45455Z" fill="white"/>
</svg>
