<svg width="34" height="34" viewBox="0 0 34 34" fill="none" xmlns="http://www.w3.org/2000/svg">
<path d="M17 0C7.62635 0 0 7.62561 0 17C0 26.3744 7.62635 34 17 34C26.3737 34 34 26.3744 34 17C34 7.62561 26.3737 0 17 0ZM11.8261 24.3913H8.86957V13.3043H11.8261V24.3913ZM10.3478 11.087C9.53109 11.087 8.86957 10.4254 8.86957 9.6087C8.86957 8.79196 9.53109 8.13043 10.3478 8.13043C11.1646 8.13043 11.8261 8.79196 11.8261 9.6087C11.8261 10.4254 11.1646 11.087 10.3478 11.087ZM25.8696 24.3913H22.913V20.6957V18.8478C22.913 17.425 21.7489 16.2609 20.3261 16.2609C18.9033 16.2609 17.7391 17.425 17.7391 18.8478V24.3913H14.7826V13.3043H17.7391V14.6466C18.6024 13.8173 19.7732 13.3043 21.0652 13.3043C23.7187 13.3043 25.8696 15.4552 25.8696 18.1087V24.3913Z" fill="white"/>
</svg>
