<svg width="146" height="44" viewBox="0 0 146 44" fill="none" xmlns="http://www.w3.org/2000/svg">
<g clip-path="url(#clip0_79_52298)">
<path fill-rule="evenodd" clip-rule="evenodd" d="M27.7054 23.3256C27.6398 23.3268 27.5741 23.3273 27.5083 23.3273C24.6512 23.3273 22.0404 22.2526 20.0439 20.4782L23.1154 12.1936H31.8325L27.7054 23.3256ZM25.8836 28.2394C25.6979 28.2306 25.5111 28.2261 25.3233 28.2261C18.807 28.2261 13.5244 33.6096 13.5244 40.2504C13.5244 41.3286 13.6637 42.3736 13.9248 43.3678H20.2743L25.8836 28.2394ZM8.28365 34.5384C10.9562 32.2104 12.6504 28.7499 12.6504 24.886C12.6504 23.8263 12.523 22.797 12.2829 21.8129L11.2581 19.0489C9.18471 14.9762 5.00924 12.1937 0.196076 12.1937C0.130598 12.1937 0.0652381 12.1942 0 12.1952L8.28365 34.5384Z" fill="url(#paint0_linear_79_52298)"/>
<path d="M53.7157 43.3098L52.4321 39.0234H52.2136C50.7569 40.8975 49.2911 42.1779 47.8163 42.8645C46.3414 43.5325 44.4478 43.8665 42.1354 43.8665C39.1674 43.8665 36.8459 43.0501 35.1708 41.4171C33.5138 39.7842 32.6854 37.474 32.6854 34.4864C32.6854 31.3133 33.8415 28.9196 36.154 27.3053C38.4664 25.6909 41.9897 24.8095 46.7238 24.6611L51.9404 24.494V22.8519C51.9404 20.8849 51.4852 19.419 50.5748 18.4541C49.6826 17.4706 48.2897 16.9788 46.3961 16.9788C44.8484 16.9788 43.3644 17.2108 41.9442 17.6747C40.5239 18.1386 39.1583 18.686 37.8473 19.3169L35.7716 14.6408C37.4104 13.7687 39.2038 13.1099 41.1521 12.6646C43.1004 12.2007 44.9394 11.9688 46.6692 11.9688C50.5111 11.9688 53.4062 12.8223 55.3545 14.5295C57.3212 16.2366 58.304 18.918 58.304 22.5735V43.3098H53.7157ZM44.1565 38.8564C46.4871 38.8564 48.3534 38.1977 49.7554 36.8802C51.1757 35.5441 51.8858 33.6793 51.8858 31.2856V28.6135L48.0075 28.7805C44.9849 28.8918 42.7817 29.4114 41.3979 30.3392C40.0323 31.2485 39.3495 32.6494 39.3495 34.5421C39.3495 35.9153 39.7501 36.9822 40.5512 37.743C41.3524 38.4853 42.5542 38.8564 44.1565 38.8564Z" fill="#130623"/>
<path d="M72.562 43.3097H66.1437V0H72.562V43.3097Z" fill="#130623"/>
<path d="M101.951 43.3098L101.05 39.2739H100.722C99.8299 40.7027 98.5556 41.8253 96.8985 42.6418C95.2596 43.4583 93.3843 43.8665 91.2721 43.8665C87.6125 43.8665 84.8811 42.9387 83.0785 41.0831C81.276 39.2275 80.3744 36.4162 80.3744 32.6494V12.5254H86.8478V31.5082C86.8478 33.8648 87.321 35.6369 88.268 36.8245C89.2145 37.9935 90.6984 38.578 92.7196 38.578C95.4147 38.578 97.3899 37.7616 98.6465 36.1286C99.9208 34.4772 100.558 31.7216 100.558 27.8619V12.5254H107.004V43.3098H101.951Z" fill="#130623"/>
<path d="M121.453 43.3098H115.035V12.5254H121.453V43.3098Z" fill="#130623"/>
<path d="M140.791 38.578C142.357 38.578 143.923 38.3275 145.489 37.8265V42.7532C144.779 43.0686 143.859 43.3283 142.731 43.5325C141.62 43.7551 140.463 43.8665 139.262 43.8665C133.18 43.8665 130.139 40.6006 130.139 34.0689V17.4798H126.016V14.5851L130.44 12.1914L132.625 5.67822H136.585V12.5254H145.189V17.4798H136.585V33.9576C136.585 35.5348 136.968 36.7038 137.733 37.4646C138.515 38.2069 139.535 38.578 140.791 38.578Z" fill="#130623"/>
<path d="M121.928 4.34231C121.928 6.43296 120.264 8.12771 118.213 8.12771C116.161 8.12771 114.499 6.43296 114.499 4.34231C114.499 2.25168 116.161 0.556885 118.213 0.556885C120.264 0.556885 121.928 2.25168 121.928 4.34231Z" fill="#130623"/>
</g>
<defs>
<linearGradient id="paint0_linear_79_52298" x1="12.3793" y1="-3.74772" x2="52.2604" y2="18.6083" gradientUnits="userSpaceOnUse">
<stop stop-color="#986FF5"/>
<stop offset="1" stop-color="#5E7EEC"/>
</linearGradient>
<clipPath id="clip0_79_52298">
<rect width="146" height="44" fill="white"/>
</clipPath>
</defs>
</svg>
