<svg width="34" height="34" viewBox="0 0 34 34" fill="none" xmlns="http://www.w3.org/2000/svg">
<path d="M17 0C26.3741 0 34 7.62592 34 17C34 26.3741 26.3741 34 17 34C7.62592 34 0 26.3741 0 17C0 7.62592 7.62592 0 17 0ZM24.0493 14.445C24.6897 13.9825 25.2457 13.4066 25.6842 12.7493C24.791 13.1552 23.8028 13.265 23.8028 13.265C23.8028 13.265 24.9574 12.597 25.2429 11.4523C24.6103 11.8277 23.9091 12.1005 23.1625 12.2478C22.5654 11.611 21.7132 11.2129 20.7719 11.2129C18.9628 11.2129 17.4965 12.6799 17.4965 14.4882C17.4965 14.7447 17.5808 15.2341 17.5808 15.2341C17.5808 15.2341 13.6276 15.2582 10.829 11.8115C10.829 11.8115 10.3983 12.388 10.3863 13.459C10.3657 15.2752 11.8433 16.1847 11.8433 16.1847C11.8433 16.1847 11.1003 16.2045 10.3601 15.7753C10.4267 18.5888 12.988 19.0287 12.988 19.0287C12.988 19.0287 12.1607 19.188 11.509 19.0853C11.9262 20.3865 13.1353 21.3343 14.569 21.3605C13.4484 22.2388 12.036 22.763 10.5003 22.763C10.2368 22.763 9.97546 22.7474 9.71904 22.717C10.4798 23.54 12.8903 24.1882 14.7404 24.1882C20.7655 24.1882 24.06 19.1973 24.06 14.8686C24.0592 14.727 24.0557 14.586 24.0493 14.445Z" fill="white"/>
</svg>
