<?xml version="1.0" encoding="utf-8"?>
<!-- Generator: Adobe Illustrator 24.3.0, SVG Export Plug-In . SVG Version: 6.00 Build 0)  -->
<svg version="1.1" id="Graphic_Element" xmlns="http://www.w3.org/2000/svg" xmlns:xlink="http://www.w3.org/1999/xlink" x="0px"
	 y="0px" viewBox="0 0 300 300" style="enable-background:new 0 0 300 300;" xml:space="preserve">
<style type="text/css">
	.st0{fill:#5237C4;}
	.st1{fill:#8481F7;}
	.st2{fill:#A1A1FF;}
	.st3{fill:#CCD2E1;}
	.st4{fill:#8C94B4;}
</style>
<g>
	<path class="st0" d="M295.9,168.6c0.6,0.4,0.3,1.5,1.1,1.7c0,27.1,0,54.2,0,81.4c-2.2,3.8-6,5.6-9.6,7.7c-22,12.5-44,25-66,37.6
		c-0.8,0-1.5,0-2.3,0c0-28.8,0-57.6,0-86.4c10.7-5.8,21.3-11.7,32-17.5c10.1-5.6,20.1-11.2,30.2-16.7
		C286.1,173.6,290.7,170.6,295.9,168.6z"/>
	<path class="st1" d="M73,172.6c-11.6-6.6-23.1-13.3-34.7-19.9c-9.7-5.5-19.4-11.1-29.1-16.5c-2.6-1.4-4.1-3.5-5.5-6
		c0-26.7,0-53.5,0-80.2c0.4-0.6,0.8-1.2,1.1-1.7c3.4,1,6.3,3,9.4,4.7c10.4,5.7,20.8,11.5,31.3,17.3c12,6.6,24.1,13.2,36.1,19.8
		l0,0.2c0,28.6,0,57.2,0,85.7l0,0.2C78.3,175.9,75.9,173.7,73,172.6z"/>
	<path class="st1" d="M219.1,210.5c0,28.8,0,57.6,0,86.4c-0.8,0-1.5,0-2.3,0c-16.9-9.7-33.9-19.4-50.8-29.1
		c-6.3-3.6-12.5-7.3-18.9-10.8c-3.7-2.1-5.5-5-5.4-9.3c0.1-6.7,0-13.4,0-20c8.4,0,16.8,0,25.2,0c5.7,0,9.2-3.4,9.2-8.6
		c0-5.2-3.6-8.6-9.2-8.6c-8.4,0-16.8,0-25.2,0c0-12.2,0-24.4,0-36.6c0-1.8,0.1-3.6,1.1-5.2c0.7,0.3,1.5,0.4,2.1,0.8
		c9.8,5.4,19.6,10.8,29.5,16.3c14.9,8.2,29.8,16.5,44.6,24.7L219.1,210.5z"/>
	<path class="st2" d="M152.2,43.3C129.4,30,106.7,16.8,83.9,3.6c-0.8,0-1.5,0-2.3,0c-0.6,0-1.1,0-1.7,0c-14,8-28.1,16-42.1,24.1
		c-9.3,5.3-18.6,10.7-28,16.1c-2,1.1-3.9,2.4-5,4.5c3.4,1,6.3,3,9.4,4.7c10.4,5.7,20.8,11.5,31.3,17.3c12,6.6,24.1,13.2,36.1,19.8
		l0,0.2C105.4,77,129.2,63.8,153,50.6c1.6-0.9,3-2.1,4.8-2.4C156.9,45.5,154.3,44.5,152.2,43.3z"/>
	<path class="st0" d="M81.6,90.2C105.4,77,129.2,63.8,153,50.6c1.6-0.9,3-2.1,4.8-2.4c1,1.4,1.1,3,1.1,4.6c0,12.4,0,24.8,0,37.2
		c-8.3,0-16.6,0-24.9,0c-5.7,0-9.4,3.4-9.5,8.4c-0.1,5.2,3.7,8.7,9.5,8.7c8.3,0,16.6,0,24.9,0c0,6.4-0.1,12.8,0.1,19.2
		c0.1,4.5-1.8,7.6-5.6,9.8c-9,5-17.9,10.2-26.8,15.3c-12.1,7-24.2,14-36.4,21c-2.9,1-5.2,3.6-8.6,3.3
		C81.6,147.3,81.6,118.7,81.6,90.2z"/>
	<path class="st3" d="M227.7,98.8c0-5.2-3.3-8.5-8.5-8.7c-20.1,0-40.1-0.1-60.2-0.1c-8.3,0-16.6,0-24.9,0c-5.7,0-9.4,3.4-9.5,8.4
		c-0.1,5.2,3.7,8.7,9.5,8.7c8.3,0,16.6,0,24.9,0c16.3,0,32.5,0,48.8-0.1c2.3,0,2.9,0.7,2.8,2.9c-0.1,6.1-0.1,12.2-0.1,18.3
		c0,12.8,0,25.5,0,38.3c0,5.6,3,8.8,8.6,9.3c0,0,0-0.1,0-0.1c5.5-0.3,8.6-3.5,8.6-8.9c0-12.9,0.1-25.9,0.1-38.8
		C227.7,118.5,227.7,108.6,227.7,98.8z"/>
	<path class="st4" d="M166.9,210.4c-8.4,0-16.8,0-25.2,0c-16.4,0-32.8,0-49.1,0.1c-2.2,0-2.4-0.9-2.4-2.7c0.1-11.7,0-23.4,0-35.1
		c-2.9,1-5.2,3.6-8.6,3.3l0,0.2c-3.3-0.2-5.7-2.4-8.6-3.5c0,15.3,0,30.7,0,46c0,5.4,3.3,8.7,8.6,8.9c1.2,0,2.5,0.1,3.7,0.1
		c18.8,0,37.6,0,56.4,0c8.4,0,16.8,0,25.2,0c5.7,0,9.2-3.4,9.2-8.6C176.1,213.7,172.5,210.4,166.9,210.4z"/>
	<path class="st2" d="M291.4,164.4c-13.3-7.6-26.6-15.2-40-22.8c-7.9-4.5-15.8-8.8-23.7-13.3c0,12.9,0,25.9-0.1,38.8
		c0,5.4-3.1,8.6-8.6,8.9l0,0.1v0c-5.6-0.5-8.6-3.7-8.6-9.3c0-12.8,0-25.5,0-38.3c-0.2,0-0.4,0.1-0.6,0.1
		c-19.9,11.4-39.7,22.7-59.5,34.1c-2.8,1.6-5.9,2.8-7.5,5.9c0.7,0.3,1.5,0.4,2.1,0.8c9.8,5.4,19.6,10.8,29.5,16.3
		c14.9,8.2,29.8,16.5,44.6,24.7c0,0,0,0.2,0,0.2c10.7-5.8,21.3-11.7,32-17.5c10.1-5.6,20.1-11.2,30.2-16.7c4.8-2.6,9.4-5.7,14.6-7.7
		C295.2,166.3,293.2,165.4,291.4,164.4z"/>
</g>
</svg>
