<?xml version="1.0" encoding="utf-8"?>
<!-- Generator: Adobe Illustrator 24.3.0, SVG Export Plug-In . SVG Version: 6.00 Build 0)  -->
<svg version="1.1" id="Graphic_Element" xmlns="http://www.w3.org/2000/svg" xmlns:xlink="http://www.w3.org/1999/xlink" x="0px"
	 y="0px" viewBox="0 0 380 380" style="enable-background:new 0 0 380 380;" xml:space="preserve">
<style type="text/css">
	.st0{fill:#8481F7;}
	.st1{fill:#A1A1FF;}
	.st2{fill:#5237C4;}
	.st3{fill:#CCD2E1;}
</style>
<g>
	<path class="st0" d="M64.5,376.4c-2.4,0.6-4.4-0.4-6.3-1.5c-15.3-8.6-30.5-17.3-45.8-26c-4.2-2.4-6.3-6-6.3-10.7
		c-0.1-17.2,0-34.4,0-51.7c0-1.7,0.2-3.5,1.3-4.9c0.8,0.3,1.7,0.5,2.4,0.9c10.9,6,21.7,12.1,32.6,18c7.3,3.9,14.2,8.6,21.9,11.9
		C64.4,333.8,64.4,355.1,64.5,376.4z"/>
	<path class="st0" d="M51,127.9c-12.3-7.1-24.5-14.3-36.9-21.1C8.4,103.7,5.9,99.4,6,93C6.2,76.9,6,60.8,6.1,44.7c0-2.5,0-5,1.9-7
		c0.6,0.5,1.1,1,1.7,1.4c14.8,8.3,29.6,16.7,44.5,24.8c3.3,1.8,6.3,4.5,10.3,5c0,21.4,0,42.9-0.1,64.3c-1.9,0.3-3.7-0.1-5.3-0.9
		C56.3,130.9,53.7,129.4,51,127.9z"/>
	<path class="st1" d="M64.5,68.8c-4-0.5-7-3.2-10.3-5C39.3,55.7,24.5,47.4,9.6,39.1c-0.6-0.4-1.1-0.9-1.7-1.4
		c0.7-2.3,2.6-3.6,4.6-4.7C27.6,24.3,42.8,15.7,58,7.1c3.9-2.2,7.8-2.3,11.7-0.1c15.3,8.7,30.5,17.4,45.8,26.1
		c2,1.1,3.7,2.5,4.5,4.8c-6.2,3.5-12.3,7.1-18.5,10.5C89.2,55.3,76.8,62,64.5,68.8z"/>
	<path class="st1" d="M263.2,38.6c1.1-2.7,3.1-4.4,5.5-5.8c15-8.5,30-17,44.9-25.6c4.2-2.4,8.3-2.4,12.4,0c15,8.5,29.9,17,44.9,25.6
		c2.1,1.2,4.1,2.5,4.9,4.9c-0.6,0.5-1.1,1-1.8,1.3c-7.5,4.2-14.9,8.4-22.5,12.6c-10.5,5.8-20.9,11.5-31.4,17.2
		c-1.2-0.4-2.4-0.6-3.5-1.2C301.4,59.1,286,50.5,270.6,42C268.2,40.7,266.2,38.7,263.2,38.6z"/>
	<path class="st2" d="M320.2,68.9c10.5-5.7,21-11.4,31.4-17.2c7.5-4.1,15-8.4,22.5-12.6c0.6-0.4,1.2-0.9,1.8-1.3
		c1.8,1.9,1.8,4.3,1.8,6.6c0,16.6,0,33.2,0,49.7c0,5.5-2.3,9.4-7.1,12.1c-12.7,7.1-25.2,14.4-37.8,21.7c-4.3,1.5-7.6,5.5-12.6,5.2
		C320.2,111.7,320.2,90.3,320.2,68.9z"/>
	<path class="st0" d="M320.2,376.5c-2.8,0.4-5-0.9-7.3-2.2c-14.5-8.3-28.9-16.6-43.5-24.7c-5-2.8-7.5-6.6-7.1-12.4
		c0.1-1.7,0-3.5-0.1-5.2c0-8.6,0-17.2-0.1-25.8c0.1-6.4,0.1-12.7,0.2-19.1c0-1.9-0.2-3.8,1-5.4c1,0,1.9,0.5,2.7,1
		c18,10,36.1,19.9,54.1,29.9C320.2,333.8,320.2,355.1,320.2,376.5z"/>
	<path class="st0" d="M320.2,68.9c0,21.4-0.1,42.8-0.1,64.3c-1.9,0.3-3.7-0.2-5.4-1.1c-2.5-1.4-5-2.7-7.6-4
		c-11.6-6.7-23-13.7-34.9-19.9c-7.3-3.8-11.2-8.7-10.1-17.1c0.1-0.8-0.1-1.7-0.2-2.6c0.4-8.6,0.3-17.2,0.1-25.8
		c0-6.2,0-12.4,0.1-18.7c0-1.8-0.3-3.8,0.9-5.4c2.9,0.1,5,2.1,7.3,3.4c15.4,8.5,30.8,17.1,46.2,25.6
		C317.8,68.3,319.1,68.5,320.2,68.9z"/>
	<path class="st2" d="M320.2,376.5c0-21.3,0-42.7,0-64c12.6-7,25.1-14.2,37.8-21.1c6.1-3.3,11.8-7.4,18.4-9.8c1.3,2,1.3,4.2,1.3,6.5
		c0,16.2-0.1,32.5,0,48.7c0,5.8-2.2,9.9-7.4,12.8c-14.5,8.1-28.8,16.3-43.2,24.5C325,375.4,322.8,376.6,320.2,376.5z"/>
	<path class="st3" d="M51,127.9c2.7,1.5,5.3,3,8,4.3c1.7,0.8,3.5,1.2,5.3,0.9c4.8,0.2,8-3.7,12.2-5.1c0,40.7,0,81.4,0,122.1
		c0,1.5-0.2,3,0.5,4.4c-1.5,4.4-0.4,8.9-0.6,13.3c-0.3,6.2-4.8,11.8-10.4,12.3c-7.7,0.8-12.9-2.6-14.6-9.7c-1.3-5.3-0.2-10.7-0.7-16
		c0-4.2,0.1-8.5,0.1-12.7C51,203.8,51,165.9,51,127.9z"/>
	<path class="st3" d="M307.2,128c2.5,1.3,5.1,2.6,7.6,4c1.7,0.9,3.5,1.4,5.4,1.1c5,0.3,8.3-3.7,12.6-5.2c0,40.6,0,81.1,0,121.7
		c0,1.6,0.1,3.2,0.1,4.9c0,4.4,0.1,8.7-0.1,13.1c-0.4,8.1-5.8,12.9-14,12.6c-6.6-0.2-11.3-5.7-11.5-13.1c-0.1-4.2,0.8-8.4-0.6-12.6
		c0.7-1.4,0.5-2.9,0.5-4.4C307.2,209.5,307.2,168.8,307.2,128z"/>
	<path class="st2" d="M64.5,376.4c0-21.3-0.1-42.7-0.1-64c0.7-0.5,1.4-1,2.2-1.4c13.2-7.4,26.4-14.8,39.7-22.1
		c4.7-2.5,9-5.7,14.1-7.4c1.2,1.8,1,3.8,1,5.7c0.1,6.3,0.1,12.6,0.2,18.9c0,8.6,0,17.2,0,25.8c-0.2,13.1,0.9,13.1-12.7,20.8
		c-12.7,7.1-25.3,14.3-37.9,21.5C69,375.3,67,376.5,64.5,376.4z"/>
	<path class="st2" d="M76.6,128.1c-4.2,1.4-7.3,5.3-12.2,5.1c0-21.4,0-42.9,0.1-64.3c12.3-6.8,24.7-13.6,37-20.4
		c6.2-3.4,12.3-7,18.5-10.5c1.6,1.5,1.5,3.6,1.5,5.5c0.1,6.4,0.1,12.9,0.1,19.3c0,8.6,0,17.2,0.1,25.8c-0.1,0.9-0.3,1.8-0.1,2.6
		c1.1,8.2-2.5,13.1-9.7,16.9C99.8,114.2,88.3,121.3,76.6,128.1z"/>
	<path class="st3" d="M121.7,88.5c0-8.6,0-17.2-0.1-25.8c13.4,0,26.7,0.1,40.1,0.1c31.9,0,63.7,0,95.6,0c1.6,0,3.2-0.1,4.9-0.1
		c0.2,8.6,0.3,17.2-0.1,25.8C215.3,88.5,168.5,88.5,121.7,88.5z"/>
	<path class="st3" d="M121.6,331.9c0-8.6,0-17.2,0-25.8c13,0,26,0.1,39,0.1c33.8,0,67.7-0.1,101.5-0.1c0,8.6,0,17.2,0.1,25.8
		c-8.1,0-16.2-0.1-24.4-0.1C199.1,331.8,160.3,331.9,121.6,331.9z"/>
	<path class="st1" d="M306.7,254.6c1.4,4.1,0.5,8.4,0.6,12.6c0.2,7.4,4.9,12.9,11.5,13.1c8.2,0.2,13.6-4.5,14-12.6
		c0.2-4.4,0.1-8.7,0.1-13.1c13.1,7.4,26.1,14.7,39.1,22.2c2,1.1,3.5,2.7,4.3,4.9c-6.6,2.4-12.3,6.5-18.4,9.8
		c-12.7,6.9-25.2,14-37.8,21.1c-18-9.9-36.1-19.9-54.1-29.9c-0.9-0.5-1.7-1-2.7-1c1-2.4,2.8-4.1,5-5.3
		C281.1,269.1,293.9,261.8,306.7,254.6z"/>
	<path class="st1" d="M120.5,281.6c-5.1,1.7-9.5,4.8-14.1,7.4C93,296.2,79.8,303.6,66.6,311c-0.8,0.4-1.5,0.9-2.2,1.4
		c-7.7-3.3-14.6-7.9-21.9-11.9c-10.9-5.9-21.8-12-32.6-18c-0.7-0.4-1.6-0.6-2.4-0.9c0.8-2.2,2.3-3.9,4.3-5
		c13-7.4,26.1-14.8,39.2-22.2c0.5,5.3-0.6,10.7,0.7,16c1.7,7,6.9,10.4,14.6,9.7c5.6-0.5,10.1-6.1,10.4-12.3
		c0.2-4.4-0.9-8.9,0.6-13.3c12.8,7.2,25.6,14.4,38.3,21.7C117.7,277.5,119.4,279.2,120.5,281.6z"/>
	<path class="st3" d="M262.3,197.3c0,8.2,0.1,16.5,0,24.7c-0.2,10.1-4.4,18.1-13.3,23.2c-14.7,8.5-29.4,17-44.2,25.3
		c-8.6,4.9-17.4,4.8-26-0.1c-14.5-8.3-29.1-16.6-43.6-24.9c-9.2-5.3-13.7-13.3-13.7-23.7c-0.1-16.2-0.1-32.5,0-48.7
		c0-10.6,4.7-18.7,14-24c13.3-7.6,26.8-15,39.9-23c11.1-6.8,21.5-7.1,32.7-0.3c13.4,8.2,27.3,15.7,40.9,23.6
		c8.8,5.1,13.3,13,13.4,23.2C262.4,180.8,262.3,189,262.3,197.3z M146.9,196.4c0,5.9,0.2,10.7,0,15.4c-0.4,7.5,3,12.4,9.6,15.9
		c8.9,4.7,17.8,9.6,26.4,14.9c6,3.7,11.5,4,17.5,0.4c9.4-5.5,18.8-10.8,28.3-16c5.6-3.1,8.2-7.8,8.1-14.1c0-10.4,0-20.7,0-31.1
		c0-6.1-2.5-10.8-7.9-13.8c-10-5.6-20-11.2-30-16.9c-4.8-2.7-9.4-2.7-14.2,0.1c-10.3,5.9-20.6,11.8-30.9,17.6
		c-3.5,2-5.6,4.8-6.4,8.7C146.2,184.1,147.4,190.8,146.9,196.4z"/>
	<path class="st2" d="M146.9,196.4c0.4-5.5-0.7-12.3,0.5-19c0.7-4,2.9-6.8,6.4-8.7c10.3-5.8,20.6-11.7,30.9-17.6
		c4.8-2.7,9.4-2.8,14.2-0.1c10,5.7,20,11.3,30,16.9c5.5,3,7.9,7.7,7.9,13.8c0,10.4,0,20.7,0,31.1c0,6.3-2.5,11-8.1,14.1
		c-9.5,5.3-19,10.5-28.3,16c-6,3.6-11.5,3.3-17.5-0.4c-8.6-5.3-17.5-10.2-26.4-14.9c-6.6-3.4-10-8.3-9.6-15.9
		C147.1,207.1,146.9,202.3,146.9,196.4z"/>
</g>
</svg>
