<?xml version="1.0" encoding="utf-8"?>
<!-- Generator: Adobe Illustrator 24.3.0, SVG Export Plug-In . SVG Version: 6.00 Build 0)  -->
<svg version="1.1" id="Layer_1" xmlns="http://www.w3.org/2000/svg" xmlns:xlink="http://www.w3.org/1999/xlink" x="0px" y="0px"
	 viewBox="0 0 104 104" style="enable-background:new 0 0 104 104;" xml:space="preserve">
<style type="text/css">
	.st0{fill:#F8FBFF;}
	.st1{fill:#0C041E;}
	.st2{fill:url(#SVGID_1_);}
	.st3{fill-rule:evenodd;clip-rule:evenodd;fill:#FFFFFF;}
</style>
<circle class="st0" cx="52" cy="52" r="52"/>
<circle class="st1" cx="52" cy="52" r="52"/>
<linearGradient id="SVGID_1_" gradientUnits="userSpaceOnUse" x1="33.6022" y1="42.6644" x2="58.7352" y2="58.1498" gradientTransform="matrix(1 0 0 -1 0 106)">
	<stop  offset="0" style="stop-color:#6E39EC"/>
	<stop  offset="1" style="stop-color:#5E7EEC"/>
</linearGradient>
<circle class="st2" cx="52" cy="52" r="52"/>
<path class="st3" d="M72.8,48.8c-0.1,0-0.2,0-0.3,0c-5,0-9.6-1.9-13.1-4.9l5.4-14.3H80L72.8,48.8z M69.6,57.3c-0.3,0-0.7,0-1,0
	c-11.5,0-20.8,9.3-20.8,20.8c0,1.9,0.2,3.7,0.7,5.4h11.2l0,0h0L69.6,57.3z M38.6,68.2c4.7-4,7.7-10,7.7-16.7c0-1.8-0.2-3.6-0.6-5.3
	l-1.8-4.8c-3.6-7-11-11.8-19.5-11.8c-0.1,0-0.2,0-0.3,0L38.6,68.2z"/>
</svg>
