<?xml version="1.0" encoding="utf-8"?>
<!-- Generator: Adobe Illustrator 24.3.0, SVG Export Plug-In . SVG Version: 6.00 Build 0)  -->
<svg version="1.1" id="Graphic_Element" xmlns="http://www.w3.org/2000/svg" xmlns:xlink="http://www.w3.org/1999/xlink" x="0px"
	 y="0px" viewBox="0 0 400 400" style="enable-background:new 0 0 400 400;" xml:space="preserve">
<style type="text/css">
	.st0{opacity:0.5;fill:#28226B;}
	.st1{fill:#EBB67F;}
	.st2{fill:#13161B;}
	.st3{fill:#252B33;}
	.st4{fill:#FBFBFB;}
	.st5{fill:#1A1C1F;}
	.st6{fill:#18191B;}
	.st7{fill:#DEF1F1;}
	.st8{fill:#CBD1E0;}
	.st9{fill:#8C93B3;}
	.st10{fill:#EDECE9;}
	.st11{fill:#F8FBFF;}
	.st12{fill:#1C1E22;}
	.st13{fill:#DE9B59;}
	.st14{fill:#140C24;}
	.st15{fill:#E1E8F5;}
	.st16{fill:#3A28A0;}
	.st17{fill:url(#SVGID_1_);}
	.st18{fill:#8481F7;}
	.st19{fill:#A1A1FF;}
	.st20{fill:#5237C4;}
	.st21{fill:#FFFFFF;}
	.st22{fill:url(#SVGID_2_);}
	.st23{fill:url(#SVGID_3_);}
	.st24{fill:url(#SVGID_4_);}
	.st25{fill:url(#SVGID_5_);}
	.st26{fill:url(#SVGID_6_);}
	.st27{fill:url(#SVGID_7_);}
	.st28{fill:url(#SVGID_8_);}
	.st29{fill:url(#SVGID_9_);}
	.st30{fill:url(#SVGID_10_);}
	.st31{fill:url(#SVGID_11_);}
	.st32{fill:url(#SVGID_12_);}
	.st33{fill:url(#SVGID_13_);}
	.st34{fill:url(#SVGID_14_);}
	.st35{fill:url(#SVGID_15_);}
</style>
<g>
	<ellipse class="st0" cx="276.5" cy="361.6" rx="39.2" ry="19.6"/>
	<ellipse class="st0" cx="355.9" cy="357.3" rx="39.2" ry="19.6"/>
	<ellipse class="st0" cx="312.6" cy="331.3" rx="39.2" ry="19.6"/>
	<ellipse class="st0" cx="250.3" cy="321.2" rx="39.2" ry="19.6"/>
	<g>
		<path class="st0" d="M148.9,378.7c-22.6,13.1-59.4,13-82.2-0.1c-22.8-13.1-22.9-34.4-0.3-47.5c22.6-13.1,59.4-13,82.2,0.1
			C171.4,344.4,171.5,365.6,148.9,378.7z"/>
		<g>
			<path class="st1" d="M187.6,148.1c0,0,5-3.2,8.3-3.5c3.3-0.3,9.2-1.1,11.1-2.2c2-1.1,4.5-4.2,4.5-4.2s1.7,1.7,0,5.6
				c-1.7,3.9-10.9,9.2-10.9,9.2l16.8,1.7c0,0-11.9,14.7-18.8,12.8c-7-2-16.1-5.3-16.9-10.6C180.9,151.5,187.6,148.1,187.6,148.1z"/>
			<path class="st2" d="M160.4,352.1c-2.8,0.5-17.9-4.3-20.3-5.1c-2.4-0.8-11.7-12.3-11.7-12.3s-1.4,1-2.2,1.6
				c-0.8,0.7-13.5-9.3-13.5-9.3s-0.2-1.6-0.4-4c-0.1-1.5-0.2-3.3-0.3-5.3c-0.2-5.1,0.6-5,0.6-5c-1.5-9.1,22.6-16.1,26.8-5.1
				c4.1,11,5.7,15.5,10.2,19.4C161.7,337.7,172.1,350,160.4,352.1z"/>
			<g>
				<path class="st3" d="M48.8,352.6c0,0-2.2,1-2.4,5.3c-0.2,4.3,0.8,4,0.8,4s6.4,3.2,7.5,4.5c1.1,1.3,1.4,3.3,1.4,3.3
					s5,10.2,11.2,12.8c6.2,2.6,22.3,3.9,24.2,2.6c1.9-1.3-2.7-4.7-8.6-13C77,363.8,50.7,350.1,48.8,352.6z"/>
				<path class="st2" d="M52.4,343.4c0,0-5.5,6.4-5.7,10.9c-0.2,4.4,9.5,8,10.4,11.2c0.9,3.2,5.9,15.3,13.2,17.4
					c7.2,2.1,17.8,4.2,20.7,0.4c3-3.8-4.1-10.6-6.3-13.1c-2.1-2.6-13.2-22.5-13.2-22.5S54.1,334.9,52.4,343.4z"/>
			</g>
			<g>
				<g>
					<g>
						<path class="st4" d="M185.9,145.9l3.5,1.2c0,0-3.2,1.9-4.5,5c-1.4,3.1-2.3,7.5-2.3,7.5l-3.6-0.5
							C178.9,159,177.7,147.8,185.9,145.9z"/>
						<path class="st5" d="M132.9,68c8.2,20.3,14.5,45.6,14.5,45.6l41.3,32.5c0,0-7.1,3.1-7.8,7.7c-0.7,4.6,0,6.4,0,6.4
							s-30.4-13.1-37.4-14.8c-7-1.7-18.8-23.4-18.8-23.4s-12.8-57.4-9.2-63.4C119.2,52.5,126.9,52.9,132.9,68z"/>
					</g>
					<g>
						<path class="st6" d="M79.9,194.4l47.1-21c0,0,11.1,62.1,9.6,70.1c-1.5,8,3.6,52.5,4.2,58.7c0.6,5.4,2.6,14,2.6,14
							s-4,8.7-14,8.7c-7.7,0-20-6.6-20-6.6s-8.1-29.4-3.4-46.8c4.7-17.4-17-65.5-17-65.5L79.9,194.4z"/>
					</g>
					<g>
						<g>
							<path class="st7" d="M69,348.6c0,0,0.1-17.3,2.7-33.6c2.5-16.3,8.4-21.1,12-27.9c10.5-20.3,6.9-53.4,8.7-72.7
								c1.8-19.3,0-24.7,0-24.7c-11.3-17.8-30.9-9.8-38.1-2.5c-7.3,7.3,5.1,83.2,5.1,85c0,1.8-8.7,20.7-11.6,28.3
								c-2.9,7.6,4,33,4,33s-6.7,15.8,11.8,22C65.6,356.1,73.4,352.6,69,348.6z"/>
						</g>
						<path class="st5" d="M53.5,189.8c0,0-4.5,7.2-1.8,33.3c2.7,26.1,6.4,38,3.6,50.9c-1.5,7.1-8,18.8-9.9,27.8
							c-1.8,9,4.1,39.2,4.1,39.2s1.4,9.5,9.5,13.6c8,4,14.1,4.5,14.1,4.5s4.2-12.7,6.1-41.2c1.1-15.4,8.2-36.2,9.9-37.8
							c1.7-1.7,20.7-93.2,20.7-98.2C109.9,176.8,53.5,189.8,53.5,189.8z"/>
					</g>
					<g>
						<g>
							<path class="st8" d="M121.4,68c-0.8-1.3-1.9-2.5-3.2-3.4c-2.1-1.6-4.9-2.7-8.1-3.5C95,57.5,69,76.6,51.3,84.5
								c-1.6,21-1.7,25.5,1.9,47.5c2.2,13.3,12.5,22.8,13.9,35.3c1.3,12-11.8,24.6-16.5,34.5c3.1,1.7,8.8,2.7,19.7,0.1
								c22.8-5.5,64.1-16.9,54.3-37.2c-0.8-7.2-1.3-12.5-1.3-14.7c0-3.5-2.9-18,1.2-36C126.7,104.2,131.9,85.7,121.4,68z"/>
						</g>
					</g>
					<g>
						<path class="st9" d="M95.2,86.4c0,0,7.8,26.6,7.8,33.8c0,7.2-0.4,51.2-0.4,51.2l6.5,5.1l8.4-26c0,0-6.5-29.1-18.9-61.9
							C96.7,83.5,97.7,90.4,95.2,86.4z"/>
						<path class="st9" d="M92.2,87.1c-1-1.6-3-6.5-3-6.5s10.8-4.6,12.2-2.5c4.2,6.4-1.2,14.8-1.2,14.8l-2.6,0.7
							C97.5,93.6,95.8,92.8,92.2,87.1z"/>
					</g>
					<g>
						<path class="st10" d="M107.4,83l-11.6,0.3l-11.6,6.4c0,0,7.9-9.4,11.7-10.2C98.8,78.8,107.4,83,107.4,83z"/>
					</g>
					<g>
						<g>
							<polygon class="st11" points="107.1,82.5 95.8,79.5 95.6,70.3 103.5,69.4 							"/>
						</g>
					</g>
					<path class="st12" d="M91.6,52.8c0,0,13.4,18.3,14.8,28.5c2,14.7,0.6,63.6,0.6,63.6s-3.2,22-0.5,31.6
						c2.7,9.6,10.5,38.3,14.4,38.3c3.9,0,14-9.5,14-9.5s-9.5-59.2-9.5-61.9c0-2.7,7.6-62.8,0.5-80.6C118.7,45.1,91.6,52.8,91.6,52.8
						z"/>
					<path class="st3" d="M106.5,144.6c0,0,5-38.2,6.5-44.4c1.5-6.4,2.2-12.9,2.2-12.9l-4.5-4.7l5.4-0.7c0,0-4.4-16.5-9.9-22
						c-5.5-5.5-7.5,3.8-7.5,3.8s6.4,10.5,7.7,17.6C107.6,88.4,106.5,144.6,106.5,144.6z"/>
					<g>
						<g>
							<g>
								<path class="st13" d="M102.4,67c0,0-5.3,7.7-5.2,10.5c0.1,2.8-9.6,3.7-9.6,3.7s-0.6,2.4-7.9-2.6c-8.8-6-10.4-14.2-10.4-14.2
									s5.5-2,6.1-7.2C75.3,51.1,102.4,67,102.4,67z"/>
							</g>
						</g>
						<path class="st1" d="M111.5,23.1c0,0,4.7,11.8,3.1,15.8c-1.5,4-2.9,1.4-2.3,6.2c0.6,4.8,1.8,6.4,0,10c-2,3.9-2.5,4.6-4.3,9.2
							c-2,5.1-7.9,5.5-14.1,2.9c-6.2-2.6-18.8-8.9-22.2-16.4C68.2,43.3,49,15.7,83,9.6C98.6,6.8,111.5,23.1,111.5,23.1z"/>
						<g>
							<g>
								<path class="st14" d="M111.1,21.7c-1.3,2.1-1.1-2.2-11.5,3.1c-10.3,5.3-12.1,2.9-11.5,7.7c0.5,4.7-5.4,16.5-5.4,16.5
									s-2.3,1.5-4-0.9c-2.6-3.6-5.2-11.1-6.2-6.4C71,49.4,77.8,58,77.8,58S53.3,52.3,62,24.4C73.9-13.6,113.9,17.2,111.1,21.7z"/>
							</g>
						</g>
						<g>
							<g>
								<path class="st1" d="M76.1,41c-0.1-0.1-2.9-4.5-4.9-2.7c-1.9,1.8-2.9,4.8-1.7,8.5c1.3,3.7,3.9,8.2,6.5,7.7
									c2.6-0.4,3.4-0.2,4.6-2.4c1.1-2.2,0-4.4,0-4.4L76.1,41z"/>
							</g>
						</g>
					</g>
					<path class="st11" d="M75.9,71.4c-4.2-4.5-0.6-13.2-0.6-13.2s-0.8,2.5-6.5,6.9c-5.7,4.4-4.8,4.9-4.8,4.9s2,4.5,6.8,9.4
						c4.9,4.9,9.4,14.4,9.4,14.4l14.5-13.7C94.8,79.9,79.2,74.9,75.9,71.4z"/>
					<path class="st12" d="M71.4,61.1c0,0-7.1,14.6,5.4,22.9c8.5,5.6,39.4,53.3,39.4,58.5c0,5.2-6.4,39.3-6.4,39.3
						s6.2,43.6-15.4,51.1c-9.4,3.3-16.5,4.4-23.4,5.5c-11.2,1.8-30.6-7.7-30.6-7.7s1.3-19.4,4.5-34.6c2.7-12.9,9.3-23.4,8.4-27.4
						c-1.9-8.6-11.3-38.6-13.3-46c-2-7.4-13.7-26.8-2.1-33.5C49.5,82.5,71.4,61.1,71.4,61.1z"/>
					<path class="st3" d="M75.4,58.1l-7.9,3c0,0-4.5,5.9-2.1,16c1.6,6.6,4.3,11.2,4.3,11.2l7.1-2.1l-4.1,6.4
						c0,0,42.1,43.7,43.5,48.1c1.5,4.5-23.5-42.1-35.5-57.3C68.7,68.2,75.4,58.1,75.4,58.1z"/>
					<path class="st6" d="M64.6,191.8c0,0,12.7,4.1,19,3.2c6.3-1,8.9-4.7,8.9-4.7l-0.9,13.7c0,0-14.4,3-25.6,0.3
						c-11.2-2.8-5.4-12.4-5.4-12.4H64.6z"/>
					<path class="st3" d="M64,188.6c0,0,12.7,4.1,19,3.2c6.3-1,9.5-1.5,9.5-1.5l-2,12.4c0,0-14.1,3.1-25.3,0.4
						c-11.2-2.8-5.3-14.4-5.3-14.4H64z"/>
					<path class="st3" d="M129.3,169.7c0,0,0.1,5.7-2.5,5.7c-2.7,0-1.4,9.5,1,9.5c2.4,0,3.9,0.2,3.9,0.2L129.3,169.7z"/>
				</g>
			</g>
			<g>
				<path class="st15" d="M34.6,13.1l3.3,3.7c0,0-21.3,67.6-21.8,84.9c-0.5,17.3,0.4,35.7,0.9,36.1c0.5,0.5-19.1-21.5-5.8-65.7
					C19,46,26.7,19.5,26.7,19.5L34.6,13.1z"/>
				<path class="st11" d="M25.5,15.7l3.5,3.5c0,0-19.4,61.2-19.9,78.5c-0.5,17.3,7.8,41.5,8.3,42c0.5,0.5-16.6-17.4-11.8-50.1
					C10.4,56.9,25.5,15.7,25.5,15.7z"/>
				<polygon class="st8" points="25.5,15.7 28.4,19.6 37.8,16.9 35,13.1 				"/>
			</g>
			<path class="st9" d="M123.5,138.9c-0.4,1.7-2,3.6-3.7,4.1c-0.7,0.2-1.3,0.2-1.7-0.1l-0.3-0.2l-1-0.7L22.9,72.1l-4.2-3.2l-0.2-0.2
				c-0.4-0.3-0.6-1-0.4-1.8c0.4-1.7,2-3.6,3.7-4.1c0.7-0.2,1.3-0.2,1.7,0.1l0.3,0.2l1,0.7l94.1,69.9l4.2,3.2l0.2,0.2
				C123.5,137.4,123.7,138,123.5,138.9z"/>
			<path class="st3" d="M48.2,90.7c0,0-13.6-10.4-18.7,8.3c-5.1,18.7,17.9,69.7,23.8,69.7c5.9,0,25.5-12.8,21.3-20.4
				C70.3,140.6,62.6,100.9,48.2,90.7z"/>
			<g>
				<g>
					
						<ellipse transform="matrix(0.9999 -1.094711e-02 1.094711e-02 0.9999 -1.3371 2.1025)" class="st16" cx="191.4" cy="123.2" rx="30.6" ry="32.6"/>
					<g>
						<g>
							
								<linearGradient id="SVGID_1_" gradientUnits="userSpaceOnUse" x1="5677.4619" y1="123.2443" x2="5728.6782" y2="123.2443" gradientTransform="matrix(-1 0 0 1 5897.5532 0)">
								<stop  offset="0" style="stop-color:#6E39EC"/>
								<stop  offset="1" style="stop-color:#5E7EEC"/>
							</linearGradient>
							<path class="st17" d="M185.6,97.7c13.2-5.2,28,2.1,32.9,16.2c4.9,14.1-1.9,29.8-15.1,35c-13.2,5.2-28-2.1-32.9-16.2
								C165.6,118.5,172.4,102.8,185.6,97.7z"/>
							<g>
								<path class="st18" d="M165.8,134.5c-5.9-16.9,2.3-35.7,18.1-41.9c15.8-6.2,33.5,2.5,39.3,19.4s-2.3,35.7-18.1,41.9
									C189.3,160.1,171.6,151.4,165.8,134.5z M170.5,132.7c4.9,14.1,19.6,21.4,32.9,16.2c13.2-5.2,20-20.9,15.1-35
									c-4.9-14.1-19.6-21.4-32.9-16.2C172.4,102.8,165.6,118.5,170.5,132.7z"/>
							</g>
							<path class="st19" d="M221.5,112.7C215.7,96.1,198.6,87.4,183,93c0.3-0.1,0.6-0.2,0.9-0.4c15.8-6.2,33.5,2.5,39.3,19.4
								s-2.3,35.7-18.1,41.9c-0.3,0.1-0.6,0.2-0.9,0.3C219.5,147.6,227.2,129.2,221.5,112.7z"/>
							<path class="st20" d="M185.6,97.7c0.3-0.1,0.5-0.2,0.8-0.3c-12.7,5.5-19.2,20.9-14.4,34.7c4.8,13.8,19.1,21.1,32.1,16.5
								c-0.3,0.1-0.5,0.2-0.8,0.3c-13.2,5.2-28-2.1-32.9-16.2C165.6,118.5,172.4,102.8,185.6,97.7z"/>
						</g>
					</g>
				</g>
				<path class="st21" d="M205.9,120.3c-0.1,0-0.1,0-0.2,0c-2.6,0.1-5.2-0.9-7.3-2.5l1-8.1l7.9-0.3L205.9,120.3z M205.3,125.1
					c-0.2,0-0.3,0-0.5,0c-5.9,0.2-9.5,5.6-8.1,12.1c0.2,1,0.6,2.1,1,3l5.7-0.2l0,0l0,0L205.3,125.1z M190.8,131.8
					c1.9-2.3,2.7-5.8,1.9-9.5c-0.2-1-0.5-2-1-3l-1.5-2.7c-2.7-3.9-7.1-6.5-11.4-6.3c-0.1,0-0.1,0-0.2,0L190.8,131.8z"/>
			</g>
			<path class="st1" d="M75.4,123.6c0,0,0-0.2,0-0.6c-0.2-2.4-0.8-11.2,0.7-13.2c1.7-2.3,4.9-6,6.8-7.9c1.9-1.9,6.2,3.2,6.4,3.8
				c0.2,0.6,2.6-0.6,3.4,0.8c0.9,1.5,2.1,4.7,3.2,4.5c1.1-0.2,3.8,4,3.8,4s3.5,3.7,3.5,5c-0.1,1.3-0.5,2.2-0.5,2.2l-5.1-3.6
				c0,0-4.5,3.6-4,4.7c0.4,1.1,1.5,2.6,1.5,2.6s-11.5,11.7-14.7,9.8C77.1,133.8,75.4,123.6,75.4,123.6z"/>
			<path class="st3" d="M60.5,144c-5.8,3.7-9.4,21.3-4.2,24.7c5.1,3.4,14.5,5.7,25.5-6.2c11.1-11.9,11.5-33.8,11.5-33.8
				s-12.3,1.7-17.4-9.1C72.6,112.8,68.6,138.8,60.5,144z"/>
			<path class="st1" d="M216.6,137.7c0,0,6.5,3.2,6.6,4.1c0.3,3.6,0.1,8,0.1,8l-6.4,5.7l-4.8-1c0,0,0.3-3.5,1.9-4.1
				c1.6-0.6,3.5-5.7,3.5-5.7S213.1,142.2,216.6,137.7z"/>
			<path class="st1" d="M212.9,143.4c0,0,6.5,3.2,6.6,4.1c0.3,3.6,0.1,8,0.1,8l-6.4,5.7l-4.8-1c0,0,0.3-3.5,1.9-4.1
				c1.6-0.6,3.5-5.7,3.5-5.7S209.4,147.8,212.9,143.4z"/>
			<path class="st1" d="M210.4,146.1c0,0,6.5,3.2,6.6,4.1c0.3,3.6,0.1,8,0.1,8l-6.4,5.7l-4.8-1c0,0,0.3-3.5,1.9-4.1
				c1.6-0.6,3.5-5.7,3.5-5.7S206.9,150.6,210.4,146.1z"/>
			<path class="st1" d="M208.4,151.9c0,0,4.5,2.8,4.6,3.6c0.2,3.2,0.1,7,0.1,7l-2.8,4.3l-9.6,0.7c0,0,4.8-3.9,5.9-4.5
				c1.1-0.6,2.4-5,2.4-5S205.9,155.8,208.4,151.9z"/>
		</g>
	</g>
	<path class="st11" d="M114.2,143.1c0,1.5-1,3.2-2.3,4c-1.3,0.7-2.3,0.1-2.3-1.3s1-3.2,2.3-4C113.2,141,114.2,141.6,114.2,143.1z"/>
	<path class="st11" d="M114.2,171.8c0,1.5-1,3.2-2.3,4c-1.3,0.7-2.3,0.1-2.3-1.3s1-3.2,2.3-4C113.2,169.8,114.2,170.4,114.2,171.8z"
		/>
	<g>
		<g>
			<g>
				<g>
					<linearGradient id="SVGID_2_" gradientUnits="userSpaceOnUse" x1="224.8011" y1="306.492" x2="283.8177" y2="306.492">
						<stop  offset="0" style="stop-color:#6E39EC"/>
						<stop  offset="1" style="stop-color:#5E7EEC"/>
					</linearGradient>
					<path class="st22" d="M254.7,287.6c-16.3-0.3-29.7,7.9-29.8,18.3c-0.2,10.4,12.9,19.1,29.2,19.4c16.3,0.3,29.7-7.9,29.8-18.3
						C284,296.6,270.9,287.9,254.7,287.6z"/>
					<g>
						<g>
							<path class="st18" d="M253.9,329c-19.5-0.4-35.1-10.8-34.9-23.2s16.2-22.3,35.7-21.9c19.5,0.4,35.1,10.8,34.9,23.2
								S273.4,329.4,253.9,329z M254.7,287.6c-16.3-0.3-29.7,7.9-29.8,18.3c-0.2,10.4,12.9,19.1,29.2,19.4
								c16.3,0.3,29.7-7.9,29.8-18.3C284,296.6,270.9,287.9,254.7,287.6z"/>
						</g>
					</g>
					<path class="st19" d="M221.2,305.9c0.2-12.2,15.7-21.9,34.6-21.9c-0.4,0-0.7,0-1.1,0c-19.5-0.4-35.5,9.5-35.7,21.9
						s15.4,22.8,34.9,23.2c0.4,0,0.7,0,1.1,0C236,328.3,220.9,318.1,221.2,305.9z"/>
					<path class="st20" d="M254.7,287.6c-0.3,0-0.6,0-0.9,0c15.8,0.6,28.4,9.2,28.2,19.4c-0.2,10.2-13.1,18.3-28.9,18.3
						c0.3,0,0.6,0,0.9,0c16.3,0.3,29.7-7.9,29.8-18.3C284,296.6,270.9,287.9,254.7,287.6z"/>
				</g>
				<g>
					<path class="st16" d="M289.4,314.4L289.4,314.4l0.2-7.3c-0.2,12.4-16.2,22.3-35.7,21.9c-19.5-0.4-35.1-10.8-34.9-23.2
						c0,0-0.1,8.1-0.2,8.4c-0.2,11.5,15.5,21.1,34.9,21.4s35.5-8.7,35.7-20.2C289.5,315.2,289.4,314.8,289.4,314.4z"/>
				</g>
			</g>
			<path class="st21" d="M267.5,305c-0.1,0-0.1,0-0.2,0c-3.1,0.1-6.2-0.6-8.6-1.9l2.2-6.4l9.6-0.4L267.5,305z M266.2,308.8
				c-0.2,0-0.4,0-0.6,0c-7.2,0.3-12.3,4.6-11.3,9.6c0.2,0.8,0.4,1.6,0.9,2.4l7-0.3l0,0h0L266.2,308.8z M247.7,314.3
				c2.6-1.9,4-4.6,3.5-7.5c-0.1-0.8-0.4-1.6-0.8-2.3l-1.5-2.1c-2.9-3-7.8-5-13.1-4.8c-0.1,0-0.1,0-0.2,0L247.7,314.3z"/>
		</g>
		<g>
			<g>
				<g>
					<linearGradient id="SVGID_3_" gradientUnits="userSpaceOnUse" x1="224.8011" y1="293.8366" x2="283.8177" y2="293.8366">
						<stop  offset="0" style="stop-color:#6E39EC"/>
						<stop  offset="1" style="stop-color:#5E7EEC"/>
					</linearGradient>
					<path class="st23" d="M254.7,275c-16.3-0.3-29.7,7.9-29.8,18.3c-0.2,10.4,12.9,19.1,29.2,19.4c16.3,0.3,29.7-7.9,29.8-18.3
						C284,284,270.9,275.3,254.7,275z"/>
					<g>
						<g>
							<path class="st18" d="M253.9,316.4c-19.5-0.4-35.1-10.8-34.9-23.2c0.2-12.4,16.2-22.3,35.7-21.9
								c19.5,0.4,35.1,10.8,34.9,23.2S273.4,316.7,253.9,316.4z M254.7,275c-16.3-0.3-29.7,7.9-29.8,18.3
								c-0.2,10.4,12.9,19.1,29.2,19.4c16.3,0.3,29.7-7.9,29.8-18.3C284,284,270.9,275.3,254.7,275z"/>
						</g>
					</g>
					<path class="st19" d="M221.2,293.2c0.2-12.2,15.7-21.9,34.6-21.9c-0.4,0-0.7,0-1.1,0c-19.5-0.4-35.5,9.5-35.7,21.9
						c-0.2,12.4,15.4,22.8,34.9,23.2c0.4,0,0.7,0,1.1,0C236,315.7,220.9,305.4,221.2,293.2z"/>
					<path class="st20" d="M254.7,275c-0.3,0-0.6,0-0.9,0c15.8,0.6,28.4,9.2,28.2,19.4c-0.2,10.2-13.1,18.3-28.9,18.3
						c0.3,0,0.6,0,0.9,0c16.3,0.3,29.7-7.9,29.8-18.3C284,284,270.9,275.3,254.7,275z"/>
				</g>
				<g>
					<path class="st16" d="M289.4,301.8L289.4,301.8l0.2-7.3c-0.2,12.4-16.2,22.3-35.7,21.9c-19.5-0.4-35.1-10.8-34.9-23.2
						c0,0-0.1,8.1-0.2,8.4c-0.2,11.5,15.5,21.1,34.9,21.4c19.5,0.4,35.5-8.7,35.7-20.2C289.5,302.5,289.4,302.2,289.4,301.8z"/>
				</g>
			</g>
			<path class="st21" d="M267.5,292.3c-0.1,0-0.1,0-0.2,0c-3.1,0.1-6.2-0.6-8.6-1.9l2.2-6.4l9.6-0.4L267.5,292.3z M266.2,296.1
				c-0.2,0-0.4,0-0.6,0c-7.2,0.3-12.3,4.6-11.3,9.6c0.2,0.8,0.4,1.6,0.9,2.4l7-0.3l0,0l0,0L266.2,296.1z M247.7,301.6
				c2.6-1.9,4-4.6,3.5-7.5c-0.1-0.8-0.4-1.6-0.8-2.3l-1.5-2.1c-2.9-3-7.8-5-13.1-4.8c-0.1,0-0.1,0-0.2,0L247.7,301.6z"/>
		</g>
		<g>
			<g>
				<g>
					<linearGradient id="SVGID_4_" gradientUnits="userSpaceOnUse" x1="224.8011" y1="280.9283" x2="283.8177" y2="280.9283">
						<stop  offset="0" style="stop-color:#6E39EC"/>
						<stop  offset="1" style="stop-color:#5E7EEC"/>
					</linearGradient>
					<path class="st24" d="M254.7,262.1c-16.3-0.3-29.7,7.9-29.8,18.3c-0.2,10.4,12.9,19.1,29.2,19.4c16.3,0.3,29.7-7.9,29.8-18.3
						C284,271.1,270.9,262.4,254.7,262.1z"/>
					<g>
						<g>
							<path class="st18" d="M253.9,303.5c-19.5-0.4-35.1-10.8-34.9-23.2c0.2-12.4,16.2-22.3,35.7-21.9
								c19.5,0.4,35.1,10.8,34.9,23.2S273.4,303.8,253.9,303.5z M254.7,262.1c-16.3-0.3-29.7,7.9-29.8,18.3
								c-0.2,10.4,12.9,19.1,29.2,19.4c16.3,0.3,29.7-7.9,29.8-18.3C284,271.1,270.9,262.4,254.7,262.1z"/>
						</g>
					</g>
					<path class="st19" d="M221.2,280.3c0.2-12.2,15.7-21.9,34.6-21.9c-0.4,0-0.7,0-1.1,0c-19.5-0.4-35.5,9.5-35.7,21.9
						c-0.2,12.4,15.4,22.8,34.9,23.2c0.4,0,0.7,0,1.1,0C236,302.8,220.9,292.5,221.2,280.3z"/>
					<path class="st20" d="M254.7,262.1c-0.3,0-0.6,0-0.9,0c15.8,0.6,28.4,9.2,28.2,19.4c-0.2,10.2-13.1,18.3-28.9,18.3
						c0.3,0,0.6,0,0.9,0c16.3,0.3,29.7-7.9,29.8-18.3C284,271.1,270.9,262.4,254.7,262.1z"/>
				</g>
				<g>
					<path class="st16" d="M289.4,288.9L289.4,288.9l0.2-7.3c-0.2,12.4-16.2,22.3-35.7,21.9c-19.5-0.4-35.1-10.8-34.9-23.2
						c0,0-0.1,8.1-0.2,8.4c-0.2,11.5,15.5,21.1,34.9,21.4c19.5,0.4,35.5-8.7,35.7-20.2C289.5,289.6,289.4,289.2,289.4,288.9z"/>
				</g>
			</g>
			<path class="st21" d="M267.5,279.4c-0.1,0-0.1,0-0.2,0c-3.1,0.1-6.2-0.6-8.6-1.9l2.2-6.4l9.6-0.4L267.5,279.4z M266.2,283.2
				c-0.2,0-0.4,0-0.6,0c-7.2,0.3-12.3,4.6-11.3,9.6c0.2,0.8,0.4,1.6,0.9,2.4l7-0.3l0,0l0,0L266.2,283.2z M247.7,288.7
				c2.6-1.9,4-4.6,3.5-7.5c-0.1-0.8-0.4-1.6-0.8-2.3l-1.5-2.1c-2.9-3-7.8-5-13.1-4.8c-0.1,0-0.1,0-0.2,0L247.7,288.7z"/>
		</g>
		<g>
			<g>
				<g>
					<linearGradient id="SVGID_5_" gradientUnits="userSpaceOnUse" x1="224.8011" y1="267.7589" x2="283.8177" y2="267.7589">
						<stop  offset="0" style="stop-color:#6E39EC"/>
						<stop  offset="1" style="stop-color:#5E7EEC"/>
					</linearGradient>
					<path class="st25" d="M254.7,248.9c-16.3-0.3-29.7,7.9-29.8,18.3c-0.2,10.4,12.9,19.1,29.2,19.4c16.3,0.3,29.7-7.9,29.8-18.3
						C284,257.9,270.9,249.2,254.7,248.9z"/>
					<g>
						<g>
							<path class="st18" d="M253.9,290.3c-19.5-0.4-35.1-10.8-34.9-23.2c0.2-12.4,16.2-22.3,35.7-21.9
								c19.5,0.4,35.1,10.8,34.9,23.2S273.4,290.7,253.9,290.3z M254.7,248.9c-16.3-0.3-29.7,7.9-29.8,18.3
								c-0.2,10.4,12.9,19.1,29.2,19.4c16.3,0.3,29.7-7.9,29.8-18.3C284,257.9,270.9,249.2,254.7,248.9z"/>
						</g>
					</g>
					<path class="st19" d="M221.2,267.2c0.2-12.2,15.7-21.9,34.6-21.9c-0.4,0-0.7,0-1.1,0c-19.5-0.4-35.5,9.5-35.7,21.9
						c-0.2,12.4,15.4,22.8,34.9,23.2c0.4,0,0.7,0,1.1,0C236,289.6,220.9,279.4,221.2,267.2z"/>
					<path class="st20" d="M254.7,248.9c-0.3,0-0.6,0-0.9,0c15.8,0.6,28.4,9.2,28.2,19.4c-0.2,10.2-13.1,18.3-28.9,18.3
						c0.3,0,0.6,0,0.9,0c16.3,0.3,29.7-7.9,29.8-18.3C284,257.9,270.9,249.2,254.7,248.9z"/>
				</g>
				<g>
					<path class="st16" d="M289.4,275.7L289.4,275.7l0.2-7.3c-0.2,12.4-16.2,22.3-35.7,21.9c-19.5-0.4-35.1-10.8-34.9-23.2
						c0,0-0.1,8.1-0.2,8.4c-0.2,11.5,15.5,21.1,34.9,21.4s35.5-8.7,35.7-20.2C289.5,276.5,289.4,276.1,289.4,275.7z"/>
				</g>
			</g>
			<path class="st21" d="M267.5,266.2c-0.1,0-0.1,0-0.2,0c-3.1,0.1-6.2-0.6-8.6-1.9l2.2-6.4l9.6-0.4L267.5,266.2z M266.2,270
				c-0.2,0-0.4,0-0.6,0c-7.2,0.3-12.3,4.6-11.3,9.6c0.2,0.8,0.4,1.6,0.9,2.4l7-0.3l0,0h0L266.2,270z M247.7,275.5
				c2.6-1.9,4-4.6,3.5-7.5c-0.1-0.8-0.4-1.6-0.8-2.3l-1.5-2.1c-2.9-3-7.8-5-13.1-4.8c-0.1,0-0.1,0-0.2,0L247.7,275.5z"/>
		</g>
		<g>
			<g>
				<g>
					<linearGradient id="SVGID_6_" gradientUnits="userSpaceOnUse" x1="285.5017" y1="310.5826" x2="344.5183" y2="310.5826">
						<stop  offset="0" style="stop-color:#6E39EC"/>
						<stop  offset="1" style="stop-color:#5E7EEC"/>
					</linearGradient>
					<path class="st26" d="M315.4,291.7c-16.3-0.3-29.7,7.9-29.8,18.3c-0.2,10.4,12.9,19.1,29.2,19.4c16.3,0.3,29.7-7.9,29.8-18.3
						C344.7,300.7,331.6,292,315.4,291.7z"/>
					<g>
						<g>
							<path class="st18" d="M314.6,333.1c-19.5-0.4-35.1-10.8-34.9-23.2s16.2-22.3,35.7-21.9s35.1,10.8,34.9,23.2
								C350.1,323.7,334.1,333.5,314.6,333.1z M315.4,291.7c-16.3-0.3-29.7,7.9-29.8,18.3c-0.2,10.4,12.9,19.1,29.2,19.4
								c16.3,0.3,29.7-7.9,29.8-18.3C344.7,300.7,331.6,292,315.4,291.7z"/>
						</g>
					</g>
					<path class="st19" d="M281.9,310c0.2-12.2,15.7-21.9,34.6-21.9c-0.4,0-0.7,0-1.1,0c-19.5-0.4-35.5,9.5-35.7,21.9
						s15.4,22.8,34.9,23.2c0.4,0,0.7,0,1.1,0C296.7,332.4,281.6,322.2,281.9,310z"/>
					<path class="st20" d="M315.4,291.7c-0.3,0-0.6,0-0.9,0c15.8,0.6,28.4,9.2,28.2,19.4c-0.2,10.2-13.1,18.3-28.9,18.3
						c0.3,0,0.6,0,0.9,0c16.3,0.3,29.7-7.9,29.8-18.3C344.7,300.7,331.6,292,315.4,291.7z"/>
				</g>
				<g>
					<path class="st16" d="M350.1,318.5L350.1,318.5l0.2-7.3c-0.2,12.4-16.2,22.3-35.7,21.9c-19.5-0.4-35.1-10.8-34.9-23.2
						c0,0-0.1,8.1-0.2,8.4c-0.2,11.5,15.5,21.1,34.9,21.4c19.5,0.4,35.5-8.7,35.7-20.2C350.2,319.3,350.1,318.9,350.1,318.5z"/>
				</g>
			</g>
			<path class="st21" d="M328.2,309.1c-0.1,0-0.1,0-0.2,0c-3.1,0.1-6.2-0.6-8.6-1.9l2.2-6.4l9.6-0.4L328.2,309.1z M326.9,312.9
				c-0.2,0-0.4,0-0.6,0c-7.2,0.3-12.3,4.6-11.3,9.6c0.2,0.8,0.4,1.6,0.9,2.4l7-0.3l0,0l0,0L326.9,312.9z M308.4,318.4
				c2.6-1.9,4-4.6,3.5-7.5c-0.1-0.8-0.4-1.6-0.8-2.3l-1.5-2.1c-2.9-3-7.8-5-13.1-4.8c-0.1,0-0.1,0-0.2,0L308.4,318.4z"/>
		</g>
		<g>
			<g>
				<g>
					<linearGradient id="SVGID_7_" gradientUnits="userSpaceOnUse" x1="285.5017" y1="297.9273" x2="344.5183" y2="297.9273">
						<stop  offset="0" style="stop-color:#6E39EC"/>
						<stop  offset="1" style="stop-color:#5E7EEC"/>
					</linearGradient>
					<path class="st27" d="M315.4,279.1c-16.3-0.3-29.7,7.9-29.8,18.3c-0.2,10.4,12.9,19.1,29.2,19.4c16.3,0.3,29.7-7.9,29.8-18.3
						C344.7,288.1,331.6,279.4,315.4,279.1z"/>
					<g>
						<g>
							<path class="st18" d="M314.6,320.5c-19.5-0.4-35.1-10.8-34.9-23.2c0.2-12.4,16.2-22.3,35.7-21.9s35.1,10.8,34.9,23.2
								C350.1,311,334.1,320.8,314.6,320.5z M315.4,279.1c-16.3-0.3-29.7,7.9-29.8,18.3c-0.2,10.4,12.9,19.1,29.2,19.4
								c16.3,0.3,29.7-7.9,29.8-18.3C344.7,288.1,331.6,279.4,315.4,279.1z"/>
						</g>
					</g>
					<path class="st19" d="M281.9,297.3c0.2-12.2,15.7-21.9,34.6-21.9c-0.4,0-0.7,0-1.1,0c-19.5-0.4-35.5,9.5-35.7,21.9
						c-0.2,12.4,15.4,22.8,34.9,23.2c0.4,0,0.7,0,1.1,0C296.7,319.8,281.6,309.5,281.9,297.3z"/>
					<path class="st20" d="M315.4,279.1c-0.3,0-0.6,0-0.9,0c15.8,0.6,28.4,9.2,28.2,19.4c-0.2,10.2-13.1,18.3-28.9,18.3
						c0.3,0,0.6,0,0.9,0c16.3,0.3,29.7-7.9,29.8-18.3C344.7,288.1,331.6,279.4,315.4,279.1z"/>
				</g>
				<g>
					<path class="st16" d="M350.1,305.9L350.1,305.9l0.2-7.3c-0.2,12.4-16.2,22.3-35.7,21.9c-19.5-0.4-35.1-10.8-34.9-23.2
						c0,0-0.1,8.1-0.2,8.4c-0.2,11.5,15.5,21.1,34.9,21.4c19.5,0.4,35.5-8.7,35.7-20.2C350.2,306.6,350.1,306.2,350.1,305.9z"/>
				</g>
			</g>
			<path class="st21" d="M328.2,296.4c-0.1,0-0.1,0-0.2,0c-3.1,0.1-6.2-0.6-8.6-1.9l2.2-6.4l9.6-0.4L328.2,296.4z M326.9,300.2
				c-0.2,0-0.4,0-0.6,0c-7.2,0.3-12.3,4.6-11.3,9.6c0.2,0.8,0.4,1.6,0.9,2.4l7-0.3l0,0h0L326.9,300.2z M308.4,305.7
				c2.6-1.9,4-4.6,3.5-7.5c-0.1-0.8-0.4-1.6-0.8-2.3l-1.5-2.1c-2.9-3-7.8-5-13.1-4.8c-0.1,0-0.1,0-0.2,0L308.4,305.7z"/>
		</g>
		<g>
			<g>
				<g>
					<linearGradient id="SVGID_8_" gradientUnits="userSpaceOnUse" x1="285.5017" y1="285.0189" x2="344.5183" y2="285.0189">
						<stop  offset="0" style="stop-color:#6E39EC"/>
						<stop  offset="1" style="stop-color:#5E7EEC"/>
					</linearGradient>
					<path class="st28" d="M315.4,266.2c-16.3-0.3-29.7,7.9-29.8,18.3c-0.2,10.4,12.9,19.1,29.2,19.4c16.3,0.3,29.7-7.9,29.8-18.3
						C344.7,275.2,331.6,266.5,315.4,266.2z"/>
					<g>
						<g>
							<path class="st18" d="M314.6,307.6c-19.5-0.4-35.1-10.8-34.9-23.2c0.2-12.4,16.2-22.3,35.7-21.9s35.1,10.8,34.9,23.2
								C350.1,298.1,334.1,307.9,314.6,307.6z M315.4,266.2c-16.3-0.3-29.7,7.9-29.8,18.3c-0.2,10.4,12.9,19.1,29.2,19.4
								c16.3,0.3,29.7-7.9,29.8-18.3C344.7,275.2,331.6,266.5,315.4,266.2z"/>
						</g>
					</g>
					<path class="st19" d="M281.9,284.4c0.2-12.2,15.7-21.9,34.6-21.9c-0.4,0-0.7,0-1.1,0c-19.5-0.4-35.5,9.5-35.7,21.9
						c-0.2,12.4,15.4,22.8,34.9,23.2c0.4,0,0.7,0,1.1,0C296.7,306.9,281.6,296.6,281.9,284.4z"/>
					<path class="st20" d="M315.4,266.2c-0.3,0-0.6,0-0.9,0c15.8,0.6,28.4,9.2,28.2,19.4c-0.2,10.2-13.1,18.3-28.9,18.3
						c0.3,0,0.6,0,0.9,0c16.3,0.3,29.7-7.9,29.8-18.3C344.7,275.2,331.6,266.5,315.4,266.2z"/>
				</g>
				<g>
					<path class="st16" d="M350.1,293L350.1,293l0.2-7.3c-0.2,12.4-16.2,22.3-35.7,21.9c-19.5-0.4-35.1-10.8-34.9-23.2
						c0,0-0.1,8.1-0.2,8.4c-0.2,11.5,15.5,21.1,34.9,21.4c19.5,0.4,35.5-8.7,35.7-20.2C350.2,293.7,350.1,293.3,350.1,293z"/>
				</g>
			</g>
			<path class="st21" d="M328.2,283.5c-0.1,0-0.1,0-0.2,0c-3.1,0.1-6.2-0.6-8.6-1.9l2.2-6.4l9.6-0.4L328.2,283.5z M326.9,287.3
				c-0.2,0-0.4,0-0.6,0c-7.2,0.3-12.3,4.6-11.3,9.6c0.2,0.8,0.4,1.6,0.9,2.4l7-0.3l0,0l0,0L326.9,287.3z M308.4,292.8
				c2.6-1.9,4-4.6,3.5-7.5c-0.1-0.8-0.4-1.6-0.8-2.3l-1.5-2.1c-2.9-3-7.8-5-13.1-4.8c-0.1,0-0.1,0-0.2,0L308.4,292.8z"/>
		</g>
		<g>
			<g>
				<g>
					<linearGradient id="SVGID_9_" gradientUnits="userSpaceOnUse" x1="285.5017" y1="271.8495" x2="344.5183" y2="271.8495">
						<stop  offset="0" style="stop-color:#6E39EC"/>
						<stop  offset="1" style="stop-color:#5E7EEC"/>
					</linearGradient>
					<path class="st29" d="M315.4,253c-16.3-0.3-29.7,7.9-29.8,18.3c-0.2,10.4,12.9,19.1,29.2,19.4c16.3,0.3,29.7-7.9,29.8-18.3
						C344.7,262,331.6,253.3,315.4,253z"/>
					<g>
						<g>
							<path class="st18" d="M314.6,294.4c-19.5-0.4-35.1-10.8-34.9-23.2s16.2-22.3,35.7-21.9s35.1,10.8,34.9,23.2
								C350.1,284.9,334.1,294.8,314.6,294.4z M315.4,253c-16.3-0.3-29.7,7.9-29.8,18.3c-0.2,10.4,12.9,19.1,29.2,19.4
								c16.3,0.3,29.7-7.9,29.8-18.3C344.7,262,331.6,253.3,315.4,253z"/>
						</g>
					</g>
					<path class="st19" d="M281.9,271.2c0.2-12.2,15.7-21.9,34.6-21.9c-0.4,0-0.7,0-1.1,0c-19.5-0.4-35.5,9.5-35.7,21.9
						s15.4,22.8,34.9,23.2c0.4,0,0.7,0,1.1,0C296.7,293.7,281.6,283.5,281.9,271.2z"/>
					<path class="st20" d="M315.4,253c-0.3,0-0.6,0-0.9,0c15.8,0.6,28.4,9.2,28.2,19.4c-0.2,10.2-13.1,18.3-28.9,18.3
						c0.3,0,0.6,0,0.9,0c16.3,0.3,29.7-7.9,29.8-18.3C344.7,262,331.6,253.3,315.4,253z"/>
				</g>
				<g>
					<path class="st16" d="M350.1,279.8L350.1,279.8l0.2-7.3c-0.2,12.4-16.2,22.3-35.7,21.9c-19.5-0.4-35.1-10.8-34.9-23.2
						c0,0-0.1,8.1-0.2,8.4c-0.2,11.5,15.5,21.1,34.9,21.4c19.5,0.4,35.5-8.7,35.7-20.2C350.2,280.5,350.1,280.2,350.1,279.8z"/>
				</g>
			</g>
			<path class="st21" d="M328.2,270.3c-0.1,0-0.1,0-0.2,0c-3.1,0.1-6.2-0.6-8.6-1.9l2.2-6.4l9.6-0.4L328.2,270.3z M326.9,274.1
				c-0.2,0-0.4,0-0.6,0c-7.2,0.3-12.3,4.6-11.3,9.6c0.2,0.8,0.4,1.6,0.9,2.4l7-0.3l0,0h0L326.9,274.1z M308.4,279.6
				c2.6-1.9,4-4.6,3.5-7.5c-0.1-0.8-0.4-1.6-0.8-2.3l-1.5-2.1c-2.9-3-7.8-5-13.1-4.8c-0.1,0-0.1,0-0.2,0L308.4,279.6z"/>
		</g>
		<g>
			<g>
				<g>
					<linearGradient id="SVGID_10_" gradientUnits="userSpaceOnUse" x1="285.5017" y1="259.1941" x2="344.5183" y2="259.1941">
						<stop  offset="0" style="stop-color:#6E39EC"/>
						<stop  offset="1" style="stop-color:#5E7EEC"/>
					</linearGradient>
					<path class="st30" d="M315.4,240.3c-16.3-0.3-29.7,7.9-29.8,18.3c-0.2,10.4,12.9,19.1,29.2,19.4c16.3,0.3,29.7-7.9,29.8-18.3
						C344.7,249.3,331.6,240.6,315.4,240.3z"/>
					<g>
						<g>
							<path class="st18" d="M314.6,281.7c-19.5-0.4-35.1-10.8-34.9-23.2c0.2-12.4,16.2-22.3,35.7-21.9
								c19.5,0.4,35.1,10.8,34.9,23.2C350.1,272.3,334.1,282.1,314.6,281.7z M315.4,240.3c-16.3-0.3-29.7,7.9-29.8,18.3
								c-0.2,10.4,12.9,19.1,29.2,19.4c16.3,0.3,29.7-7.9,29.8-18.3C344.7,249.3,331.6,240.6,315.4,240.3z"/>
						</g>
					</g>
					<path class="st19" d="M281.9,258.6c0.2-12.2,15.7-21.9,34.6-21.9c-0.4,0-0.7,0-1.1,0c-19.5-0.4-35.5,9.5-35.7,21.9
						c-0.2,12.4,15.4,22.8,34.9,23.2c0.4,0,0.7,0,1.1,0C296.7,281,281.6,270.8,281.9,258.6z"/>
					<path class="st20" d="M315.4,240.3c-0.3,0-0.6,0-0.9,0c15.8,0.6,28.4,9.2,28.2,19.4c-0.2,10.2-13.1,18.3-28.9,18.3
						c0.3,0,0.6,0,0.9,0c16.3,0.3,29.7-7.9,29.8-18.3C344.7,249.3,331.6,240.6,315.4,240.3z"/>
				</g>
				<g>
					<path class="st16" d="M350.1,267.1L350.1,267.1l0.2-7.3c-0.2,12.4-16.2,22.3-35.7,21.9c-19.5-0.4-35.1-10.8-34.9-23.2
						c0,0-0.1,8.1-0.2,8.4c-0.2,11.5,15.5,21.1,34.9,21.4c19.5,0.4,35.5-8.7,35.7-20.2C350.2,267.9,350.1,267.5,350.1,267.1z"/>
				</g>
			</g>
			<path class="st21" d="M328.2,257.7c-0.1,0-0.1,0-0.2,0c-3.1,0.1-6.2-0.6-8.6-1.9l2.2-6.4l9.6-0.4L328.2,257.7z M326.9,261.5
				c-0.2,0-0.4,0-0.6,0c-7.2,0.3-12.3,4.6-11.3,9.6c0.2,0.8,0.4,1.6,0.9,2.4l7-0.3l0,0h0L326.9,261.5z M308.4,267
				c2.6-1.9,4-4.6,3.5-7.5c-0.1-0.8-0.4-1.6-0.8-2.3l-1.5-2.1c-2.9-3-7.8-5-13.1-4.8c-0.1,0-0.1,0-0.2,0L308.4,267z"/>
		</g>
		<g>
			<g>
				<g>
					<linearGradient id="SVGID_11_" gradientUnits="userSpaceOnUse" x1="285.5017" y1="246.2857" x2="344.5183" y2="246.2857">
						<stop  offset="0" style="stop-color:#6E39EC"/>
						<stop  offset="1" style="stop-color:#5E7EEC"/>
					</linearGradient>
					<path class="st31" d="M315.4,227.4c-16.3-0.3-29.7,7.9-29.8,18.3c-0.2,10.4,12.9,19.1,29.2,19.4c16.3,0.3,29.7-7.9,29.8-18.3
						C344.7,236.4,331.6,227.7,315.4,227.4z"/>
					<g>
						<g>
							<path class="st18" d="M314.6,268.8c-19.5-0.4-35.1-10.8-34.9-23.2s16.2-22.3,35.7-21.9s35.1,10.8,34.9,23.2
								C350.1,259.4,334.1,269.2,314.6,268.8z M315.4,227.4c-16.3-0.3-29.7,7.9-29.8,18.3c-0.2,10.4,12.9,19.1,29.2,19.4
								c16.3,0.3,29.7-7.9,29.8-18.3C344.7,236.4,331.6,227.7,315.4,227.4z"/>
						</g>
					</g>
					<path class="st19" d="M281.9,245.7c0.2-12.2,15.7-21.9,34.6-21.9c-0.4,0-0.7,0-1.1,0c-19.5-0.4-35.5,9.5-35.7,21.9
						s15.4,22.8,34.9,23.2c0.4,0,0.7,0,1.1,0C296.7,268.1,281.6,257.9,281.9,245.7z"/>
					<path class="st20" d="M315.4,227.4c-0.3,0-0.6,0-0.9,0c15.8,0.6,28.4,9.2,28.2,19.4c-0.2,10.2-13.1,18.3-28.9,18.3
						c0.3,0,0.6,0,0.9,0c16.3,0.3,29.7-7.9,29.8-18.3C344.7,236.4,331.6,227.7,315.4,227.4z"/>
				</g>
				<g>
					<path class="st16" d="M350.1,254.2L350.1,254.2l0.2-7.3c-0.2,12.4-16.2,22.3-35.7,21.9c-19.5-0.4-35.1-10.8-34.9-23.2
						c0,0-0.1,8.1-0.2,8.4c-0.2,11.5,15.5,21.1,34.9,21.4c19.5,0.4,35.5-8.7,35.7-20.2C350.2,255,350.1,254.6,350.1,254.2z"/>
				</g>
			</g>
			<path class="st21" d="M328.2,244.8c-0.1,0-0.1,0-0.2,0c-3.1,0.1-6.2-0.6-8.6-1.9l2.2-6.4l9.6-0.4L328.2,244.8z M326.9,248.6
				c-0.2,0-0.4,0-0.6,0c-7.2,0.3-12.3,4.6-11.3,9.6c0.2,0.8,0.4,1.6,0.9,2.4l7-0.3l0,0l0,0L326.9,248.6z M308.4,254.1
				c2.6-1.9,4-4.6,3.5-7.5c-0.1-0.8-0.4-1.6-0.8-2.3l-1.5-2.1c-2.9-3-7.8-5-13.1-4.8c-0.1,0-0.1,0-0.2,0L308.4,254.1z"/>
		</g>
		<g>
			<g>
				<g>
					<linearGradient id="SVGID_12_" gradientUnits="userSpaceOnUse" x1="246.4988" y1="344.039" x2="305.5154" y2="344.039">
						<stop  offset="0" style="stop-color:#6E39EC"/>
						<stop  offset="1" style="stop-color:#5E7EEC"/>
					</linearGradient>
					<path class="st32" d="M276.3,325.2c-16.3-0.3-29.7,7.9-29.8,18.3c-0.2,10.4,12.9,19.1,29.2,19.4c16.3,0.3,29.7-7.9,29.8-18.3
						C305.7,334.2,292.6,325.5,276.3,325.2z"/>
					<g>
						<g>
							<path class="st18" d="M275.6,366.6c-19.5-0.4-35.1-10.8-34.9-23.2c0.2-12.4,16.2-22.3,35.7-21.9
								c19.5,0.4,35.1,10.8,34.9,23.2C311.1,357.1,295.1,366.9,275.6,366.6z M276.3,325.2c-16.3-0.3-29.7,7.9-29.8,18.3
								c-0.2,10.4,12.9,19.1,29.2,19.4c16.3,0.3,29.7-7.9,29.8-18.3C305.7,334.2,292.6,325.5,276.3,325.2z"/>
						</g>
					</g>
					<path class="st19" d="M242.9,343.4c0.2-12.2,15.7-21.9,34.6-21.9c-0.4,0-0.7,0-1.1,0c-19.5-0.4-35.5,9.5-35.7,21.9
						c-0.2,12.4,15.4,22.8,34.9,23.2c0.4,0,0.7,0,1.1,0C257.7,365.9,242.6,355.6,242.9,343.4z"/>
					<path class="st20" d="M276.3,325.2c-0.3,0-0.6,0-0.9,0c15.8,0.6,28.4,9.2,28.2,19.4c-0.2,10.2-13.1,18.3-28.9,18.3
						c0.3,0,0.6,0,0.9,0c16.3,0.3,29.7-7.9,29.8-18.3C305.7,334.2,292.6,325.5,276.3,325.2z"/>
				</g>
				<g>
					<path class="st16" d="M311.1,352L311.1,352l0.2-7.3c-0.2,12.4-16.2,22.3-35.7,21.9c-19.5-0.4-35.1-10.8-34.9-23.2
						c0,0-0.1,8.1-0.2,8.4c-0.2,11.5,15.5,21.1,34.9,21.4c19.5,0.4,35.5-8.7,35.7-20.2C311.2,352.7,311.1,352.4,311.1,352z"/>
				</g>
			</g>
			<path class="st21" d="M289.2,342.5c-0.1,0-0.1,0-0.2,0c-3.1,0.1-6.2-0.6-8.6-1.9l2.2-6.4l9.6-0.4L289.2,342.5z M287.9,346.3
				c-0.2,0-0.4,0-0.6,0c-7.2,0.3-12.3,4.6-11.3,9.6c0.2,0.8,0.4,1.6,0.9,2.4l7-0.3l0,0l0,0L287.9,346.3z M269.4,351.8
				c2.6-1.9,4-4.6,3.5-7.5c-0.1-0.8-0.4-1.6-0.8-2.3l-1.5-2.1c-2.9-3-7.8-5-13.1-4.8c-0.1,0-0.1,0-0.2,0L269.4,351.8z"/>
		</g>
		<g>
			<g>
				<g>
					<linearGradient id="SVGID_13_" gradientUnits="userSpaceOnUse" x1="246.4988" y1="331.3836" x2="305.5154" y2="331.3836">
						<stop  offset="0" style="stop-color:#6E39EC"/>
						<stop  offset="1" style="stop-color:#5E7EEC"/>
					</linearGradient>
					<path class="st33" d="M276.3,312.5c-16.3-0.3-29.7,7.9-29.8,18.3c-0.2,10.4,12.9,19.1,29.2,19.4c16.3,0.3,29.7-7.9,29.8-18.3
						C305.7,321.5,292.6,312.8,276.3,312.5z"/>
					<g>
						<g>
							<path class="st18" d="M275.6,353.9c-19.5-0.4-35.1-10.8-34.9-23.2s16.2-22.3,35.7-21.9c19.5,0.4,35.1,10.8,34.9,23.2
								C311.1,344.5,295.1,354.3,275.6,353.9z M276.3,312.5c-16.3-0.3-29.7,7.9-29.8,18.3c-0.2,10.4,12.9,19.1,29.2,19.4
								c16.3,0.3,29.7-7.9,29.8-18.3C305.7,321.5,292.6,312.8,276.3,312.5z"/>
						</g>
					</g>
					<path class="st19" d="M242.9,330.8c0.2-12.2,15.7-21.9,34.6-21.9c-0.4,0-0.7,0-1.1,0c-19.5-0.4-35.5,9.5-35.7,21.9
						s15.4,22.8,34.9,23.2c0.4,0,0.7,0,1.1,0C257.7,353.2,242.6,343,242.9,330.8z"/>
					<path class="st20" d="M276.3,312.5c-0.3,0-0.6,0-0.9,0c15.8,0.6,28.4,9.2,28.2,19.4c-0.2,10.2-13.1,18.3-28.9,18.3
						c0.3,0,0.6,0,0.9,0c16.3,0.3,29.7-7.9,29.8-18.3C305.7,321.5,292.6,312.8,276.3,312.5z"/>
				</g>
				<g>
					<path class="st16" d="M311.1,339.3L311.1,339.3l0.2-7.3c-0.2,12.4-16.2,22.3-35.7,21.9c-19.5-0.4-35.1-10.8-34.9-23.2
						c0,0-0.1,8.1-0.2,8.4c-0.2,11.5,15.5,21.1,34.9,21.4c19.5,0.4,35.5-8.7,35.7-20.2C311.2,340.1,311.1,339.7,311.1,339.3z"/>
				</g>
			</g>
			<path class="st21" d="M289.2,329.9c-0.1,0-0.1,0-0.2,0c-3.1,0.1-6.2-0.6-8.6-1.9l2.2-6.4l9.6-0.4L289.2,329.9z M287.9,333.7
				c-0.2,0-0.4,0-0.6,0c-7.2,0.3-12.3,4.6-11.3,9.6c0.2,0.8,0.4,1.6,0.9,2.4l7-0.3l0,0l0,0L287.9,333.7z M269.4,339.2
				c2.6-1.9,4-4.6,3.5-7.5c-0.1-0.8-0.4-1.6-0.8-2.3l-1.5-2.1c-2.9-3-7.8-5-13.1-4.8c-0.1,0-0.1,0-0.2,0L269.4,339.2z"/>
		</g>
		<g>
			<g>
				<g>
					<linearGradient id="SVGID_14_" gradientUnits="userSpaceOnUse" x1="246.4988" y1="318.4753" x2="305.5154" y2="318.4753">
						<stop  offset="0" style="stop-color:#6E39EC"/>
						<stop  offset="1" style="stop-color:#5E7EEC"/>
					</linearGradient>
					<path class="st34" d="M276.3,299.6c-16.3-0.3-29.7,7.9-29.8,18.3c-0.2,10.4,12.9,19.1,29.2,19.4c16.3,0.3,29.7-7.9,29.8-18.3
						C305.7,308.6,292.6,299.9,276.3,299.6z"/>
					<g>
						<g>
							<path class="st18" d="M275.6,341c-19.5-0.4-35.1-10.8-34.9-23.2s16.2-22.3,35.7-21.9c19.5,0.4,35.1,10.8,34.9,23.2
								C311.1,331.5,295.1,341.4,275.6,341z M276.3,299.6c-16.3-0.3-29.7,7.9-29.8,18.3c-0.2,10.4,12.9,19.1,29.2,19.4
								c16.3,0.3,29.7-7.9,29.8-18.3C305.7,308.6,292.6,299.9,276.3,299.6z"/>
						</g>
					</g>
					<path class="st19" d="M242.9,317.9c0.2-12.2,15.7-21.9,34.6-21.9c-0.4,0-0.7,0-1.1,0c-19.5-0.4-35.5,9.5-35.7,21.9
						s15.4,22.8,34.9,23.2c0.4,0,0.7,0,1.1,0C257.7,340.3,242.6,330.1,242.9,317.9z"/>
					<path class="st20" d="M276.3,299.6c-0.3,0-0.6,0-0.9,0c15.8,0.6,28.4,9.2,28.2,19.4c-0.2,10.2-13.1,18.3-28.9,18.3
						c0.3,0,0.6,0,0.9,0c16.3,0.3,29.7-7.9,29.8-18.3C305.7,308.6,292.6,299.9,276.3,299.6z"/>
				</g>
				<g>
					<path class="st16" d="M311.1,326.4L311.1,326.4l0.2-7.3c-0.2,12.4-16.2,22.3-35.7,21.9c-19.5-0.4-35.1-10.8-34.9-23.2
						c0,0-0.1,8.1-0.2,8.4c-0.2,11.5,15.5,21.1,34.9,21.4c19.5,0.4,35.5-8.7,35.7-20.2C311.2,327.2,311.1,326.8,311.1,326.4z"/>
				</g>
			</g>
			<path class="st21" d="M289.2,316.9c-0.1,0-0.1,0-0.2,0c-3.1,0.1-6.2-0.6-8.6-1.9l2.2-6.4l9.6-0.4L289.2,316.9z M287.9,320.8
				c-0.2,0-0.4,0-0.6,0c-7.2,0.3-12.3,4.6-11.3,9.6c0.2,0.8,0.4,1.6,0.9,2.4l7-0.3l0,0l0,0L287.9,320.8z M269.4,326.3
				c2.6-1.9,4-4.6,3.5-7.5c-0.1-0.8-0.4-1.6-0.8-2.3l-1.5-2.1c-2.9-3-7.8-5-13.1-4.8c-0.1,0-0.1,0-0.2,0L269.4,326.3z"/>
		</g>
		<g>
			<g>
				
					<ellipse transform="matrix(0.9999 -1.094711e-02 1.094711e-02 0.9999 -3.5585 3.8038)" class="st16" cx="345.7" cy="327" rx="33.1" ry="35.3"/>
				<g>
					<g>
						
							<linearGradient id="SVGID_15_" gradientUnits="userSpaceOnUse" x1="5520.8394" y1="327.0115" x2="5576.2134" y2="327.0115" gradientTransform="matrix(-1 0 0 1 5897.5532 0)">
							<stop  offset="0" style="stop-color:#6E39EC"/>
							<stop  offset="1" style="stop-color:#5E7EEC"/>
						</linearGradient>
						<path class="st35" d="M339.4,299.3c14.3-5.6,30.3,2.2,35.6,17.5s-2.1,32.2-16.4,37.8c-14.3,5.6-30.3-2.2-35.6-17.5
							C317.8,321.9,325.1,305,339.4,299.3z"/>
						<g>
							<path class="st18" d="M318,339.2c-6.3-18.2,2.5-38.6,19.6-45.3c17.1-6.7,36.2,2.7,42.5,20.9s-2.5,38.6-19.6,45.3
								C343.4,366.8,324.3,357.4,318,339.2z M323.1,337.2c5.3,15.3,21.2,23.1,35.6,17.5c14.3-5.6,21.7-22.6,16.4-37.8
								s-21.2-23.1-35.6-17.5C325.1,305,317.8,321.9,323.1,337.2z"/>
						</g>
						<path class="st19" d="M378.2,315.6c-6.2-17.9-24.7-27.3-41.6-21.3c0.3-0.1,0.6-0.3,0.9-0.4c17.1-6.7,36.2,2.7,42.5,20.9
							s-2.5,38.6-19.6,45.3c-0.3,0.1-0.6,0.2-1,0.4C376.1,353.4,384.4,333.5,378.2,315.6z"/>
						<path class="st20" d="M339.4,299.3c0.3-0.1,0.6-0.2,0.8-0.3c-13.8,5.9-20.7,22.5-15.6,37.5c5.2,15,20.6,22.8,34.7,17.8
							c-0.3,0.1-0.5,0.2-0.8,0.3c-14.3,5.6-30.3-2.2-35.6-17.5C317.8,321.9,325.1,305,339.4,299.3z"/>
					</g>
				</g>
			</g>
			<path class="st21" d="M361.4,323.8c-0.1,0-0.1,0-0.2,0c-2.8,0.1-5.6-0.9-7.9-2.7l1.1-8.8l8.5-0.3L361.4,323.8z M360.7,329
				c-0.2,0-0.4,0-0.5,0c-6.4,0.2-10.3,6.1-8.8,13c0.2,1.1,0.6,2.2,1.1,3.3l6.2-0.2l0,0l0,0L360.7,329z M345,336.2
				c2.1-2.5,3-6.2,2.1-10.3c-0.2-1.1-0.6-2.2-1-3.2l-1.6-2.9c-2.9-4.2-7.6-7-12.3-6.8c-0.1,0-0.1,0-0.2,0L345,336.2z"/>
		</g>
	</g>
</g>
</svg>
