<?xml version="1.0" encoding="utf-8"?>
<!-- Generator: Adobe Illustrator 24.3.0, SVG Export Plug-In . SVG Version: 6.00 Build 0)  -->
<svg version="1.1" id="Graphic_Element" xmlns="http://www.w3.org/2000/svg" xmlns:xlink="http://www.w3.org/1999/xlink" x="0px"
	 y="0px" viewBox="0 0 400 400" style="enable-background:new 0 0 400 400;" xml:space="preserve">
<style type="text/css">
	.st0{fill:#28226B;}
	.st1{opacity:0.5;fill:#28226B;}
	.st2{fill:#DEE8E2;}
	.st3{fill:#F8FBFF;}
	.st4{fill:#252B33;}
	.st5{fill:#AB4003;}
	.st6{fill:#E0A273;}
	.st7{fill:#18191B;}
	.st8{fill:#AB4634;}
	.st9{fill:#F0A96D;}
	.st10{fill:#FFCE99;}
	.st11{fill:#CBD1E0;}
	.st12{fill:#8C93B3;}
	.st13{fill:#1A1C1F;}
	.st14{fill:url(#SVGID_1_);}
	.st15{fill:#8481F7;}
	.st16{fill:#A1A1FF;}
	.st17{fill:#5237C4;}
	.st18{fill:#3A28A0;}
	.st19{fill:#FFFFFF;}
	.st20{fill:url(#SVGID_2_);}
	.st21{clip-path:url(#SVGID_3_);}
	.st22{fill:url(#SVGID_4_);}
	.st23{clip-path:url(#SVGID_5_);}
	.st24{fill:url(#SVGID_6_);}
</style>
<g>
	<ellipse class="st0" cx="260.9" cy="323.5" rx="33.1" ry="16.6"/>
	<ellipse class="st1" cx="250.4" cy="272.9" rx="33.1" ry="16.6"/>
	<ellipse class="st0" cx="224.1" cy="239.9" rx="6.5" ry="3.2"/>
	<ellipse class="st0" cx="273.1" cy="227" rx="6.5" ry="3.2"/>
	<ellipse class="st0" cx="287.1" cy="235.7" rx="6.5" ry="3.2"/>
	<ellipse class="st0" cx="196.5" cy="335.3" rx="6.5" ry="3.2"/>
	<ellipse class="st0" cx="262" cy="361.5" rx="6.5" ry="3.2"/>
	<ellipse class="st0" cx="91.1" cy="365.4" rx="6.5" ry="3.2"/>
	<ellipse class="st0" cx="383.2" cy="332.9" rx="6.5" ry="3.2"/>
	<ellipse class="st0" cx="32.2" cy="261.1" rx="6.5" ry="3.2"/>
	<ellipse class="st0" cx="53.9" cy="347.6" rx="33.1" ry="16.6"/>
	<ellipse class="st1" cx="120.1" cy="346" rx="33.1" ry="16.6"/>
	<ellipse class="st0" cx="33.9" cy="281.9" rx="28.2" ry="14.1"/>
	<ellipse class="st0" cx="368.9" cy="310.2" rx="27.6" ry="13.8"/>
	<g>
		<path class="st1" d="M92.1,314.7c26.6,15.3,69.7,15.2,96.5-0.2c26.7-15.4,26.9-40.4,0.3-55.7c-26.6-15.3-69.7-15.3-96.5,0.2
			S65.5,299.4,92.1,314.7z"/>
		<g>
			<path class="st2" d="M180.5,107.3c0.3-0.3,0.7-0.8,1.2-1.3c2-2.2,5.2-5.7,5.2-5.7s6.7,12.9-10.4,38.4c-17,25.5-13,20.9-13.6,18.9
				c-0.6-1.9-9.8-9.9-9.8-9.9s3.2-31.3,12.2-35.6C174.4,107.7,180.5,107.3,180.5,107.3z"/>
			<path class="st3" d="M207.1,320.6l7.3-4.9l1.7-13.3c1.3-9.7-0.8-20.2-5.4-27.1l-16-24.1L175,291.1l16,24.1
				C195.5,322.1,201.8,324.1,207.1,320.6z"/>
			<g>
				<g>
					<g>
						<g>
							<polygon points="183.5,250.5 183.8,251.8 176.4,258.3 175.8,255.1 							"/>
							<path class="st4" d="M169.3,253.4c0.2,0.8,0.4-2.7,1.6-2.3l4.9,4l0.6,3.1l-4.7-1.6c-1.1-0.4-1.7-0.9-2-1.6
								C169.5,254.5,169.4,253.9,169.3,253.4z"/>
						</g>
						<path class="st4" d="M168.5,249.5l0.8,3.9c0.1,0,4.5,2.1,7.6,2.1c3.2,0,14.6,9.1,20.2,10.5c17.6,4.4,17.8-3.3,17.5-3.9
							c-1-2.6-5.2-5.5-7.9-6.4c-3.4-1.2-7.5-6.7-9.4-8.7c-1.9-2.1-6.3-6.4-8.4-4.6c-2.1,1.9-6.8,7.6-6.8,7.6s-8.7-2.8-10.4-4.7
							c-1.7-1.9-2.7-5-2.7-5S167.8,245.9,168.5,249.5z"/>
						<g>
							<path class="st5" d="M171.5,245.3c-1.4-1.6-2.3-4-2.6-4.7c0.2-0.5,0.6-0.9,1.4-1.6c2.2-1.9,6.1-0.8,8.8,1.1
								c1.6,1.1,5.3,2.6,8.2,3.8c-2.3,2.4-5.4,6.1-5.4,6.1S173.2,247.2,171.5,245.3z"/>
							<path class="st6" d="M172.2,238.5c2.1-0.4,4.8,0.7,6.6,1.9c1.5,1,6.4,3,9.2,4.1l-4.8,5.5c-3-1-10.2-3.6-11.5-5
								c-1.3-1.4-2.2-3.6-2.5-4.4c0.2-0.4,0.6-0.8,1.2-1.3C171,238.9,171.6,238.6,172.2,238.5L172.2,238.5z M172.1,238
								c-0.7,0.1-1.3,0.4-1.9,0.9c-0.8,0.7-1.2,1.1-1.4,1.6c0.3,0.8,1.2,3.2,2.6,4.7c1.7,1.9,11.9,5.3,11.9,5.3l5.4-6.2
								c-2.9-1.1-8.2-3.2-9.8-4.3C177,238.6,174.3,237.6,172.1,238L172.1,238z"/>
							<path class="st7" d="M168.5,249.5l0.6,2.8c0,0,1.8,0.4,3.9,1.1c1.9,0.6,4.4-0.6,5.7,0.3c0.8,0.5,2.9,2.4,4.8,3.6
								c4.2,2.8,9.5,6.8,13.4,7.7c13.1,2.9,16.7,1.4,17-3.4c0.2-2.7-5.6-6.9-8.3-7.8c-2-0.7-1.8-1.1-4.5-3c-1.9-1.4-3-3-3.8-3.8
								c-1.2-1.3-3.4-3.5-5.4-4.5c-1.2-0.6-2.3-0.8-3.1-0.1c-0.3,0.2-0.6,0.5-0.9,0.9c-0.2,0.2-0.4,0.4-0.6,0.6
								c-2.3,2.4-5.4,6.1-5.4,6.1s-8.7-2.8-10.4-4.7c-1.4-1.6-2.3-4-2.6-4.7c-0.1-0.2-0.1-0.3-0.1-0.3s-0.4,2.5-0.5,5.2
								C168.2,246.8,168.3,248.3,168.5,249.5z"/>
						</g>
					</g>
					<path class="st7" d="M117.5,178.7c13,8.3,38.8,17.7,38.8,17.7s0.6,7.3,1.8,20.2c1.2,12.8,11.5,29.6,11.5,29.6s5.9,5.4,13.8,3.8
						c3.4-0.7,5.6-2.3,7.1-4.1c2-2.4,2.6-4.8,2.6-4.8s-10.3-41.2-8.3-51.1c2-10-0.6-13.6-3.7-18.9c-5.3-9-46-33.3-46-33.3
						c-1.2-0.2-8.4,5.7-9.6,5.7C103.9,142.9,105.2,170.8,117.5,178.7z"/>
					<path class="st4" d="M179.6,181.8c1.3,13.2,3.7,49.8,8,58.1c0.9,1.9,1.9,4,2.9,5.9c2-2.4,2.6-4.8,2.6-4.8s-10.3-41.2-8.3-51.1
						c2-10-0.6-13.6-3.7-18.9c-5.3-9-48.1-36.7-48.1-36.7c-1.2-0.2-2.7,3-3.9,3C139.6,142.5,178.4,170.1,179.6,181.8z"/>
				</g>
				<g>
					<g>
						<polygon points="81.2,275.9 81.1,277.2 72.5,281.9 72.6,278.7 						"/>
						<path class="st4" d="M66.6,275.5c0,0.8,1-2.5,2.1-1.8l3.9,5l-0.1,3.2l-4.2-2.6c-1-0.6-1.5-1.3-1.6-2
							C66.5,276.7,66.6,276,66.6,275.5z"/>
					</g>
					<path class="st4" d="M66.7,271.6l-0.1,4c0.1,0,3.9,3.1,6.9,3.7c3.1,0.7,12.2,12.1,17.4,14.7c16.2,8.2,18,0.7,17.9,0
						c-0.4-2.7-3.9-6.5-6.3-8c-3.1-1.9-5.8-8.1-7.3-10.6c-1.4-2.5-4.7-7.7-7.2-6.3c-2.5,1.3-8.3,5.9-8.3,5.9s-7.9-4.6-9.1-6.8
						c-1.2-2.2-1.6-5.5-1.6-5.5S66.8,267.9,66.7,271.6z"/>
					<g>
						<path class="st5" d="M70.6,268.1c-1-1.8-1.4-4.4-1.5-5.2c0.3-0.4,0.8-0.8,1.7-1.3c2.6-1.4,6.1,0.6,8.4,3
							c1.3,1.4,4.6,3.8,7.2,5.5c-2.8,1.8-6.6,4.8-6.6,4.8S71.8,270.4,70.6,268.1z"/>
						<path class="st6" d="M72.8,261.7c2.2,0.1,4.6,1.8,6,3.3c1.3,1.4,5.6,4.4,8.1,6.1l-5.9,4.3c-2.7-1.6-9.1-5.8-10.1-7.4
							c-0.9-1.7-1.3-3.9-1.4-4.9c0.3-0.3,0.8-0.6,1.5-1C71.5,261.8,72.1,261.7,72.8,261.7L72.8,261.7z M72.8,261.2
							c-0.7,0-1.4,0.1-2,0.5c-0.9,0.5-1.4,0.8-1.7,1.3c0.1,0.8,0.5,3.4,1.5,5.2c1.2,2.2,10.5,7.8,10.5,7.8l6.6-4.8
							c-2.5-1.7-7.2-5-8.6-6.4C77.4,262.9,75,261.3,72.8,261.2L72.8,261.2z"/>
						<path class="st7" d="M66.7,271.6l-0.1,2.9c0,0,1.7,0.8,3.6,1.9c1.8,1,4.4,0.4,5.5,1.5c0.7,0.7,2.3,3,3.9,4.6
							c3.5,3.7,7.7,8.8,11.3,10.4c12.2,5.7,15.9,5,17.3,0.5c0.8-2.6-3.9-8-6.3-9.5c-1.8-1.1-1.5-1.5-3.7-3.9
							c-1.6-1.8-2.3-3.6-2.9-4.6c-0.9-1.5-2.5-4.2-4.2-5.6c-1-0.8-2.1-1.2-3-0.7c-0.3,0.2-0.7,0.4-1.1,0.6c-0.2,0.1-0.4,0.3-0.7,0.4
							c-2.8,1.8-6.6,4.8-6.6,4.8s-7.9-4.6-9.1-6.8c-1-1.8-1.4-4.4-1.5-5.2c0-0.2,0-0.3,0-0.3s-1,2.3-1.6,4.9
							C67,268.9,66.8,270.4,66.7,271.6z"/>
					</g>
					<path class="st8" d="M88.3,276.9c0.2-0.1,3.3-1.7,3.3-1.7c0.2-0.1,0.3-0.4,0.2-0.6c-0.1-0.2-0.3-0.2-0.4-0.2
						c-0.2,0.1-3.3,1.7-3.3,1.7c-0.2,0.1-0.3,0.4-0.2,0.6C88,276.8,88.2,276.9,88.3,276.9z"/>
					<path class="st8" d="M86.8,274.4c0.2-0.1,3.3-1.7,3.3-1.7c0.1-0.1,0.2-0.1,0.2-0.3c0-0.1,0-0.2,0-0.3c-0.1-0.2-0.3-0.2-0.4-0.2
						c-0.2,0.1-3.3,1.7-3.3,1.7c-0.2,0.1-0.3,0.4-0.2,0.6C86.5,274.4,86.7,274.4,86.8,274.4z"/>
				</g>
				<path class="st7" d="M68.5,256.7c0,0-6.3,11.4,8.4,20c8.4,4.9,13,2.8,15.4,0.1c1.8-2,2.3-4.4,2.3-4.4s-5.4-17.1-0.7-28.6
					c3.7-9.3,2.2-12.3,7.3-20c1.2-1.8,2.6-4,4.4-6.8c1.2-1.9,2.2-3.6,3.1-5.4c6.6-12.5,7.8-22.3,13.1-36c6-15.7,7-35.8,7-35.8
					c-0.8-2.6-3.2-3.9-6.5-4.2c-10.3-1.1-33.4-24.9-40.4-17.2c-9.3,10,1.6,76.7,1.5,80.1c-0.1,3.4-3.3,8.9-9.5,17.3
					C67.7,224.2,68.5,256.7,68.5,256.7z"/>
				<path class="st4" d="M92.3,276.8c1.8-2,2.3-4.4,2.3-4.4S91,258,93.9,243.9c2-9.8,2.2-12.3,7.3-20c-4.7,6-8.1,16.3-10,24.2
					C88.9,257.6,92.3,270.9,92.3,276.8z"/>
				<path class="st4" d="M122.4,135.7c-2.3,15.2-9.6,61.5-13.6,75.9c6.6-12.4,7.8-22.2,13.1-35.9c6-15.7,7-35.8,7-35.8
					C128,137.3,125.6,136,122.4,135.7z"/>
				<g>
					<g>
						<g>
							<path class="st4" d="M113.7,145.9c12,0.6,9.7,2.3,28.8-4.7c3-5.1,8.3-9.7,8.7-11.6c0.6-3,36.2,1.2,39.8-32.3
								c0.1-1.3-12.1-22.5-12.8-23.8c-1.1-2-31-14.3-46.3-12.4c-22.8,2.9-45,37.3-47.5,56.9C80.4,150.1,104.1,145.4,113.7,145.9z"/>
						</g>
						<g>
							<g>
								<g>
									<path class="st9" d="M184,88c0,0-10.2,5.4-11.8,7.3c-1.6,2-14.2,5.5-14.2,5.5s0-12.6-2.1-20.1c-2.5-9.1,7.3-13.3,7.3-13.3
										s4.8,2.8,8.2-1.4C174.8,61.9,184,88,184,88z"/>
								</g>
							</g>
						</g>
						<path class="st2" d="M178.2,89.6l-3.8,3.8l-16.4,7.4l11.2-2.5l1.5,8.8c0,0,9-7,10.1-10.5C181.6,94.2,178.2,89.6,178.2,89.6z"
							/>
					</g>
				</g>
				<path class="st2" d="M158,100.9c0,0,2.6-16.3,2.4-24.2c-0.2-8,5.9-9.8,5.9-9.8s-6-2.5-8.7-1.2c-7.9,3.5-16.5,29.2-16.5,29.2
					l15.3-3L158,100.9z"/>
			</g>
			<path class="st2" d="M140.9,157.3c0,0,7.4-11.2,10.3-13.2c2.9-1.9,15.7-0.3,14.1,10.3c-1.6,10.6-19.8,34.3-19.8,34.3
				s-2.1-3.2-6.6-3.2c-4.5,0-5.5,0.6-5.5,0.6S133.9,172.4,140.9,157.3z"/>
			<path class="st10" d="M144.3,187.5c0,0-4,0.4-3.1,0.4c0.9,0,2.3,11.7,1,15.8c-1.3,4.2-0.6,9.3-3,5.7c-2.4-3.6-4.6-6.5-6.6-8.4
				c-2-1.9-5-2.2-4.6-6.1c0.5-4-2-5.7,1.7-10.3C133.5,179.9,144.3,187.5,144.3,187.5z"/>
			<g>
				<g>
					<path class="st11" d="M178.3,264.2l9,13.5c4,6.1,9,11.4,14.9,15.7l-3-7.2c-1.5-3.7-2.7-8.7-4.8-12.1l-9.6-14.4
						c0.1,0.4,0,0.9-0.3,1.5c-0.8,1.6-2.9,3-4.7,3.2C179.2,264.6,178.7,264.4,178.3,264.2z"/>
					<path class="st12" d="M88.8,129.5l88.9,133.8l0.6,0.9c0.3,0.2,0.9,0.4,1.5,0.3c1.8-0.1,3.9-1.6,4.7-3.2
						c0.3-0.6,0.4-1.1,0.3-1.5l-0.6-0.9L95.1,125.3L88.8,129.5z"/>
					<path class="st4" d="M90.5,130.2c1.7-0.1,3.7-1.5,4.5-3c0.8-1.6,0-2.7-1.7-2.6c-1.7,0.1-3.7,1.5-4.5,3
						C88.1,129.2,88.8,130.3,90.5,130.2z"/>
				</g>
			</g>
			<path class="st10" d="M94.5,124.6c0,0,5.1,1.9,10.7,3.4c5.6,1.5,4.7,8.6,4.7,8.6l2.1,8.1l-1.3,4.1l-6.1-9.3c0,0-4.2-0.4-3.3,3.4
				c0.9,3.9,3.6,10.8,3.6,10.8s-5.2,0.1-6.2-1.4c-1-1.5-2.1-0.7-2.7-1.5c-0.6-0.8-0.1-2.2-1.4-3c-1.4-0.7-3.6-2.8-3.8-5.3
				c-0.2-2.5-1.8-2.3-2.1-4.2c-0.2-1.8-0.2-7.2-0.2-7.2S91.9,124.3,94.5,124.6z"/>
			<path class="st2" d="M137.1,80.4c0,0-11.6,10.7-23.1,9.4c-11.5-1.3-20.1-5.8-21.8-6.8c-1.7-1.1-1.9,19.5,2.1,28.2
				c4.1,8.7,5.6,13.3,5.6,13.3s-3.9,5.7-7.7,5.1c-3.8-0.6-7.6-2.5-7.6-2.5s-6.9-18.4-12.1-36.4c-4.3-15.2-2-17.3,3.9-24
				c5.9-6.6,49.5-13.6,59.5-6.8C145.9,66.7,139.3,74.9,137.1,80.4z"/>
			<path class="st10" d="M140.5,185.6c0,0,3.5,0.4,6.2,4.7c2.7,4.3,1.6,7.6,1.6,7.6s-0.5,7.1,0.4,9.5c0.9,2.4-3.2,3-5.8-2
				c-2.5-5-0.6-10-0.6-10l-6.6-8.7C135.8,186.6,137.8,184.2,140.5,185.6z"/>
			<path class="st10" d="M141.2,204c0,0,2-1.6,2.5,1.7c0.5,3.3,1.4,6.3-0.1,7.5c-1.6,1.3-5.2-1-5.2-1S137.1,207.7,141.2,204z"/>
			<path class="st10" d="M139.8,196.8c0,0,2-1.6,2.5,1.7c0.5,3.3,1.4,6.3-0.1,7.5c-1.6,1.3-5.2-1-5.2-1S135.6,200.4,139.8,196.8z"/>
			<path class="st10" d="M135.2,193.5c0,0,1.8-1.4,2.2,1.5c0.4,2.9,1.2,5.4-0.1,6.5c-1.4,1.1-4.5-0.9-4.5-0.9
				S131.6,196.6,135.2,193.5z"/>
			<path class="st10" d="M132.2,189.6c0,0,1.6-1.2,2,1.3c0.4,2.6,1.1,4.9-0.1,5.9c-1.2,1-4.1-0.8-4.1-0.8S129,192.5,132.2,189.6z"/>
			<path class="st10" d="M203.7,58.9c0,0-0.4,10.7-2.9,13.3c-2.5,2.6-2.7,0.1-3.9,4c-1.1,3.9-0.2,6-3.4,7.7
				c-3.2,1.8-5.2,1.2-6.5,5.7c-1.3,4.4-8,1.6-11.9-2.5c-4-4.1-11.5-13.3-11.6-20.2c-0.1-7-2-35.7,26.4-28.9
				C202.8,41.1,203.7,58.9,203.7,58.9z"/>
			<g>
				<path class="st13" d="M207.5,59.4c0,0-3.9,3.8-13.7,4.4c-9.8,0.6-15.4-1.8-16.6,2c-1.2,3.8-4.5,8-4.5,8s-1.8-19-5.6-13.7
					c-3.8,5.3-3.3,9.7-3.3,9.7S152.5,47,171,37.3C200.8,21.8,207.5,59.4,207.5,59.4z"/>
			</g>
			<g>
				<g>
					<path class="st10" d="M170.5,63c0-0.1-0.7-4.5-2.8-3.8c-2.1,0.7-3.9,2.7-4.2,6c-0.3,3.3,0.3,7.6,2.4,8.2c2.2,0.6,2.7,1,4.3-0.3
						c1.6-1.3,1.5-3.5,1.5-3.5L170.5,63z"/>
				</g>
				<g>
					<path class="st10" d="M171.2,63.6c0-0.1-0.7-4.5-2.8-3.8c-2.1,0.7-3.9,2.7-4.2,6c-0.3,3.3,0.3,7.6,2.4,8.2
						c2.2,0.6,2.7,1,4.3-0.3c1.6-1.3,1.5-3.5,1.5-3.5L171.2,63.6z"/>
				</g>
			</g>
			<path class="st12" d="M164,100.1c0,0-0.6,4.2-5.4,4.7c-4.7,0.5-6,1.5-6.2,0.8c-0.2-0.8,2.6-10.4,4-11.3c1.4-1-0.1,4.9,3.1,5.8
				C162.7,100.8,164,100.1,164,100.1z"/>
			<path class="st12" d="M154.4,102.3c0,0-12.7,4.2-17.4,13.2c-4.7,9-4.4,13.7-4.3,17.8c0.1,4.3,2.8,11.8,2.8,11.8l9,1.5l2-7.2
				c0,0-3.3-7.8-2-15.5c1.4-8.1,10.7-20.2,10.7-20.2L154.4,102.3z"/>
		</g>
	</g>
	<g>
		<g>
			<g>
				<g>
					<linearGradient id="SVGID_1_" gradientUnits="userSpaceOnUse" x1="94.8855" y1="330.2759" x2="144.781" y2="330.2759">
						<stop  offset="0" style="stop-color:#6E39EC"/>
						<stop  offset="1" style="stop-color:#5E7EEC"/>
					</linearGradient>
					<path class="st14" d="M120.1,314.3c-13.8-0.2-25.1,6.7-25.2,15.5c-0.2,8.8,10.9,16.1,24.7,16.4c13.8,0.2,25.1-6.7,25.2-15.5
						C144.9,321.9,133.9,314.6,120.1,314.3z"/>
					<g>
						<g>
							<path class="st15" d="M119.5,349.3C103,349,89.8,340.2,90,329.7c0.2-10.5,13.7-18.8,30.2-18.5c16.5,0.3,29.7,9.1,29.5,19.6
								C149.5,341.3,135.9,349.6,119.5,349.3z M120.1,314.3c-13.8-0.2-25.1,6.7-25.2,15.5c-0.2,8.8,10.9,16.1,24.7,16.4
								c13.8,0.2,25.1-6.7,25.2-15.5C144.9,321.9,133.9,314.6,120.1,314.3z"/>
						</g>
					</g>
					<path class="st16" d="M91.8,329.8c0.2-10.3,13.2-18.5,29.3-18.5c-0.3,0-0.6,0-0.9,0c-16.5-0.3-30,8-30.2,18.5
						c-0.2,10.5,13,19.3,29.5,19.6c0.3,0,0.6,0,0.9,0C104.4,348.8,91.6,340.1,91.8,329.8z"/>
					<path class="st17" d="M120.1,314.3c-0.3,0-0.5,0-0.8,0c13.4,0.5,24,7.8,23.9,16.4c-0.2,8.6-11,15.5-24.4,15.5
						c0.3,0,0.5,0,0.8,0c13.8,0.2,25.1-6.7,25.2-15.5C144.9,321.9,133.9,314.6,120.1,314.3z"/>
				</g>
				<g>
					<path class="st18" d="M149.5,337L149.5,337l0.2-6.2c-0.2,10.5-13.7,18.8-30.2,18.5C103,349,89.8,340.2,90,329.7
						c0,0-0.1,6.8-0.1,7.1c-0.2,9.7,13.1,17.8,29.5,18.1s30-7.3,30.2-17C149.5,337.6,149.5,337.3,149.5,337z"/>
				</g>
			</g>
			<path class="st19" d="M131,329c-0.1,0-0.1,0-0.2,0c-2.7,0.1-5.2-0.5-7.3-1.6l1.9-5.4l8.1-0.3L131,329z M129.9,332.2
				c-0.2,0-0.3,0-0.5,0c-6.1,0.2-10.4,3.9-9.6,8.1c0.1,0.7,0.4,1.4,0.7,2l5.9-0.2l0,0l0,0L129.9,332.2z M114.2,336.8
				c2.2-1.6,3.4-3.9,2.9-6.4c-0.1-0.7-0.4-1.3-0.7-2l-1.3-1.7c-2.4-2.5-6.6-4.2-11.1-4c-0.1,0-0.1,0-0.2,0L114.2,336.8z"/>
		</g>
	</g>
	<g>
		<g>
			<g>
				<g>
					<linearGradient id="SVGID_2_" gradientUnits="userSpaceOnUse" x1="225.8457" y1="259.1758" x2="275.7412" y2="259.1758">
						<stop  offset="0" style="stop-color:#6E39EC"/>
						<stop  offset="1" style="stop-color:#5E7EEC"/>
					</linearGradient>
					<path class="st20" d="M251.1,243.2c-13.8-0.2-25.1,6.7-25.2,15.5c-0.2,8.8,10.9,16.1,24.7,16.4c13.8,0.2,25.1-6.7,25.2-15.5
						S264.8,243.5,251.1,243.2z"/>
					<g>
						<g>
							<path class="st15" d="M250.4,278.2c-16.5-0.3-29.7-9.1-29.5-19.6c0.2-10.5,13.7-18.8,30.2-18.5c16.5,0.3,29.7,9.1,29.5,19.6
								S266.9,278.5,250.4,278.2z M251.1,243.2c-13.8-0.2-25.1,6.7-25.2,15.5c-0.2,8.8,10.9,16.1,24.7,16.4
								c13.8,0.2,25.1-6.7,25.2-15.5S264.8,243.5,251.1,243.2z"/>
						</g>
					</g>
					<path class="st16" d="M222.8,258.7c0.2-10.3,13.2-18.5,29.3-18.5c-0.3,0-0.6,0-0.9,0c-16.5-0.3-30,8-30.2,18.5
						c-0.2,10.5,13,19.3,29.5,19.6c0.3,0,0.6,0,0.9,0C235.3,277.7,222.6,269,222.8,258.7z"/>
					<path class="st17" d="M251.1,243.2c-0.3,0-0.5,0-0.8,0c13.4,0.5,24,7.8,23.9,16.4c-0.2,8.6-11,15.5-24.4,15.5
						c0.3,0,0.5,0,0.8,0c13.8,0.2,25.1-6.7,25.2-15.5S264.8,243.5,251.1,243.2z"/>
				</g>
				<g>
					<path class="st18" d="M280.5,265.9L280.5,265.9l0.2-6.2c-0.2,10.5-13.7,18.8-30.2,18.5s-29.7-9.1-29.5-19.6
						c0,0-0.1,6.8-0.1,7.1c-0.2,9.7,13.1,17.8,29.5,18.1c16.5,0.3,30-7.3,30.2-17C280.5,266.5,280.5,266.2,280.5,265.9z"/>
				</g>
			</g>
			<path class="st19" d="M262,257.9c-0.1,0-0.1,0-0.2,0c-2.7,0.1-5.2-0.5-7.3-1.6l1.9-5.4l8.1-0.3L262,257.9z M260.9,261.1
				c-0.2,0-0.3,0-0.5,0c-6.1,0.2-10.4,3.9-9.6,8.1c0.1,0.7,0.4,1.4,0.7,2l5.9-0.2l0,0h0L260.9,261.1z M245.2,265.7
				c2.2-1.6,3.4-3.9,2.9-6.4c-0.1-0.7-0.4-1.3-0.7-2l-1.3-1.7c-2.4-2.5-6.6-4.2-11.1-4c-0.1,0-0.1,0-0.2,0L245.2,265.7z"/>
		</g>
	</g>
	<g>
		<defs>
			<path id="SVGID_11_" d="M294.5,316.2c0,9.1-15.2,19.3-33.5,19.3s-32.8-11.2-32.8-20.4s14.8-37.3,33.1-37.3S294.5,307,294.5,316.2
				z"/>
		</defs>
		<clipPath id="SVGID_3_">
			<use xlink:href="#SVGID_11_"  style="overflow:visible;"/>
		</clipPath>
		<g class="st21">
			<g>
				<linearGradient id="SVGID_4_" gradientUnits="userSpaceOnUse" x1="237.5132" y1="321.0412" x2="284.8148" y2="321.0412">
					<stop  offset="0" style="stop-color:#6E39EC"/>
					<stop  offset="1" style="stop-color:#5E7EEC"/>
				</linearGradient>
				<circle class="st22" cx="261.2" cy="321" r="23.7"/>
				<g>
					<path class="st15" d="M261.2,349.3c-15.6,0-28.3-12.7-28.3-28.3c0-15.6,12.7-28.3,28.3-28.3c15.6,0,28.3,12.7,28.3,28.3
						C289.5,336.6,276.8,349.3,261.2,349.3z M261.2,297.4c-13,0-23.7,10.6-23.7,23.7c0,13,10.6,23.7,23.7,23.7
						c13,0,23.7-10.6,23.7-23.7C284.8,308,274.2,297.4,261.2,297.4z"/>
				</g>
				<path class="st16" d="M234.6,321c0-15.3,12.2-27.8,27.4-28.3c-0.3,0-0.6,0-0.9,0c-15.6,0-28.3,12.7-28.3,28.3
					c0,15.6,12.7,28.3,28.3,28.3c0.3,0,0.6,0,0.9,0C246.8,348.9,234.6,336.4,234.6,321z"/>
				<path class="st17" d="M261.2,297.4c-0.3,0-0.5,0-0.8,0c12.7,0.4,22.9,10.8,22.9,23.6c0,12.8-10.2,23.2-22.9,23.6
					c0.3,0,0.5,0,0.8,0c13,0,23.7-10.6,23.7-23.7C284.8,308,274.2,297.4,261.2,297.4z"/>
			</g>
			<path class="st19" d="M271.2,318.7c-0.1,0-0.1,0-0.2,0c-2.4,0-4.7-0.9-6.4-2.4l2.6-6.9h7.4L271.2,318.7z M269.7,322.8
				c-0.2,0-0.3,0-0.5,0c-5.6,0-10.1,4.5-10.1,10.1c0,0.9,0.1,1.8,0.3,2.6h5.4l0,0h0L269.7,322.8z M254.7,328.1
				c2.3-1.9,3.7-4.8,3.7-8.1c0-0.9-0.1-1.7-0.3-2.6l-0.9-2.3c-1.8-3.4-5.3-5.7-9.4-5.7c-0.1,0-0.1,0-0.2,0L254.7,328.1z"/>
		</g>
	</g>
	<g>
		<defs>
			<path id="SVGID_14_" d="M86.8,338.7c0,9.1-15.2,19.3-33.5,19.3s-32.8-11.2-32.8-20.4s14.8-37.3,33.1-37.3S86.8,329.5,86.8,338.7z
				"/>
		</defs>
		<clipPath id="SVGID_5_">
			<use xlink:href="#SVGID_14_"  style="overflow:visible;"/>
		</clipPath>
		<g class="st23">
			<g>
				<linearGradient id="SVGID_6_" gradientUnits="userSpaceOnUse" x1="29.8982" y1="369.3997" x2="77.1998" y2="369.3997">
					<stop  offset="0" style="stop-color:#6E39EC"/>
					<stop  offset="1" style="stop-color:#5E7EEC"/>
				</linearGradient>
				<circle class="st24" cx="53.5" cy="369.4" r="23.7"/>
				<g>
					<path class="st15" d="M53.5,397.7c-15.6,0-28.3-12.7-28.3-28.3c0-15.6,12.7-28.3,28.3-28.3s28.3,12.7,28.3,28.3
						C81.8,385,69.1,397.7,53.5,397.7z M53.5,345.7c-13,0-23.7,10.6-23.7,23.7c0,13,10.6,23.7,23.7,23.7s23.7-10.6,23.7-23.7
						C77.2,356.4,66.6,345.7,53.5,345.7z"/>
				</g>
				<path class="st16" d="M27,369.4c0-15.3,12.2-27.8,27.4-28.3c-0.3,0-0.6,0-0.9,0c-15.6,0-28.3,12.7-28.3,28.3
					c0,15.6,12.7,28.3,28.3,28.3c0.3,0,0.6,0,0.9,0C39.2,397.2,27,384.7,27,369.4z"/>
				<path class="st17" d="M53.5,345.7c-0.3,0-0.5,0-0.8,0c12.7,0.4,22.9,10.8,22.9,23.6c0,12.8-10.2,23.2-22.9,23.6
					c0.3,0,0.5,0,0.8,0c13,0,23.7-10.6,23.7-23.7C77.2,356.4,66.6,345.7,53.5,345.7z"/>
			</g>
			<path class="st19" d="M63.6,367.1c-0.1,0-0.1,0-0.2,0c-2.4,0-4.7-0.9-6.4-2.4l2.6-6.9h7.4L63.6,367.1z M62,371.2
				c-0.2,0-0.3,0-0.5,0c-5.6,0-10.1,4.5-10.1,10.1c0,0.9,0.1,1.8,0.3,2.6h5.4l0,0h0L62,371.2z M47,376.5c2.3-1.9,3.7-4.8,3.7-8.1
				c0-0.9-0.1-1.7-0.3-2.6l-0.9-2.3c-1.8-3.4-5.3-5.7-9.4-5.7c-0.1,0-0.1,0-0.2,0L47,376.5z"/>
		</g>
	</g>
</g>
</svg>
