<?xml version="1.0" encoding="utf-8"?>
<!-- Generator: Adobe Illustrator 24.3.0, SVG Export Plug-In . SVG Version: 6.00 Build 0)  -->
<svg version="1.1" id="Graphic_Element" xmlns="http://www.w3.org/2000/svg" xmlns:xlink="http://www.w3.org/1999/xlink" x="0px"
	 y="0px" viewBox="0 0 400 400" style="enable-background:new 0 0 400 400;" xml:space="preserve">
<style type="text/css">
	.st0{opacity:0.5;fill:#28226B;}
	.st1{fill:#DEE8FF;}
	.st2{fill:#051E32;}
	.st3{fill:#E9C2B0;}
	.st4{fill:#1A1C1F;}
	.st5{fill:#FFFFFF;}
	.st6{fill:#BA8B75;}
	.st7{opacity:0.2;fill:#BA8B75;}
	.st8{fill:#DEB09D;}
	.st9{opacity:0.4;fill:#E9C2B0;}
	.st10{opacity:0.4;fill:#1A1C1F;}
	.st11{fill:#E6E6E6;}
	.st12{fill:#8C93B3;}
	.st13{fill:#1C1E22;}
	.st14{fill:#1E2125;}
	.st15{fill:#22232C;}
	.st16{fill:#E0B29D;}
	.st17{opacity:0.3;fill:#E0B29D;}
	.st18{fill:#19100D;}
	.st19{fill:#2B0D04;}
	.st20{fill:#252B33;}
	.st21{opacity:0.1;fill:#090909;}
	.st22{fill:#171716;}
	.st23{opacity:0.3;fill:#090909;}
	.st24{opacity:0.3;fill:#1A1C1F;}
	.st25{fill:#CCD8F5;}
	.st26{opacity:0.4;}
	.st27{opacity:0.1;fill:#E9C2B0;}
	.st28{opacity:0.2;fill:#E9C2B0;}
	.st29{fill:#13161B;}
	.st30{opacity:0.3;}
	.st31{fill:#022540;}
	.st32{opacity:0.2;fill:#051E32;}
	.st33{fill:#5C4123;}
	.st34{fill:#BB884F;}
	.st35{fill:url(#SVGID_1_);}
	.st36{fill:#8481F7;}
	.st37{fill:#A1A1FF;}
	.st38{fill:#5237C4;}
	.st39{fill:#3A28A0;}
	.st40{fill:url(#SVGID_2_);}
	.st41{fill:url(#SVGID_3_);}
	.st42{fill:url(#SVGID_4_);}
	.st43{fill:url(#SVGID_5_);}
	.st44{fill:url(#SVGID_6_);}
	.st45{fill:url(#SVGID_7_);}
	.st46{fill:url(#SVGID_8_);}
	.st47{fill:url(#SVGID_9_);}
	.st48{fill:url(#SVGID_10_);}
	.st49{fill:url(#SVGID_11_);}
	.st50{fill:url(#SVGID_12_);}
	.st51{fill:url(#SVGID_13_);}
	.st52{opacity:0.2;fill:#5C4123;}
	.st53{fill:#CB9558;}
	.st54{fill:#E0B477;}
	.st55{fill:#F5D09C;}
	.st56{fill:#DE9B59;}
	.st57{fill:#0D324E;}
	.st58{fill:#EBB67F;}
	.st59{fill:url(#SVGID_14_);}
	.st60{fill:url(#SVGID_15_);}
	.st61{fill:url(#SVGID_16_);}
</style>
<g>
	<polygon class="st0" points="114.2,355.1 182,396 220.1,373.5 221.6,366.6 226.2,362.4 117.8,351.3 	"/>
	<ellipse class="st0" cx="251.8" cy="372.6" rx="32.4" ry="16.2"/>
	<ellipse class="st0" cx="26.5" cy="318.6" rx="15.5" ry="6.9"/>
	<ellipse class="st0" cx="334.6" cy="347.3" rx="32.4" ry="16.2"/>
	<path class="st0" d="M112,356.2c-18.7,10.8-49.2,10.8-68-0.1c-18.8-10.9-18.9-28.4-0.2-39.3c18.7-10.8,49.2-10.7,68,0.1
		C130.7,327.8,130.8,345.4,112,356.2z"/>
	<g>
		<path class="st1" d="M210.8,90.2c-0.2-0.9-3.2-4.1-5.1-4.7c-2.9-0.9-6-0.1-8.3,1.9c-2,1.8-3.1,4.4-4.2,6.7
			c-1.2,2.5-10.6,30.7-10.5,28.7c3.9,2.3,7.7,6.5,9.7,12.2c6.2-11.4,12.3-23.2,16.6-35.4C209.9,96.8,211.4,93.2,210.8,90.2z"/>
		<path class="st2" d="M144.8,211.3c0.1,0-0.2,1.1-0.6,2.5c-1,3.4-2.9,8.9-3.1,8.8c0,0-7.5-1.5-16.5-3.9c-7-2.8-9.5-4.7-21.1-11
			c-2-1.1,3.6-6.5,2.6-8.3c-0.1-1.7,7.2-0.5,7.1-2.2l0.2-2.6L144.8,211.3z"/>
		<g>
			<path class="st2" d="M114.1,197c0.1-0.2,0.2-0.3,0.4-0.3c0-0.3,0.1-0.7,0.1-1c-7.5-8.6-10.7-20.2-21.3-28.7
				c-3.3-2.6-6.9-3.1-8.9-2.6c-7.1,1.8-4.9,9.3-2.6,13.3c1.9,3.2,16.5,25.6,21.6,29.9c2.9,0.4,6.9-1.6,8.5-3.2
				C114,202.3,112.7,199.4,114.1,197z"/>
		</g>
		<g>
			<g>
				<path class="st3" d="M295.8,196.4c0.1-1.5,0-2.7-0.6-2.9c-1.1-0.3-2.1-0.6-3.2-0.7c-0.7-0.1-2.7-0.2-3.1,0.5
					c-1.3,2.2-2.9,4.2-4,6.5c-1.3,2.8-0.9,5.7-0.9,8.7c0,0.3,0,0.7,0.2,0.9c0.1,0.3,0.4,0.5,0.8,0.5c0.5,0,0.7-0.5,0.9-1
					c0.6,1,1.5,4.4,2.5,1.7c0.5-1.4,0-3.5,0.1-5c0.1-1.8,1.3-3.4,3-4c0.2,1,0.2,1.7-0.1,2.7c-0.2,0.6-0.5,1.3-0.5,1.9
					c0,0.7,0.4,1.4,1,1.6C292.9,208,295.4,200.6,295.8,196.4z"/>
				<path class="st4" d="M321.9,111.3c-2.9,0.2-4.8,1.2-6.1,4.3c-0.8,1.9-3.4,9.6-5.9,18.1c-0.3,0.9-0.5,1.8-0.8,2.7
					c-2,7-7.5,25.3-7.9,30.1c0,0,9.9-7.1,10.4-3.9c0.2,1.3-0.2,2.8-0.9,4.1c1.4-0.2,2.5-0.1,3.2-0.9c1.1-1.3,3-2.3,5.7-7.6
					c3-6.1,7-18.3,8.4-29.4c0.4-3,0.6-6.2,0.7-9.6l0,0C328.7,114,324.7,111.1,321.9,111.3z"/>
				<g>
					<g>
						<path class="st5" d="M287.8,193.6c0.7-1.8,1.5-3.5,2.5-5c0.1-0.1,0.2-0.2,0.3-0.2c0.1,0,0.2,0.1,0.3,0.1
							c1.5,1.1,2.9,2.1,4.4,3.2c1,0.7,2.5,1.5,2.5,2.9c0,0.9-1.1,3.8-1.1,3.8s-2.1-0.7-2.6-0.9c-0.7-0.3-1.4-0.6-2.1-0.9
							C290.5,195.7,289.1,194.7,287.8,193.6z"/>
						<path class="st4" d="M319.7,157.7L319.7,157.7c-0.1,0.4-0.3,0.8-0.5,1.2l-1,1.8L298,196.9c-0.1,0.2-0.8,0-1.7-0.3
							c-2.9-1.1-8.5-3.9-8.3-4.2c0,0,10.1-28.7,17.4-40.8c0.3-0.4,0.5-0.8,0.9-1.2c2.4-2.8,6.3-3.9,9.7-2.1c1.7,0.9,2.9,2.3,3.6,4
							C320.2,154,320.3,155.9,319.7,157.7z"/>
						<g>
							<path class="st4" d="M300.9,189c0.5-0.1,0.8-0.6,0.7-1c-0.1-0.5-0.6-0.8-1-0.7c-0.5,0.1-0.8,0.6-0.7,1
								C300,188.8,300.5,189.1,300.9,189z"/>
							<path class="st4" d="M299.6,191.8c0.5-0.1,0.8-0.6,0.7-1c-0.1-0.5-0.6-0.8-1-0.7c-0.5,0.1-0.8,0.6-0.7,1
								C298.7,191.6,299.1,191.9,299.6,191.8z"/>
							<path class="st4" d="M297.9,194.7c0.5-0.1,0.8-0.6,0.7-1c-0.1-0.5-0.6-0.8-1-0.7c-0.5,0.1-0.8,0.6-0.7,1
								C296.9,194.5,297.4,194.8,297.9,194.7z"/>
						</g>
					</g>
				</g>
			</g>
			<g>
				<g>
					<g>
						<path d="M335.3,328.4c0.4,5.1,0.6,10.3,0.7,12.6l2.4,0.2c0-5-0.5-9.1-0.6-12.9L335.3,328.4z"/>
					</g>
					<g>
						<g>
							<path class="st6" d="M317.1,257.9c-0.3,4.4,0.5,8.6,1.1,13c1.3,9.1,2.6,18.2,3.9,27.3c1,7.1,2.1,13.1,1.3,20.2
								c-0.3,2.7-3.4,28.8-4.6,28.8l13.7-0.2l0.2-0.9l5-17.6l-3.1-13c1.4-12.8,2.9-25.6,3.9-38.5c0.2-2.8,0.5-5.6,0.7-8.4
								c0.4-6.1-1-12.4-1.6-18.6c-0.2-2.1-0.4-4.2-0.6-6.4c-0.2-1.8-0.3-3.5-0.5-5.3c-2.6,0.7-5.3,1.5-7.9,2.2
								c-1.7,0.5-3.3,0.9-5,1.4c-2.2,0.6-6.2,0.9-7,3.2c-0.5,1.6,0.6,4.9,0.7,6.7C317.3,253.9,317.3,255.9,317.1,257.9z"/>
						</g>
						<path class="st7" d="M317.1,257.9c-0.3,4.4,0.5,8.6,1.1,13c1.3,9.1,2.6,18.2,3.9,27.3c1,7.1,2.1,13.1,1.3,20.2
							c-0.3,2.7-3.4,28.8-4.6,28.8l13.7-0.2l0.2-0.9c-0.6-0.6-1.2-1.1-1.9-1.5c-1.4-0.9-2.9-1.5-4-2.7c-1.2-1.5-1.5-3.5-1.5-5.4
							c-0.1-5.8,1.3-11.4,2-17.2c1.4-10.6,0.7-21.5-2.1-31.9c-1-3.7-2.3-7.5-2-11.4c0-0.6,0.2-1.3,0.6-1.8c0.8-0.9,2.3-0.6,3.4-0.2
							c2.4,0.9,4.6,2.3,7.1,2.9c1.4,0.3,2.9,0.4,4.2,0c0.2-2.8,0.5-5.6,0.7-8.4c0.4-6.1-1-12.4-1.6-18.6c-0.2-2.1-0.4-4.2-0.6-6.4
							c-1.8-1-3.6-1.8-5.6-2.4c-0.9-0.3-1.9-0.5-2.9-0.7c-1.7,0.5-3.3,0.9-5,1.4c-2.2,0.6-6.2,0.9-7,3.2c-0.5,1.6,0.6,4.9,0.7,6.7
							C317.3,253.9,317.3,255.9,317.1,257.9z"/>
						<g>
							<path class="st4" d="M318.8,347.2l0.1,3.6l9.9-0.2c2,0,3.7-1.4,4.2-3.4l3.4-14.2l1.3-4.5l-1-4c0,0-7.5,19.6-8.4,19.6
								c-0.8,0-8-0.1-8-0.1l-0.3-2.8L318.8,347.2z"/>
						</g>
					</g>
				</g>
				<g>
					<g>
						<path d="M352.2,337c0.3,5.1,0.2,10.3,0.3,12.6l2.4,0.3c0.1-5-0.2-9.1-0.2-12.9H352.2z"/>
					</g>
					<g>
						<g>
							<path class="st8" d="M335.1,355.2l10.5,0.2l3.1,0l5.8-18.3l-2.7-13.1c2.2-15.5,4.5-31.1,6.1-46.7c0.1-1,0.2-2,0.2-2.9
								c0.1-5.2-0.9-10.5-1.2-15.7c-0.3-3.9-0.5-7.8-0.8-11.7c-4.4,1.1-8.7,2.1-13.1,3.2c-2.3,0.6-6.3,0.7-7.1,3
								c-0.6,1.5,0.5,5,0.5,6.7c0,2,0,4.1-0.2,6.1c-0.4,4.4,0.2,8.6,0.7,13c1,9.1,2,18.3,3,27.4c0.8,7.1,1.7,13.1,0.7,20.3
								C340.3,329.3,336.3,355.3,335.1,355.2z"/>
						</g>
						<path class="st9" d="M340.6,349c-0.1-0.7,0.1-1.4,0.2-2.1c1.1-4.6,2.2-9.2,3.3-13.8c0.5-2,1-4.1,1.2-6.2
							c0.2-2.3,0-4.5-0.2-6.8c-0.9-11.6-1.9-23.4-5.3-34.5c-0.8-2.7-1.7-6,0.1-8.1c2.3-2.7,6.5-1.3,10.1-1.1c2.8,0.2,5.6-0.5,8.1-2
							c0.1-5.2-0.9-10.5-1.2-15.7c-0.3-3.9-0.5-7.8-0.8-11.7c-4.4,1.1-8.7,2.1-13.1,3.2c-2.3,0.6-6.3,0.7-7.1,3
							c-0.6,1.5,0.5,5,0.5,6.7c0,2,0,4.1-0.2,6.1c-0.4,4.4,0.2,8.6,0.7,13c1,9.1,2,18.3,3,27.4c0.8,7.1,1.7,13.1,0.7,20.3
							c-0.4,2.7-4.3,28.6-5.5,28.6l10.5,0.2c-0.6-1-1.3-1.9-2.2-2.8C342.3,351.6,340.9,350.5,340.6,349z"/>
						<g>
							<path class="st4" d="M335.1,355.2l-0.1,3.6l9.9,0.1c2,0,3.8-1.3,4.3-3.2l3.9-14.1l1.4-4.5l-0.8-4.1c0,0-8.1,19.3-9,19.3
								c-0.8,0-7.9-0.4-7.9-0.4l-0.2-2.8L335.1,355.2z"/>
						</g>
					</g>
				</g>
				<g>
					<g>
						<g>
							<g>
								<path class="st4" d="M358.8,184.6c16.7,22.2,2.4,73,0.3,81.9c-2.1,8.9-35.7,7-41.6-0.4c-7.8-9.8-2.9-73.5,0.2-81.8
									c3.1,1.2,7.4-8.4,10.3-7.8C338.5,178.5,346.7,187.6,358.8,184.6z"/>
								<path class="st10" d="M317.5,266c-7.8-9.8-2.9-73.5,0.2-81.8c3.1,1.2,7.4-8.4,10.3-7.8c10.5,2.1,18.7,11.2,30.8,8.2
									c3.8,5,6,11.5,7.1,18.7c-3.6,1.4-8.2,1.2-11.6,0.5c-8.7-2.2-18.8-12.2-25.8-5.7c-12.7,13.1-9.6,34.1-6.1,52
									c1.3,6.1,6.1,14.8,12.2,11.8c3.9-1.7,1.3-10.5,4.4-12.2c3.5-1.7,4.4,7,7,10.9c3.7,4.9,9.7,2.9,14.4,0.8
									c-0.6,2.3-1,4-1.3,5.1C357,275.3,323.4,273.4,317.5,266z"/>
								<path class="st11" d="M320.4,154.5l27.9-0.3c0,0,4.5-31.7-2.2-40.1c-2.8-3.5-15.1-4-15.1-4l-9.5,7.3L320.4,154.5z"/>
								<polygon class="st12" points="338.3,138.8 327.6,155.7 327.8,137 333.4,121.5 336.4,121.8 								"/>
								<path class="st13" d="M318.9,157.8c0.1,1,0.2,5.5,0.2,10.8c0,8.9-2.8,20.5-2.8,20.5s8.2,2.3,14.2,0.4c0.8-0.3,1.6-0.6,2.3-1
									c1.1-0.7,2.1-1.5,2.7-2.7c0.3-0.5,0.5-1,0.7-1.6c-0.9-1.9-8.1-6.7-8.2-8.9c0,0,0-0.1,0-0.1c0-0.7,0-1.4,0-2.1
									c-0.1-7.5-0.9-15.2,0.1-22.7c-0.7-3-1.6-6.9-1.7-8.8c0-0.8-0.1-1.6-0.1-2.4c-0.3-16.4,5.9-28.6,5.9-28.6l-10.6,0.7
									c-2,0.5-3.1,0.9-3.7,2.2c-0.3,0.7-5.1,17.9-5.4,21.4c-0.3,2.4,0.6,5.7,1.8,9.1C316,149,318.4,154.3,318.9,157.8z"/>
								<path class="st14" d="M328,173.2c0,0.7,0,1.4,0,2.1c0,0,0,0.1,0,0.1c-0.1,2.3,0.7,5.4,2,8.3c0.8,1.7,1.7,3.4,2.8,4.9
									c1.1,1.6,2.4,2.8,3.6,3.7c1,0.4,2.1,0.8,3.4,1.2c7.2,2,17.9,2.3,25.4,0.6c-0.1-2.2-4.2-12.8-5.5-21.9
									c-0.5-3.3-0.5-6.3,0.1-8.7c0.2-0.9,0.4-1.7,0.6-2.5c2.4-10.2,3.8-17.8,4.6-23.7c2.1-15.8-0.4-17.9-1.6-18.5
									c-2.7-1.2-5.5-2.6-8-3.9c-5.2-2.7-9.2-4.9-9.2-4.9s0.5,3.9-0.6,8.7c-0.4,1.7-1,3.4-1.9,5.1c-3.1,6.1-13,26.4-15.1,29.3
									c-0.1-0.7-0.3-1.6-0.5-2.7C327.1,157.9,327.9,165.6,328,173.2z"/>
								<path class="st15" d="M328.6,153.3c0,0,16.8-10.3,18.5-16.1c0.9-3.2-3.7-12.4-3.7-12.4s5.9-1.9,7.3-4
									c5.6-8-3.7-12.1-3.7-12.1L328.6,153.3z"/>
								<path class="st16" d="M334.1,119.6c2,1,4.2,0.5,6.3-0.3c3.2-1.2,6.7-5.8,6.7-5.8l1.4-16.8l-14.3,1.5c0,0-1.5,11.7-1.6,15.8
									C332.4,116.6,332.2,118.7,334.1,119.6z"/>
								<path class="st17" d="M332.5,114c0.1-4.1,1.6-15.8,1.6-15.8l14.3-1.5l-1,12.8c-3.8,2.5-8.9,2.6-12.6,6
									c-0.4,0.4,0,2.6,0.9,2.6c1.4,0.5,2.9,0.9,4.3,1.4c-2,0.7-4,1.1-5.9,0.2C332.2,118.7,332.4,116.6,332.5,114z"/>
								<path class="st12" d="M334,117.7l3.7,0.8l0.7,3.7c0,0-0.8,2.3-4.1,1.5c-2-0.5-2.6-3.5-2.6-3.5L334,117.7z"/>
								<path id="XMLID_80_" class="st5" d="M332.6,112.5c0.4-1.6-0.5-2.4-0.5-2.4s-5.1,2.4-5.4,2.8c-0.3,0.4-0.2,1-0.1,1.6
									c0.1,1.3,0.3,2.6,0.5,3.9c0.3,1.5-0.1,3.3,0.6,4.7c0.3-0.2,7.5-4.8,8.2-5c-0.9-0.5-2.1-0.9-2.7-1.7
									C332.5,115.6,332.2,113.9,332.6,112.5z"/>
								<path id="XMLID_79_" class="st5" d="M348.2,113.1c-0.1-0.5-0.9-2.6-0.9-2.6c-0.3,0.9-1.1,2-1.6,2.8c-0.5,0.7-1.5,1.4-2.2,2
									c-1.1,0.9-2.3,1.6-3.6,2.1c-2.2,0.9-4,0.7-3.9,0.7c0,0.1,4.9,6.1,5,6C341.3,123.3,348.9,117.1,348.2,113.1z"/>
							</g>
						</g>
						<path class="st15" d="M328.6,153.3c0,0-9.6-15.5-8.8-21.9c0.4-2.9,6.8-9.4,6.8-9.4s-4.2-3.3-3.2-5.6c3-6.7,8.9-6,8.9-6
							L328.6,153.3z"/>
					</g>
				</g>
				<path class="st4" d="M343.2,177.9c0-0.4,0-1,0.4-1.2c0.3-0.2,0.8,0,1.1,0c0.9,0.1,1.7,0.1,2.6,0.2c1.7,0.1,3.3,0.1,5,0.1
					c0.9,0,1.8-0.1,2.6-0.2c0.7-0.1,1.4-0.3,2.1-0.5c0.5-0.1,0.5,0.1,0.6,0.6c0.1,0.4,0.1,0.7,0.2,1.1c0.1,0.4,0.4,1.4,0.2,1.7
					c-0.1,0.2-0.3,0.2-0.5,0.3c-1,0.3-1.9,0.6-2.9,0.8c-3.6,0.8-7.3,0.3-10.9-0.4c-0.2-0.1-0.4-0.1-0.6-0.2c0,0-0.1,0-0.1-0.1
					c0,0,0-0.1,0-0.1c0.1-0.7,0.1-1.4,0.2-2.1C343.2,178,343.2,177.9,343.2,177.9z"/>
				<path class="st18" d="M327.2,78.1c-0.4,2.1-0.5,4.1-0.4,6.2c0.2,3.2,9.2,7.4,16.7,11.5c0.4,5.3-1,10.6-4.9,14.3
					c-1.3,0.4-2.8,0.6-4.1,0.8c-2.6,0.3-5.3,0.9-8,0.8c-1.6,0-3.3-0.3-4.7-1.1c-1.8-0.9-2.4-2.2-2.5-4.1c0.1-1.3,0.1-2.7,0.2-4
					c0.2-1.6,0.8-11,1.2-13.9c0.4-3.4,1-6.8,2.1-10.1c0.3-1,0.8-2,1.3-2.9c0.5-0.8,1.1-1.5,1.8-2.1c1.4-1.3,3-2.5,4.7-3.3
					c-0.9,1.2-1.7,2.4-2.3,3.7C327.7,75.2,327.4,76.6,327.2,78.1z"/>
				<path class="st19" d="M351.8,102c-8,7.4-11.1,3.7-18.7-1.7c-7.6-5.3-10.9-11.1-8.7-21.8c2.3-11.3,17.6-14.3,26.7-8.8
					C364.3,77.8,359.6,94.8,351.8,102z"/>
				<path class="st3" d="M349.5,92.1c0,3.3-1,8.7-2.2,11.9c-3.3,9.5-15.5,8.8-17.7,6.4c-2.7-3-6.7-12.2-6.1-24.5
					c0.5-10.3,5.9-8.8,13.8-9.7C342.3,75.7,349.6,81.6,349.5,92.1z"/>
				<path class="st9" d="M323.5,85.9c0.5-10.3,5.9-8.8,13.8-9.7c5-0.6,12.2,5.4,12.1,15.8c0,0.6,0,1.2-0.1,1.9
					c-1.5,0.7-3.3,0.9-4.6,0.3c-5.6-2.3-10.7-5.6-16.2-9.3c-0.9-0.5-2.3,0-2.3,0c-2.3,8.3,0.5,16.2,4.2,22.7
					c1.3,2.1,3.2,3.3,5.4,4.2c-2.9,0.1-5.3-0.6-6.2-1.5C326.9,107.4,322.9,98.2,323.5,85.9z"/>
				<path class="st19" d="M325.4,77.7c1.8-2.4,4.1-5.5,4.4-6c0,0,0.1-0.1,0.1-0.1c4.1-1.7,10.1-1.7,14.8,1.9
					c5.3,4,3.6,21.3,3.4,21.8c0,0-11-12.6-24.3-12.6L325.4,77.7z"/>
				<path class="st19" d="M358.4,78.6c0,0-17.4,9.2-14.2,11.7c8.3,6.6,2.7,12.3,0.9,19.7c-2.5,10.6,18.8,8.8,17.5,5.1
					C359,104.8,368.3,107.1,358.4,78.6z"/>
				<path class="st3" d="M346.6,95c-2,1.8-2.7,4.3-1.5,5.7c1.2,1.3,3.8,1,5.8-0.8c2-1.8,2.7-4.3,1.5-5.7
					C351.2,92.9,348.6,93.2,346.6,95z"/>
				<path class="st9" d="M347.8,96.4c-0.9,0.8-1.2,1.9-0.7,2.5c0.5,0.6,1.7,0.4,2.6-0.4c0.9-0.8,1.2-1.9,0.7-2.5
					C349.8,95.4,348.7,95.6,347.8,96.4z"/>
				<g>
					<g>
						<path class="st3" d="M350.8,214.4c0.4-0.7,0.9-1.3,1.3-2c-1.2,1.2-2.7,2.6-4.2,1.4c-0.1-0.1-0.3-0.2-0.3-0.4
							c0.1-0.7,1.7-1.7,2.2-2c1.6-1.3,2.7-3,4.2-4.3c0.2-0.2,1.8-1.1,2.2-1.3c0.1,0,0.9-0.8,1.4-1.7c0.3-0.6,0.6-1.3,0.8-2.2
							c2.4,1,4.6,2.2,6.5,3.7l-0.5,2.3c-0.4,1.1-0.9,2.1-1.2,2.8c-0.6,1-1,1.9-1.5,3c-0.4,0.9-1.2,2.2-1.8,3c-1.4,1.9-2.3,3-3.7,4.9
							c-0.2,0.3-0.5,0.6-0.9,0.7c-0.3,0.1-0.4,0-0.4-0.3c0,0,0,0,0,0c0-1.1,1.4-3.8,1.6-5c-0.9,1.8-1.8,3.4-3,5.1
							c-0.3,0.4-1,1.1-1.5,0.5c-0.5-0.4-0.1-1.2,0.1-1.6c0.4-0.9,0.8-1.8,1.3-2.7c-0.7,1.4-1.5,2.7-2.5,3.8
							c-0.2,0.3-0.6,0.4-0.8,0.2c-1-0.5,0.4-3.1,0.8-3.7c0.8-1.4,1.7-2.7,2.5-4.1c-1,1.6-2.2,3.1-3.4,4.6c-0.3,0.3-0.8,1-1.3,0.7
							C347.6,219.1,350.3,215.2,350.8,214.4z"/>
					</g>
				</g>
				<g>
					<path class="st20" d="M352.3,128.7l19.4,39.4l1.1,2.2c0.2,0.4,0.5,0.8,0.7,1.2c2.2,3,6.3,4.1,9.7,2.4c2.6-1.3,4.2-3.9,4.4-6.6
						c0.1-1.3-0.2-2.6-0.8-3.9l-20.5-41.7c-1.4-2.8-4.1-4.4-7-4.4c-0.3,0-0.5,0-0.8,0c-0.9,0.1-1.8,0.3-2.7,0.8
						C352,120.1,350.4,124.8,352.3,128.7z"/>
					<path class="st20" d="M354.6,205.1c5.9,3.7,6.2,3.1,11.6,5.6l2.2-4.2l18.2-34.9c0.8-1.3,1.1-2.8,1.1-4.2
						c-0.1-2.4-1.4-4.8-3.6-6.1c-3.5-2.1-8-1-10.2,2.4c0,0.1-0.1,0.1-0.1,0.2l-2,4.4L354.6,205.1z"/>
					<path class="st21" d="M352.3,128.7l19.4,39.4l-17.1,36.9c5.9,3.7,6.2,3.1,11.6,5.6l2.2-4.2c-1.3-1.7-3.3-2.8-4.6-4.5
						c-2.8-3.7-1.5-9,0.3-13.2c1.9-4.7,4.2-9.2,6.9-13.4c0.8-1.3,1.7-2.5,2.6-3.7c2.1-2.5,4.6-4.6,7.8-5c-2.7-0.1-5.3-1.3-7.5-3
						c-1-0.8-1.9-1.6-2.7-2.5c-2.6-3-4.3-6.6-6-10.2c-2.2-4.6-4.3-9.2-6.5-13.8c-1.8-3.8-3.6-7.8-3.5-11.9c0.1-2.8,1.2-5.8,3.3-7.6
						c-0.9,0.1-1.8,0.3-2.7,0.8C352,120.1,350.4,124.8,352.3,128.7z"/>
				</g>
			</g>
		</g>
		<g>
			<path d="M251.2,266.6c0.4,0.8,0.2,1.8,0.1,2.7c-0.3,2.3,0.8,4.4,1.3,6.5c0.5,2.3,1,4.5,0.9,6.9c-0.2,3.4-1.6,6.8-3.9,9.4
				c-1.2,1.3-2.6,2.4-4.2,2.9c-1.7,0.5-3.6,0.5-5-0.5c-1.4-0.9-2.3-2.5-2.7-4.1c-0.3-1.4-0.3-2.9-0.3-4.4c0-0.2,0-0.4,0-0.6
				c0.1-3,0.5-6.3,0-9.3c-0.3-2.2-1.1-4.3-1.3-6.5c-0.1-0.9,0-1.8,0.3-2.6c0.1-0.2,0.2-0.4,0.4-0.6c0.3-0.4,0.6-0.8,1-1.2
				c0.7-0.8,1.5-1.6,2.4-2.2c0.3-0.2,4.5-2.3,4.4-2.4c0.5,1.8,2,3.4,3.7,4.2c0.7,0.3,1.6,0.5,2.2,0.9
				C250.7,266,251,266.3,251.2,266.6z"/>
			<path class="st22" d="M251.2,264.9c0.4,0.8,0.2,1.8,0.1,2.7c-0.3,2.3,0.8,4.4,1.3,6.5c0.5,2.3,1,4.5,0.9,6.9
				c-0.2,3.4-1.6,6.8-3.9,9.4c-1.2,1.3-2.6,2.4-4.2,2.9c-1.7,0.5-3.6,0.5-5-0.5c-1.4-0.9-2.3-2.5-2.7-4.1c-0.3-1.4-0.3-2.9-0.3-4.4
				c0-0.2,0-0.4,0-0.6c0.1-3,0.5-6.3,0-9.3c-0.3-2.2-1.1-4.3-1.3-6.5c-0.1-0.9,0-1.8,0.3-2.6c0.1-0.2,0.2-0.4,0.4-0.6
				c0.3-0.4,0.6-0.8,1-1.2c0.7-0.8,1.5-1.6,2.4-2.2c0.3-0.2,4.5-2.3,4.4-2.4c0.5,1.8,2,3.4,3.7,4.2c0.7,0.3,1.6,0.5,2.2,0.9
				C250.7,264.2,251,264.5,251.2,264.9z"/>
			<path d="M211,252.6c0,0,9.7-4.3,10.7,8.5c0.3,3.3-3.9,4.7-5.8,4.9c-0.8,0.1-2-0.1-3.2,0.9c-1.4,1.3-1.9,2.4-2.4,2.9
				c-4.5,5.2-13.3,5.2-16,3c-3.8-3.2,2.3-8.1,8.2-12.7C208.8,255.2,211,252.6,211,252.6z"/>
			<g>
				<path class="st22" d="M210.9,250.7c0,0,9.7-4.3,10.7,8.5c0.3,3.3-3.9,4.7-5.8,4.9c-0.8,0.1-2-0.1-3.2,0.9
					c-1.4,1.3-1.9,2.4-2.4,2.9c-4.5,5.2-13.3,5.2-16,3c-3.8-3.2,2.3-8.1,8.2-12.7C208.8,253.3,210.9,250.7,210.9,250.7z"/>
			</g>
			<g>
				<g>
					<path class="st1" d="M197.2,101.5c0.4,0.2,0.9,0.3,1.3,0.5c2,0.7,4.3,1.1,6.6,0.1c2.2-1,5-4.3,5.8-7.5c0-0.1,0-0.2,0.1-0.2
						c2.1-7.8,4-17.8,5.2-25.5c1-5.9,1.6-10.4,1.8-11.5c0.4-3.6-0.1-6-2.8-7.7c-2.6-1.7-5.8-1.4-8.3,0.9c-0.8,0.8-1.6,1.8-2.3,3
						c-0.7,1.3-1.3,2.5-1.9,3.8c0,0,0,0.1-0.1,0.1c-0.4,0.7-0.7,1.6-1,2.5l0,0c-1.9,5.4-3.1,13.3-4.3,17.3c-0.6,2.2-1.2,4.3-1.6,6.3
						c-0.6,2.8-1,5.4-1.3,7.9c0,0.3-0.1,0.6-0.1,0.9c0.3,2.5,2.3,5.2,3.6,6.8C198.6,99.8,196.6,100.9,197.2,101.5z"/>
				</g>
				<g>
					<path class="st4" d="M216.1,143.9c0.6,1.6,1.7,4.1,2.9,7.1c0.2,0.4,0.3,0.8,0.5,1.2c0.5,1.1,0.9,2.3,1.4,3.6c0.4,1,0.8,2,1.2,3
						c0.5,1.3,1,2.7,1.5,3.9c2.4,6.1,4.3,11.5,4.3,12.5c0.2,5.3,0.5,16.2,0.7,21.3l0,0c0,0.5,0.1,1,0.1,1.3
						c0.2,2.8,1.5,15.7,1.9,18.9c2.5,20,3,41.4,3.9,57.3c0.1,0.1,0.3,0.1,0.4,0.2c0.3,0.1,0.7,0.2,1.1,0.3c0.4,0.1,0.8,0.2,1.3,0.3
						c3,0.5,7.2,0.9,10.9,1c1.2,0,2.3,0,3.3,0c0.3,0,0.5,0,0.8,0c0.8,0,1.5-0.1,2-0.2c0-0.1-0.1-1.6-0.1-3.7c0-3.9,0-10,0.5-12.8
						c0.3-0.9,0.4-1.9,0.5-2.7l0,0c0.5-2.8,0.8-5.7,1.1-9.2c0.6-10.3,0.1-26.7-2.9-38.5c-0.1-0.5-0.2-0.9-0.4-1.4
						c0.1-0.9,0.2-1.9,0.2-2.9c1-13.6,3.2-54.5,2.2-65.3l-2.6,3.5l-0.3,0.6l-0.6,0l-5.5,0.1l0,0.1l-4.6,0.1l-9.5,0.2l-0.1-0.1
						L216.1,143.9z"/>
					<path class="st23" d="M247.9,211.2c1.8-0.8,3.7-1.6,5.5-2.5c-0.1-0.5-0.2-0.9-0.4-1.4c0.1-0.9,0.2-1.9,0.2-2.9
						c-3-0.4-7,0.3-8.9,0.8c1,0.6,5.9,2,6.9,1.1C249.7,207.7,248.6,209.4,247.9,211.2z"/>
					<path class="st23" d="M228.8,172c0.8,2.6,1.3,5.2,1.7,7.9c0.9,6.4,0.9,13,1.4,19.5c1.1,14.1,4.5,28,4.8,42.1
						c0.1,5.8-0.3,11.6,1.2,17.2c1.5,5.6,5.3,11,11,12.3c1.8,0.4,3.7,0.4,5.5,0.9c0,2.1,0.1,3.6,0.1,3.7c-0.5,0.1-1.2,0.2-2,0.2
						c-0.2,0-0.5,0-0.8,0c-1,0-2.1,0-3.3,0c-3.6-0.1-7.9-0.4-10.9-1c-0.5-0.1-0.9-0.2-1.3-0.3c-0.4-0.1-0.8-0.2-1.1-0.3
						c-0.2-0.1-0.3-0.1-0.4-0.2c-1-15.9-1.4-37.3-3.9-57.3c-0.4-3.2-1.8-16.1-1.9-18.9c0-0.4-0.1-0.8-0.1-1.3l0,0
						c-0.3-5-0.5-15.9-0.7-21.3c0-0.3-0.2-1.1-0.6-2.2c0.1-0.3,0.2-0.6,0.2-1L228.8,172z"/>
					<g>
						<path class="st4" d="M202.1,161.3c0-0.8,0.1-1.6,0.1-2.4c0.2-4.5,0.4-8.6,0.6-11.9h25.4c0,1.6,0,3.4-0.1,5.4
							c0,0.4,0,0.7,0,1.1c0,1.8,0,3.8-0.1,5.9c0,3.5-0.1,7.2-0.2,11.2c-0.1,3.9-0.2,8-0.3,12.2c0,0.6,0,1.3-0.1,1.9c0,0,0,0,0,0
							c-0.1,5.1-0.3,10.3-0.6,15.4c-1,21.9-0.2,57.6-4,60c-3.4,2.2-16.2,0.7-19.2-1c-0.5-0.3-0.8-2.9-1-6.9
							c-0.5-11.9,0.3-36.2,0.6-47.7C203.6,195,201.8,169.3,202.1,161.3z"/>
						<path class="st24" d="M207.3,254.4c1.6,1,3.3,2.1,5.1,2.1c1.8,0,3.4-1.2,4.6-2.5c3.3-3.8,4-9.2,4.2-14.2
							c0.2-4.2,0.1-8.4-0.3-12.5c-0.3-3-0.8-6.4-3.2-8.2c-0.3-0.2-0.6-0.4-0.8-0.8c-0.4-0.9,0.6-1.6,1.4-2.2c2.1-1.6,2.9-4.4,3.4-7
							c0.7-3.9,0.9-7.9,1.3-11.9c0.1-1.4,0.8-9.1,1.9-16.4c0.4-0.8,0.8-1.6,1.1-2.4c0.7-1.5,1.5-3,2.2-4.6
							c-0.3,4.8-0.7,10.5-0.7,10.9c0,0,0,0,0,0c-0.1,5.1-0.3,10.3-0.6,15.4c-1,21.9-0.2,57.6-4,60c-3.4,2.2-16.2,0.7-19.2-1
							c-0.5-0.3-0.8-2.9-1-6.9C204.4,252.6,205.9,253.5,207.3,254.4z"/>
						<path class="st10" d="M230.6,171.5c1.8-0.1,2.3-0.3,4.1,0.3c-1.6,0.4-3.2,0.5-4.8,0.3c-0.7-0.1-1.4-0.2-2.1-0.5
							c-0.9-0.4-1.6-1.1-2.4-1.7c-1.8-1.4-3.8-2.2-5.9-2.3c2.1,0.9,4.1,2.1,6,3.7c-2.5,0.1-5,0.1-7.4,0.2c-0.7,0-1.5,0.1-2.1,0.7
							c3.1,1.4,8.1,1.5,11.1,1.7c1.3,0.1,2-3.2,3.1-4c1.7-1.2,5.5-2.5,7.6-2.9C237.7,168.3,232.5,170.6,230.6,171.5z"/>
					</g>
				</g>
				<g>
					<path class="st25" d="M202.8,148.5c0,0,52.4,8.6,52.8,2.6c0.1-1.2,0.1-2.4,0.2-3.5c0-0.3,0-0.6,0-0.9c0.2-8.9-0.6-15.8-1.3-24
						c-0.2-2.5-0.4-5.1-0.6-7.9c-0.1-1.2-0.1-2.5-0.2-3.9c-0.3-7.5,0.5-13.2,1.7-18.1c0.3-1.5,0.7-3,1.1-4.4c0-0.1,0.1-0.3,0.1-0.4
						c0.4-1.3,0.7-2.7,1.1-4c0-0.1,0.1-0.2,0.1-0.3c0.1-0.6,0.3-1.1,0.4-1.7c0.1-0.4,0.2-0.7,0.3-1.1c0.4-1.7,0.8-3.5,1-5.4
						c0-0.2,0.1-0.5,0.1-0.7c0.5-3.5,0.8-6.3,0.7-8.8c-0.1-2.8-0.6-5-1.8-7c-0.4-0.7-1.8-1.5-3.7-2.3c-2.1-0.9-6.3-2.9-9.7-4.3
						c-0.5-0.2-1-0.4-1.5-0.6c-0.9-0.4-1.7-0.6-2.3-0.8c-0.1,0-0.1,0-0.2-0.1c-0.6-0.2-7.3-2-8.7-2.2c-0.9-0.1-1.7-0.3-2.6-0.5
						c-1.8-0.4-3.5-0.7-5.2-0.9h0l-0.7,0l-0.1,0l0,0c-0.5,0-0.9,0-1.4,0c0,0-0.1,0-0.1,0c0,0-0.1,0-0.1,0c-0.2,0-0.5,0-0.7,0.1v0
						c-0.7,0.1-2.1,0.2-3.7,0.4h0c-2.8,0.5-6.2,1.4-8,3.4c-2.5,2.7-3.5,7.8-4,12.6c0,0,0,0,0,0c-0.2,1.8-0.2,3.5-0.3,5.1
						c-0.1,2.8,0,5.2-0.1,6.6c0,0.1,0,0.2,0,0.3c0,0.4,0,0.9,0,1.4c0,2.3,0.1,5.3,0.3,8.7c0.2,3.6,0.4,7.6,0.5,11.9
						c0.1,5.3,0.7,11,0.1,16.6c0,0.3-0.1,0.6-0.1,0.9c-0.2,1.3-0.5,3.6-0.9,6.4C204.3,131.5,202.8,147.7,202.8,148.5z"/>
					<g>
						<path class="st16" d="M234.7,54.7c2.5-0.6,5.2-1.7,5.4-3.2c0.3-2.1,0.5-7.3,0.5-7.3l-15-0.7c0,0,0.1,5.8,0.3,7.6
							C226.2,53.3,230.9,55.5,234.7,54.7z"/>
					</g>
					<g class="st26">
						<path class="st16" d="M225.8,50.2c-0.2-2.3-0.3-6.7-0.3-6.7l15,0.7c0,0,0,0.9-0.1,2.1C236.3,49.8,231.1,50.8,225.8,50.2z"/>
					</g>
					<g>
						<g>
							<path class="st3" d="M223.1,46.4c1.8,1.7,4.3,2.4,7,2.3c3.5-0.1,7.2-1.4,9.8-3.2c2.6-1.8,7.6-9.7,8.7-13
								c0.2-0.6,0.3-1.1,0.5-1.6c2.1-9.2-6.1-12.2-12.1-17.7c-6.3-5.8-15-5.2-16.8,5.7C218.4,29.8,217.6,41.2,223.1,46.4z"/>
							<path class="st27" d="M220.3,18.9C222.1,8,230.7,7.3,237,13.1c6,5.5,14.2,8.5,12.1,17.7c-0.1,0.5-0.3,1.1-0.5,1.6
								c-0.2,0.7-0.7,1.6-1.2,2.7c-2.3-1.7-4.4-4.1-6.5-5.8c-0.8-0.5-3.9,1-4.2-1.1c-0.7-3,0.5-7.2-0.7-8.1
								c-3.6-3.2-11.2-3.7-13.5-0.5c-5.2,7.7-5.9,24.7,5.8,27.5c2.8,0.7,5.5,0.6,8.1,0.2c-2,0.8-4.2,1.3-6.3,1.4
								c-2.7,0.1-5.2-0.6-7-2.3C217.6,41.2,218.4,29.8,220.3,18.9z"/>
							<path class="st19" d="M220.3,18.5c0.6,0.1,0.6-4.6,6.9,2c3.7,3.9,9.1-1.5,10.5,0.7c1.2,2,0.3,2.8-0.5,6
								c-0.4,1.5,3.5,5.2,4.2,5c1.4-0.3-1.2,1.3-0.7,2.4c1.4,2.9,0.3,8.8-0.3,10.3c2.3-1.3,4.5-3.3,5.9-5c0.2-0.3,0.5-0.6,0.7-0.9
								c1-0.9,2-1.9,2.8-3.1c1.7-2.5,3.4-5,4.4-8c4.9-13.8-5.9-16.7-5.9-16.7s-7.2-11.9-19.3-6.9C218.9,8.6,219.3,18.4,220.3,18.5z"
								/>
						</g>
						<path class="st3" d="M237.5,37.1c1.2,1.1,3.7,0.5,5.6-1.5c1.9-2,2.4-4.6,1.1-5.7c-1.2-1.1-3.7-0.5-5.6,1.5
							C236.7,33.4,236.2,35.9,237.5,37.1z"/>
						<path class="st28" d="M239.8,34.9c0.6,0.5,1.8,0,2.5-1c0.8-1,0.9-2.2,0.2-2.7c-0.6-0.5-1.8,0-2.5,1
							C239.3,33.2,239.2,34.5,239.8,34.9z"/>
					</g>
				</g>
			</g>
		</g>
		<g>
			<g>
				<path class="st29" d="M18.4,294.7c0.3,0.8,1.1,1.8,0.7,3.3c-0.4,1.9-1.2,2.9-1.5,3.5c-2.5,6.6,1.8,14.6,5.1,15.9
					c4.5,1.8,6.1-5.2,7.3-12.4c0.1-0.4,0.1-0.8,0.2-1.2c0.3-1.9,0.6-3.5,0.9-4.8c0.9-4.5,1.7-6.4,1.7-6.4s-0.4-4.7-4-6.4
					c-1.8-0.8-4.3-1-8,0.5c-0.3,0.1-0.6,0.3-0.9,0.4C16.8,288.4,17.6,292.9,18.4,294.7z"/>
				<g>
					<path class="st2" d="M66.1,321.2c-0.3,2.8-1.6,5.3-3.4,7.4c-1.5,1.9-1.2,7.7-3.4,8.9c-0.2-0.1-0.4-0.2-0.7-0.4
						c-0.1-0.1-0.3-0.2-0.4-0.3c-2.1-1.6-6.2-5.3-11-9.7c-10.1-9.3-22.9-21.7-25.1-24.1c-1-1.1,2-7.3,4.9-11.5
						c1.5-2.2,3-3.8,3.8-3.8c1.6,0.1,19.3,14.9,32,25.2c1,0.8,1.9,1.6,2.8,2.3C66.2,317.2,66.4,319.2,66.1,321.2z"/>
				</g>
				<g class="st30">
					<path class="st2" d="M66.1,321.2c-0.3,2.8-1.6,5.3-3.4,7.4c-1.5,1.9-1.2,7.7-3.4,8.9c-0.2-0.1-0.4-0.2-0.7-0.4
						c-0.1-0.1-0.3-0.2-0.4-0.3c-2.1-1.6-6.2-5.3-11-9.7c-0.3-0.7-0.5-1.4-0.7-2.1c-0.6-2.9-1.3-5.8-1.8-8.7
						c-0.8-4.5-0.9-9.3-3-13.5c-1.7-3.3-4.8-5.9-7.9-7.9c-0.8-0.5-4.1-2.1-6.8-3.4c1.5-2.2,3-3.8,3.8-3.8c1.6,0.1,19.3,14.9,32,25.2
						c1,0.8,1.9,1.6,2.8,2.3C66.2,317.2,66.4,319.2,66.1,321.2z"/>
				</g>
				<g>
					<g>
						<g>
							<g>
								<path d="M100.2,325.4c0,0-10.1-4.3-10.9,8.9c-0.2,3.4,4.1,4.7,6,4.9c0.8,0.1,2.1-0.1,3.3,0.9c1.5,1.3,2,2.4,2.5,2.9
									c4.7,5.3,13.8,5.2,16.5,2.8c3.9-3.4-2.4-8.3-8.6-13C102.5,328,100.2,325.4,100.2,325.4z"/>
								<path class="st29" d="M95.4,337.2c0.8,0.1,2.1-0.1,3.3,0.9c1.5,1.3,2,2.4,2.5,2.9c4.7,5.3,13.8,5.2,16.5,2.8
									c3.7-3.2-1.8-7.8-7.6-12.2c-0.3-0.3-0.7-0.5-1-0.8c-1.5-1.1-2.8-2.1-3.9-3c-3.5-2.9-4.9-4.4-4.9-4.4s-4.3-1.8-7.5,0.6
									c-1.6,1.2-2.9,3.4-3.3,7.3c0,0.3-0.1,0.7-0.1,1C89.1,335.8,93.4,337.1,95.4,337.2z"/>
							</g>
							<path class="st31" d="M57.8,243.4l5.8,8.6l4.1,6.2l1.5,2.3c0,0,0.3,9.5,0.8,12.3c0.1,0.4,0.2,0.7,0.2,0.7
								c0.2,0.1,1,0.5,2.2,0.9c0.1,0,0.2,0.1,0.3,0.1c0.3,0.1,0.6,0.2,0.9,0.4c0.8,0.3,1.6,0.6,2.6,1c4.7,1.8,11.3,4.2,17.4,6.5
								c7.2,2.7,13.5,5,14.5,5.5c0.2,0.1,1.2-3.4,2.5-2.9c6.8,2.2,15.5,11.8,17.5,7.1c0.5-1.3,5.5-9.7,2.7-16.8
								c-2.6-6.7-23-17.3-37-23.9c-1.8-0.8-3.4-1.6-4.9-2.3c-1.7-0.8-3.3-1.7-4.9-2.6l-4.5-0.5L57.8,243.4z"/>
							<path class="st2" d="M77.1,275.8c1.2,0.3,2.3,0.7,3.5,1.1c2,0.7,4,1.5,6,2.2c4.2,1.4,8.4,3,12.7,4.3c3.2,0.9,6.5,2,9.5,3.5
								c-0.3,0.6-0.5,1.2-0.6,1.1c-2-0.9-23.5-8.7-33.2-12.5C75.4,275.3,76.6,275.7,77.1,275.8z"/>
							<path class="st2" d="M66.7,272.2c1.2,0.5,2.3,1,3.5,1.5c-1.2,0-2.4,0.2-3.5,0.6c-0.2,0.1-0.1,0.4,0.1,0.3
								c1.5-0.3,3-0.4,4.5-0.2c0.3,0,0.6,0.1,1,0.2c0.1,0,0.1,0,0.2,0c0.1,0,0.1,0.1,0.2,0.1c0,0,0,0,0,0c-1.1,0.2-2.3,0.6-3.1,1.4
								c-0.2,0.1,0,0.4,0.2,0.3c1.1-0.5,2.2-0.8,3.3-1c-0.2,0.3,0.1,0.7,0.4,0.8c0-0.4,0-0.8,0-1.2c0.8,0.3,1.6,0.6,2.6,1
								c0.6-0.1,1.3-0.1,1.9-0.2c1,0,2,0,3,0c0.2,0,0.2-0.2,0.1-0.3c-1.2-0.4-2.6-0.6-4-0.6c1.3-0.6,2.6-1.1,4.1-1.3
								c0.3-0.1,0.2-0.4-0.1-0.4c-1.7,0.2-3.3,0.5-4.8,1.1c1-0.9,1.9-1.9,2.7-2.9c0.2-0.2-0.1-0.5-0.3-0.3c-0.9,0.7-1.7,1.4-2.6,2.1
								c-0.6,0.5-1.2,0.9-1.8,1.3c0,0-0.1,0-0.1-0.1c0.1-0.1,0-0.3-0.1-0.4c-0.1-0.1-0.2-0.1-0.3-0.2c-0.3-0.1-0.7-0.1-1-0.1
								c-0.3-0.1-0.7-0.2-0.9-0.3c-0.6-0.2-1.2-0.4-1.7-0.7c-1-0.4-2.1-0.7-3.2-1C66.6,271.8,66.5,272.1,66.7,272.2z"/>
							<path class="st31" d="M130.9,285.3c0,0.1,0,0.1-0.1,0.2c-3.1,7.4-14.6,35.7-19.8,47c0,0.1-20.2-5.1-21-5.6
								c0.8-1.3,11.7-30.1,18.7-47.5c0.4-1,0.8-1.9,1.1-2.8c1.2-0.5,2.3-0.8,3.4-1.1c7.3-1.6,13.2,1,15.9,4.8
								C130.4,281.9,131,283.6,130.9,285.3z"/>
						</g>
					</g>
				</g>
				<g>
					<g>
						<path class="st31" d="M41.5,268.4c5.9,23,4.2,43.9,9.2,58.6c1.2,3.5,3,6.6,5.9,8.8c1.3,1,2.8,1.5,4.4,1.7
							c2.2,0.2,4.6-0.4,6.3-1.8c0.9-0.8,1.6-1.7,2.3-2.7c0.1-0.1,0.1-0.2,0.2-0.4c2.3-4,3.2-35.4,3.7-56.6c0-0.4,0-0.8,0-1.2
							c0-0.4,0-0.7,0-1.1c0.2-7.5,0.3-13.3,0.4-15.8c0-0.2,0-0.4,0-0.6c0.1-2-4.6-3.9-10.5-5.5c-9.5-2.6-22.2-4.5-22.9-5.5
							C40.5,246.4,37.6,253.4,41.5,268.4z"/>
					</g>
				</g>
				<path class="st2" d="M77.1,275.8c1.2,0.3,2.3,0.7,3.5,1.1c2,0.7,4,1.5,6,2.2c4.2,1.4,8.4,3,12.7,4.3c3.2,0.9,6.5,2,9.5,3.5
					c-0.3,0.6-0.5,1.2-0.6,1.1c-2-0.9-23.5-8.7-33.2-12.5C75.4,275.3,76.6,275.7,77.1,275.8z"/>
				<path class="st2" d="M66.7,272.2c1.2,0.5,2.3,1,3.5,1.5c-1.2,0-2.4,0.2-3.5,0.6c-0.2,0.1-0.1,0.4,0.1,0.3c1.5-0.3,3-0.4,4.5-0.2
					c0.3,0,0.6,0.1,1,0.2c0.1,0,0.1,0,0.2,0c0.1,0,0.1,0.1,0.2,0.1c0,0,0,0,0,0c-1.1,0.2-2.3,0.6-3.1,1.4c-0.2,0.1,0,0.4,0.2,0.3
					c1.1-0.5,2.2-0.8,3.3-1c-0.2,0.3,0.1,0.7,0.4,0.8c0-0.4,0-0.8,0-1.2c0.8,0.3,1.6,0.6,2.6,1c0.6-0.1,1.3-0.1,1.9-0.2c1,0,2,0,3,0
					c0.2,0,0.2-0.2,0.1-0.3c-1.2-0.4-2.6-0.6-4-0.6c1.3-0.6,2.6-1.1,4.1-1.3c0.3-0.1,0.2-0.4-0.1-0.4c-1.7,0.2-3.3,0.5-4.8,1.1
					c1-0.9,1.9-1.9,2.7-2.9c0.2-0.2-0.1-0.5-0.3-0.3c-0.9,0.7-1.7,1.4-2.6,2.1c-0.6,0.5-1.2,0.9-1.8,1.3c0,0-0.1,0-0.1-0.1
					c0.1-0.1,0-0.3-0.1-0.4c-0.1-0.1-0.2-0.1-0.3-0.2c-0.3-0.1-0.7-0.1-1-0.1c-0.3-0.1-0.7-0.2-0.9-0.3c-0.6-0.2-1.2-0.4-1.7-0.7
					c-1-0.4-2.1-0.7-3.2-1C66.6,271.8,66.5,272.1,66.7,272.2z"/>
				<path class="st32" d="M41.5,268.4c5.9,23,4.2,43.9,9.2,58.6c1.2,3.5,3,6.6,5.9,8.8c1.3,1,2.8,1.5,4.4,1.7
					c2.2,0.2,4.6-0.4,6.3-1.8c0.9-0.8,1.6-1.7,2.3-2.7c-0.7,0.2-1.4,0.3-2.1,0.4c-3.3,0.3-6.7-1.2-9.1-3.5c-2.4-2.3-4-5.4-5.2-8.6
					c-4.9-13.3-2.5-28.1-4.9-42.1c-1.1-6.1-3-12.1-3.6-18.3c-0.2-1.7,0-3.8,1.5-4.6c0.9-0.4,1.9-0.3,2.8-0.1
					c6.2,1,12.5,1.8,18.7,1.9c2.1,0,4.2,0,6.3-0.2c5.2-0.4,10.3-1.4,15.2-3.4c1.7-0.7,3.6-1.9,4.6-3.3c-1.8-0.8-3.4-1.6-4.9-2.3
					c-1.7-0.8-3.3-1.7-4.9-2.6l-26.3-3.1l5.8,8.6c-9.5-2.6-22.2-4.5-22.9-5.5C40.5,246.4,37.6,253.4,41.5,268.4z"/>
			</g>
		</g>
		<g>
			<polygon class="st33" points="202,229.8 115.4,281 183.1,320 202.8,308.3 202,229.8 			"/>
			<g>
				<polygon class="st34" points="92.7,283.7 115.4,281 202,229.8 179.3,232.5 				"/>
			</g>
			<g>
				<polygon class="st34" points="292.4,271.3 269.7,268.8 202,229.8 224.7,232.3 				"/>
			</g>
			<g>
				<polygon class="st33" points="202,229.8 202.5,308.5 269.7,268.8 				"/>
			</g>
			<g>
				<g>
					<g>
						<g>
							<linearGradient id="SVGID_1_" gradientUnits="userSpaceOnUse" x1="138.1617" y1="302.0298" x2="186.9699" y2="302.0298">
								<stop  offset="0" style="stop-color:#6E39EC"/>
								<stop  offset="1" style="stop-color:#5E7EEC"/>
							</linearGradient>
							<path class="st35" d="M162.8,286.4c-13.5-0.2-24.5,6.6-24.7,15.2c-0.2,8.6,10.7,15.8,24.1,16c13.5,0.2,24.5-6.6,24.7-15.2
								C187.1,293.9,176.3,286.7,162.8,286.4z"/>
							<g>
								<g>
									<path class="st36" d="M162.2,320.7c-16.1-0.3-29-8.9-28.8-19.2c0.2-10.3,13.4-18.4,29.5-18.1c16.1,0.3,29,8.9,28.8,19.2
										C191.6,312.8,178.3,321,162.2,320.7z M162.8,286.4c-13.5-0.2-24.5,6.6-24.7,15.2c-0.2,8.6,10.7,15.8,24.1,16
										c13.5,0.2,24.5-6.6,24.7-15.2C187.1,293.9,176.3,286.7,162.8,286.4z"/>
								</g>
							</g>
							<path class="st37" d="M135.2,301.5c0.2-10.1,12.9-18.1,28.6-18.1c-0.3,0-0.6,0-0.9,0c-16.1-0.3-29.3,7.8-29.5,18.1
								c-0.2,10.3,12.8,18.9,28.8,19.2c0.3,0,0.6,0,0.9,0C147.4,320.1,135,311.6,135.2,301.5z"/>
							<path class="st38" d="M162.8,286.4c-0.3,0-0.5,0-0.8,0c13.1,0.5,23.5,7.6,23.3,16c-0.2,8.4-10.8,15.1-23.9,15.2
								c0.3,0,0.5,0,0.8,0c13.5,0.2,24.5-6.6,24.7-15.2C187.1,293.9,176.3,286.7,162.8,286.4z"/>
						</g>
						<g>
							<path class="st39" d="M191.6,308.6L191.6,308.6l0.2-6c-0.2,10.3-13.4,18.4-29.5,18.1c-16.1-0.3-29-8.9-28.8-19.2
								c0,0-0.1,6.7-0.1,7c-0.2,9.5,12.8,17.4,28.9,17.7c16.1,0.3,29.3-7.2,29.5-16.7C191.6,309.2,191.6,308.9,191.6,308.6z"/>
						</g>
					</g>
					<path class="st5" d="M173.5,300.8c-0.1,0-0.1,0-0.2,0c-2.6,0.1-5.1-0.5-7.1-1.5l1.8-5.3l7.9-0.3L173.5,300.8z M172.4,303.9
						c-0.2,0-0.3,0-0.5,0c-5.9,0.2-10.1,3.8-9.4,8c0.1,0.7,0.4,1.3,0.7,1.9l5.8-0.2l0,0h0L172.4,303.9z M157.1,308.5
						c2.2-1.6,3.3-3.8,2.9-6.2c-0.1-0.7-0.4-1.3-0.7-1.9l-1.3-1.7c-2.4-2.5-6.5-4.1-10.9-3.9c-0.1,0-0.1,0-0.2,0L157.1,308.5z"/>
				</g>
				<g>
					<g>
						<g>
							<linearGradient id="SVGID_2_" gradientUnits="userSpaceOnUse" x1="138.1617" y1="291.5634" x2="186.9699" y2="291.5634">
								<stop  offset="0" style="stop-color:#6E39EC"/>
								<stop  offset="1" style="stop-color:#5E7EEC"/>
							</linearGradient>
							<path class="st40" d="M162.8,276c-13.5-0.2-24.5,6.6-24.7,15.2c-0.2,8.6,10.7,15.8,24.1,16c13.5,0.2,24.5-6.6,24.7-15.2
								C187.1,283.4,176.3,276.2,162.8,276z"/>
							<g>
								<g>
									<path class="st36" d="M162.2,310.2c-16.1-0.3-29-8.9-28.8-19.2c0.2-10.3,13.4-18.4,29.5-18.1c16.1,0.3,29,8.9,28.8,19.2
										C191.6,302.4,178.3,310.5,162.2,310.2z M162.8,276c-13.5-0.2-24.5,6.6-24.7,15.2c-0.2,8.6,10.7,15.8,24.1,16
										c13.5,0.2,24.5-6.6,24.7-15.2C187.1,283.4,176.3,276.2,162.8,276z"/>
								</g>
							</g>
							<path class="st37" d="M135.2,291.1c0.2-10.1,12.9-18.1,28.6-18.1c-0.3,0-0.6,0-0.9,0c-16.1-0.3-29.3,7.8-29.5,18.1
								c-0.2,10.3,12.8,18.9,28.8,19.2c0.3,0,0.6,0,0.9,0C147.4,309.6,135,301.2,135.2,291.1z"/>
							<path class="st38" d="M162.8,276c-0.3,0-0.5,0-0.8,0c13.1,0.5,23.5,7.6,23.3,16c-0.2,8.4-10.8,15.1-23.9,15.2
								c0.3,0,0.5,0,0.8,0c13.5,0.2,24.5-6.6,24.7-15.2C187.1,283.4,176.3,276.2,162.8,276z"/>
						</g>
						<g>
							<path class="st39" d="M191.6,298.1L191.6,298.1l0.2-6c-0.2,10.3-13.4,18.4-29.5,18.1c-16.1-0.3-29-8.9-28.8-19.2
								c0,0-0.1,6.7-0.1,7c-0.2,9.5,12.8,17.4,28.9,17.7c16.1,0.3,29.3-7.2,29.5-16.7C191.6,298.8,191.6,298.4,191.6,298.1z"/>
						</g>
					</g>
					<path class="st5" d="M173.5,290.3c-0.1,0-0.1,0-0.2,0c-2.6,0.1-5.1-0.5-7.1-1.5l1.8-5.3l7.9-0.3L173.5,290.3z M172.4,293.4
						c-0.2,0-0.3,0-0.5,0c-5.9,0.2-10.1,3.8-9.4,8c0.1,0.7,0.4,1.3,0.7,1.9l5.8-0.2l0,0l0,0L172.4,293.4z M157.1,298
						c2.2-1.6,3.3-3.8,2.9-6.2c-0.1-0.7-0.4-1.3-0.7-1.9l-1.3-1.7c-2.4-2.5-6.5-4.1-10.9-3.9c-0.1,0-0.1,0-0.2,0L157.1,298z"/>
				</g>
				<g>
					<g>
						<g>
							<linearGradient id="SVGID_3_" gradientUnits="userSpaceOnUse" x1="138.1617" y1="280.8879" x2="186.9699" y2="280.8879">
								<stop  offset="0" style="stop-color:#6E39EC"/>
								<stop  offset="1" style="stop-color:#5E7EEC"/>
							</linearGradient>
							<path class="st41" d="M162.8,265.3c-13.5-0.2-24.5,6.6-24.7,15.2c-0.2,8.6,10.7,15.8,24.1,16c13.5,0.2,24.5-6.6,24.7-15.2
								C187.1,272.7,176.3,265.5,162.8,265.3z"/>
							<g>
								<g>
									<path class="st36" d="M162.2,299.5c-16.1-0.3-29-8.9-28.8-19.2s13.4-18.4,29.5-18.1c16.1,0.3,29,8.9,28.8,19.2
										C191.6,291.7,178.3,299.8,162.2,299.5z M162.8,265.3c-13.5-0.2-24.5,6.6-24.7,15.2c-0.2,8.6,10.7,15.8,24.1,16
										c13.5,0.2,24.5-6.6,24.7-15.2C187.1,272.7,176.3,265.5,162.8,265.3z"/>
								</g>
							</g>
							<path class="st37" d="M135.2,280.4c0.2-10.1,12.9-18.1,28.6-18.1c-0.3,0-0.6,0-0.9,0c-16.1-0.3-29.3,7.8-29.5,18.1
								s12.8,18.9,28.8,19.2c0.3,0,0.6,0,0.9,0C147.4,299,135,290.5,135.2,280.4z"/>
							<path class="st38" d="M162.8,265.3c-0.3,0-0.5,0-0.8,0c13.1,0.5,23.5,7.6,23.3,16c-0.2,8.4-10.8,15.1-23.9,15.2
								c0.3,0,0.5,0,0.8,0c13.5,0.2,24.5-6.6,24.7-15.2C187.1,272.7,176.3,265.5,162.8,265.3z"/>
						</g>
						<g>
							<path class="st39" d="M191.6,287.5L191.6,287.5l0.2-6c-0.2,10.3-13.4,18.4-29.5,18.1c-16.1-0.3-29-8.9-28.8-19.2
								c0,0-0.1,6.7-0.1,7c-0.2,9.5,12.8,17.4,28.9,17.7c16.1,0.3,29.3-7.2,29.5-16.7C191.6,288.1,191.6,287.8,191.6,287.5z"/>
						</g>
					</g>
					<path class="st5" d="M173.5,279.6c-0.1,0-0.1,0-0.2,0c-2.6,0.1-5.1-0.5-7.1-1.5l1.8-5.3l7.9-0.3L173.5,279.6z M172.4,282.8
						c-0.2,0-0.3,0-0.5,0c-5.9,0.2-10.1,3.8-9.4,8c0.1,0.7,0.4,1.3,0.7,1.9l5.8-0.2l0,0l0,0L172.4,282.8z M157.1,287.3
						c2.2-1.6,3.3-3.8,2.9-6.2c-0.1-0.7-0.4-1.3-0.7-1.9l-1.3-1.7c-2.4-2.5-6.5-4.1-10.9-3.9c-0.1,0-0.1,0-0.2,0L157.1,287.3z"/>
				</g>
				<g>
					<g>
						<g>
							<linearGradient id="SVGID_4_" gradientUnits="userSpaceOnUse" x1="138.1617" y1="269.9965" x2="186.9699" y2="269.9965">
								<stop  offset="0" style="stop-color:#6E39EC"/>
								<stop  offset="1" style="stop-color:#5E7EEC"/>
							</linearGradient>
							<path class="st42" d="M162.8,254.4c-13.5-0.2-24.5,6.6-24.7,15.2c-0.2,8.6,10.7,15.8,24.1,16c13.5,0.2,24.5-6.6,24.7-15.2
								C187.1,261.8,176.3,254.6,162.8,254.4z"/>
							<g>
								<g>
									<path class="st36" d="M162.2,288.6c-16.1-0.3-29-8.9-28.8-19.2c0.2-10.3,13.4-18.4,29.5-18.1c16.1,0.3,29,8.9,28.8,19.2
										C191.6,280.8,178.3,288.9,162.2,288.6z M162.8,254.4c-13.5-0.2-24.5,6.6-24.7,15.2c-0.2,8.6,10.7,15.8,24.1,16
										c13.5,0.2,24.5-6.6,24.7-15.2C187.1,261.8,176.3,254.6,162.8,254.4z"/>
								</g>
							</g>
							<path class="st37" d="M135.2,269.5c0.2-10.1,12.9-18.1,28.6-18.1c-0.3,0-0.6,0-0.9,0c-16.1-0.3-29.3,7.8-29.5,18.1
								c-0.2,10.3,12.8,18.9,28.8,19.2c0.3,0,0.6,0,0.9,0C147.4,288.1,135,279.6,135.2,269.5z"/>
							<path class="st38" d="M162.8,254.4c-0.3,0-0.5,0-0.8,0c13.1,0.5,23.5,7.6,23.3,16c-0.2,8.4-10.8,15.1-23.9,15.2
								c0.3,0,0.5,0,0.8,0c13.5,0.2,24.5-6.6,24.7-15.2C187.1,261.8,176.3,254.6,162.8,254.4z"/>
						</g>
						<g>
							<path class="st39" d="M191.6,276.6L191.6,276.6l0.2-6c-0.2,10.3-13.4,18.4-29.5,18.1c-16.1-0.3-29-8.9-28.8-19.2
								c0,0-0.1,6.7-0.1,7c-0.2,9.5,12.8,17.4,28.9,17.7c16.1,0.3,29.3-7.2,29.5-16.7C191.6,277.2,191.6,276.9,191.6,276.6z"/>
						</g>
					</g>
					<path class="st5" d="M173.5,268.7c-0.1,0-0.1,0-0.2,0c-2.6,0.1-5.1-0.5-7.1-1.5l1.8-5.3l7.9-0.3L173.5,268.7z M172.4,271.9
						c-0.2,0-0.3,0-0.5,0c-5.9,0.2-10.1,3.8-9.4,8c0.1,0.7,0.4,1.3,0.7,1.9l5.8-0.2l0,0h0L172.4,271.9z M157.1,276.4
						c2.2-1.6,3.3-3.8,2.9-6.2c-0.1-0.7-0.4-1.3-0.7-1.9l-1.3-1.7c-2.4-2.5-6.5-4.1-10.9-3.9c-0.1,0-0.1,0-0.2,0L157.1,276.4z"/>
				</g>
				<g>
					<g>
						<g>
							<linearGradient id="SVGID_5_" gradientUnits="userSpaceOnUse" x1="188.3626" y1="305.4128" x2="237.1707" y2="305.4128">
								<stop  offset="0" style="stop-color:#6E39EC"/>
								<stop  offset="1" style="stop-color:#5E7EEC"/>
							</linearGradient>
							<path class="st43" d="M213,289.8c-13.5-0.2-24.5,6.6-24.7,15.2c-0.2,8.6,10.7,15.8,24.1,16s24.5-6.6,24.7-15.2
								C237.3,297.3,226.5,290.1,213,289.8z"/>
							<g>
								<g>
									<path class="st36" d="M212.4,324.1c-16.1-0.3-29-8.9-28.8-19.2c0.2-10.3,13.4-18.4,29.5-18.1c16.1,0.3,29,8.9,28.8,19.2
										C241.8,316.2,228.5,324.4,212.4,324.1z M213,289.8c-13.5-0.2-24.5,6.6-24.7,15.2c-0.2,8.6,10.7,15.8,24.1,16
										s24.5-6.6,24.7-15.2C237.3,297.3,226.5,290.1,213,289.8z"/>
								</g>
							</g>
							<path class="st37" d="M185.4,304.9c0.2-10.1,12.9-18.1,28.6-18.1c-0.3,0-0.6,0-0.9,0c-16.1-0.3-29.3,7.8-29.5,18.1
								c-0.2,10.3,12.8,18.9,28.8,19.2c0.3,0,0.6,0,0.9,0C197.6,323.5,185.2,315,185.4,304.9z"/>
							<path class="st38" d="M213,289.8c-0.3,0-0.5,0-0.8,0c13.1,0.5,23.5,7.6,23.3,16c-0.2,8.4-10.8,15.1-23.9,15.2
								c0.3,0,0.5,0,0.8,0c13.5,0.2,24.5-6.6,24.7-15.2C237.3,297.3,226.5,290.1,213,289.8z"/>
						</g>
						<g>
							<path class="st39" d="M241.8,312L241.8,312l0.2-6c-0.2,10.3-13.4,18.4-29.5,18.1c-16.1-0.3-29-8.9-28.8-19.2
								c0,0-0.1,6.7-0.1,7c-0.2,9.5,12.8,17.4,28.9,17.7c16.1,0.3,29.3-7.2,29.5-16.7C241.8,312.6,241.8,312.3,241.8,312z"/>
						</g>
					</g>
					<path class="st5" d="M223.7,304.1c-0.1,0-0.1,0-0.2,0c-2.6,0.1-5.1-0.5-7.1-1.5l1.8-5.3l7.9-0.3L223.7,304.1z M222.6,307.3
						c-0.2,0-0.3,0-0.5,0c-5.9,0.2-10.1,3.8-9.4,8c0.1,0.7,0.4,1.3,0.7,1.9l5.8-0.2l0,0l0,0L222.6,307.3z M207.3,311.8
						c2.2-1.6,3.3-3.8,2.9-6.2c-0.1-0.7-0.4-1.3-0.7-1.9l-1.3-1.7c-2.4-2.5-6.5-4.1-10.9-3.9c-0.1,0-0.1,0-0.2,0L207.3,311.8z"/>
				</g>
				<g>
					<g>
						<g>
							<linearGradient id="SVGID_6_" gradientUnits="userSpaceOnUse" x1="188.3626" y1="294.9465" x2="237.1707" y2="294.9465">
								<stop  offset="0" style="stop-color:#6E39EC"/>
								<stop  offset="1" style="stop-color:#5E7EEC"/>
							</linearGradient>
							<path class="st44" d="M213,279.4c-13.5-0.2-24.5,6.6-24.7,15.2c-0.2,8.6,10.7,15.8,24.1,16s24.5-6.6,24.7-15.2
								C237.3,286.8,226.5,279.6,213,279.4z"/>
							<g>
								<g>
									<path class="st36" d="M212.4,313.6c-16.1-0.3-29-8.9-28.8-19.2s13.4-18.4,29.5-18.1c16.1,0.3,29,8.9,28.8,19.2
										C241.8,305.8,228.5,313.9,212.4,313.6z M213,279.4c-13.5-0.2-24.5,6.6-24.7,15.2c-0.2,8.6,10.7,15.8,24.1,16
										s24.5-6.6,24.7-15.2C237.3,286.8,226.5,279.6,213,279.4z"/>
								</g>
							</g>
							<path class="st37" d="M185.4,294.5c0.2-10.1,12.9-18.1,28.6-18.1c-0.3,0-0.6,0-0.9,0c-16.1-0.3-29.3,7.8-29.5,18.1
								s12.8,18.9,28.8,19.2c0.3,0,0.6,0,0.9,0C197.6,313,185.2,304.5,185.4,294.5z"/>
							<path class="st38" d="M213,279.4c-0.3,0-0.5,0-0.8,0c13.1,0.5,23.5,7.6,23.3,16c-0.2,8.4-10.8,15.1-23.9,15.2
								c0.3,0,0.5,0,0.8,0c13.5,0.2,24.5-6.6,24.7-15.2C237.3,286.8,226.5,279.6,213,279.4z"/>
						</g>
						<g>
							<path class="st39" d="M241.8,301.5L241.8,301.5l0.2-6c-0.2,10.3-13.4,18.4-29.5,18.1s-29-8.9-28.8-19.2c0,0-0.1,6.7-0.1,7
								c-0.2,9.5,12.8,17.4,28.9,17.7s29.3-7.2,29.5-16.7C241.8,302.1,241.8,301.8,241.8,301.5z"/>
						</g>
					</g>
					<path class="st5" d="M223.7,293.7c-0.1,0-0.1,0-0.2,0c-2.6,0.1-5.1-0.5-7.1-1.5l1.8-5.3l7.9-0.3L223.7,293.7z M222.6,296.8
						c-0.2,0-0.3,0-0.5,0c-5.9,0.2-10.1,3.8-9.4,8c0.1,0.7,0.4,1.3,0.7,1.9l5.8-0.2l0,0l0,0L222.6,296.8z M207.3,301.4
						c2.2-1.6,3.3-3.8,2.9-6.2c-0.1-0.7-0.4-1.3-0.7-1.9l-1.3-1.7c-2.4-2.5-6.5-4.1-10.9-3.9c-0.1,0-0.1,0-0.2,0L207.3,301.4z"/>
				</g>
				<g>
					<g>
						<g>
							<linearGradient id="SVGID_7_" gradientUnits="userSpaceOnUse" x1="188.3626" y1="284.2709" x2="237.1707" y2="284.2709">
								<stop  offset="0" style="stop-color:#6E39EC"/>
								<stop  offset="1" style="stop-color:#5E7EEC"/>
							</linearGradient>
							<path class="st45" d="M213,268.7c-13.5-0.2-24.5,6.6-24.7,15.2c-0.2,8.6,10.7,15.8,24.1,16c13.5,0.2,24.5-6.6,24.7-15.2
								C237.3,276.1,226.5,268.9,213,268.7z"/>
							<g>
								<g>
									<path class="st36" d="M212.4,302.9c-16.1-0.3-29-8.9-28.8-19.2c0.2-10.3,13.4-18.4,29.5-18.1c16.1,0.3,29,8.9,28.8,19.2
										C241.8,295.1,228.5,303.2,212.4,302.9z M213,268.7c-13.5-0.2-24.5,6.6-24.7,15.2c-0.2,8.6,10.7,15.8,24.1,16
										c13.5,0.2,24.5-6.6,24.7-15.2C237.3,276.1,226.5,268.9,213,268.7z"/>
								</g>
							</g>
							<path class="st37" d="M185.4,283.8c0.2-10.1,12.9-18.1,28.6-18.1c-0.3,0-0.6,0-0.9,0c-16.1-0.3-29.3,7.8-29.5,18.1
								c-0.2,10.3,12.8,18.9,28.8,19.2c0.3,0,0.6,0,0.9,0C197.6,302.3,185.2,293.9,185.4,283.8z"/>
							<path class="st38" d="M213,268.7c-0.3,0-0.5,0-0.8,0c13.1,0.5,23.5,7.6,23.3,16c-0.2,8.4-10.8,15.1-23.9,15.2
								c0.3,0,0.5,0,0.8,0c13.5,0.2,24.5-6.6,24.7-15.2C237.3,276.1,226.5,268.9,213,268.7z"/>
						</g>
						<g>
							<path class="st39" d="M241.8,290.8L241.8,290.8l0.2-6c-0.2,10.3-13.4,18.4-29.5,18.1c-16.1-0.3-29-8.9-28.8-19.2
								c0,0-0.1,6.7-0.1,7c-0.2,9.5,12.8,17.4,28.9,17.7c16.1,0.3,29.3-7.2,29.5-16.7C241.8,291.5,241.8,291.2,241.8,290.8z"/>
						</g>
					</g>
					<path class="st5" d="M223.7,283c-0.1,0-0.1,0-0.2,0c-2.6,0.1-5.1-0.5-7.1-1.5l1.8-5.3l7.9-0.3L223.7,283z M222.6,286.2
						c-0.2,0-0.3,0-0.5,0c-5.9,0.2-10.1,3.8-9.4,8c0.1,0.7,0.4,1.3,0.7,1.9l5.8-0.2l0,0h0L222.6,286.2z M207.3,290.7
						c2.2-1.6,3.3-3.8,2.9-6.2c-0.1-0.7-0.4-1.3-0.7-1.9l-1.3-1.7c-2.4-2.5-6.5-4.1-10.9-3.9c-0.1,0-0.1,0-0.2,0L207.3,290.7z"/>
				</g>
				<g>
					<g>
						<g>
							<linearGradient id="SVGID_8_" gradientUnits="userSpaceOnUse" x1="188.3626" y1="273.3795" x2="237.1707" y2="273.3795">
								<stop  offset="0" style="stop-color:#6E39EC"/>
								<stop  offset="1" style="stop-color:#5E7EEC"/>
							</linearGradient>
							<path class="st46" d="M213,257.8c-13.5-0.2-24.5,6.6-24.7,15.2c-0.2,8.6,10.7,15.8,24.1,16s24.5-6.6,24.7-15.2
								C237.3,265.2,226.5,258,213,257.8z"/>
							<g>
								<g>
									<path class="st36" d="M212.4,292c-16.1-0.3-29-8.9-28.8-19.2c0.2-10.3,13.4-18.4,29.5-18.1c16.1,0.3,29,8.9,28.8,19.2
										C241.8,284.2,228.5,292.3,212.4,292z M213,257.8c-13.5-0.2-24.5,6.6-24.7,15.2c-0.2,8.6,10.7,15.8,24.1,16
										s24.5-6.6,24.7-15.2C237.3,265.2,226.5,258,213,257.8z"/>
								</g>
							</g>
							<path class="st37" d="M185.4,272.9c0.2-10.1,12.9-18.1,28.6-18.1c-0.3,0-0.6,0-0.9,0c-16.1-0.3-29.3,7.8-29.5,18.1
								c-0.2,10.3,12.8,18.9,28.8,19.2c0.3,0,0.6,0,0.9,0C197.6,291.5,185.2,283,185.4,272.9z"/>
							<path class="st38" d="M213,257.8c-0.3,0-0.5,0-0.8,0c13.1,0.5,23.5,7.6,23.3,16c-0.2,8.4-10.8,15.1-23.9,15.2
								c0.3,0,0.5,0,0.8,0c13.5,0.2,24.5-6.6,24.7-15.2C237.3,265.2,226.5,258,213,257.8z"/>
						</g>
						<g>
							<path class="st39" d="M241.8,280L241.8,280l0.2-6c-0.2,10.3-13.4,18.4-29.5,18.1c-16.1-0.3-29-8.9-28.8-19.2
								c0,0-0.1,6.7-0.1,7c-0.2,9.5,12.8,17.4,28.9,17.7c16.1,0.3,29.3-7.2,29.5-16.7C241.8,280.6,241.8,280.3,241.8,280z"/>
						</g>
					</g>
					<path class="st5" d="M223.7,272.1c-0.1,0-0.1,0-0.2,0c-2.6,0.1-5.1-0.5-7.1-1.5l1.8-5.3l7.9-0.3L223.7,272.1z M222.6,275.3
						c-0.2,0-0.3,0-0.5,0c-5.9,0.2-10.1,3.8-9.4,8c0.1,0.7,0.4,1.3,0.7,1.9l5.8-0.2l0,0l0,0L222.6,275.3z M207.3,279.8
						c2.2-1.6,3.3-3.8,2.9-6.2c-0.1-0.7-0.4-1.3-0.7-1.9l-1.3-1.7c-2.4-2.5-6.5-4.1-10.9-3.9c-0.1,0-0.1,0-0.2,0L207.3,279.8z"/>
				</g>
				<g>
					<g>
						<g>
							<linearGradient id="SVGID_9_" gradientUnits="userSpaceOnUse" x1="188.3626" y1="262.9132" x2="237.1707" y2="262.9132">
								<stop  offset="0" style="stop-color:#6E39EC"/>
								<stop  offset="1" style="stop-color:#5E7EEC"/>
							</linearGradient>
							<path class="st47" d="M213,247.3c-13.5-0.2-24.5,6.6-24.7,15.2c-0.2,8.6,10.7,15.8,24.1,16s24.5-6.6,24.7-15.2
								C237.3,254.8,226.5,247.6,213,247.3z"/>
							<g>
								<g>
									<path class="st36" d="M212.4,281.6c-16.1-0.3-29-8.9-28.8-19.2c0.2-10.3,13.4-18.4,29.5-18.1c16.1,0.3,29,8.9,28.8,19.2
										C241.8,273.7,228.5,281.9,212.4,281.6z M213,247.3c-13.5-0.2-24.5,6.6-24.7,15.2c-0.2,8.6,10.7,15.8,24.1,16
										s24.5-6.6,24.7-15.2C237.3,254.8,226.5,247.6,213,247.3z"/>
								</g>
							</g>
							<path class="st37" d="M185.4,262.4c0.2-10.1,12.9-18.1,28.6-18.1c-0.3,0-0.6,0-0.9,0c-16.1-0.3-29.3,7.8-29.5,18.1
								c-0.2,10.3,12.8,18.9,28.8,19.2c0.3,0,0.6,0,0.9,0C197.6,281,185.2,272.5,185.4,262.4z"/>
							<path class="st38" d="M213,247.3c-0.3,0-0.5,0-0.8,0c13.1,0.5,23.5,7.6,23.3,16c-0.2,8.4-10.8,15.1-23.9,15.2
								c0.3,0,0.5,0,0.8,0c13.5,0.2,24.5-6.6,24.7-15.2C237.3,254.8,226.5,247.6,213,247.3z"/>
						</g>
						<g>
							<path class="st39" d="M241.8,269.5L241.8,269.5l0.2-6c-0.2,10.3-13.4,18.4-29.5,18.1c-16.1-0.3-29-8.9-28.8-19.2
								c0,0-0.1,6.7-0.1,7c-0.2,9.5,12.8,17.4,28.9,17.7c16.1,0.3,29.3-7.2,29.5-16.7C241.8,270.1,241.8,269.8,241.8,269.5z"/>
						</g>
					</g>
					<path class="st5" d="M223.7,261.6c-0.1,0-0.1,0-0.2,0c-2.6,0.1-5.1-0.5-7.1-1.5l1.8-5.3l7.9-0.3L223.7,261.6z M222.6,264.8
						c-0.2,0-0.3,0-0.5,0c-5.9,0.2-10.1,3.8-9.4,8c0.1,0.7,0.4,1.3,0.7,1.9l5.8-0.2l0,0l0,0L222.6,264.8z M207.3,269.3
						c2.2-1.6,3.3-3.8,2.9-6.2c-0.1-0.7-0.4-1.3-0.7-1.9l-1.3-1.7c-2.4-2.5-6.5-4.1-10.9-3.9c-0.1,0-0.1,0-0.2,0L207.3,269.3z"/>
				</g>
				<g>
					<g>
						<g>
							<linearGradient id="SVGID_10_" gradientUnits="userSpaceOnUse" x1="188.3626" y1="252.2377" x2="237.1707" y2="252.2377">
								<stop  offset="0" style="stop-color:#6E39EC"/>
								<stop  offset="1" style="stop-color:#5E7EEC"/>
							</linearGradient>
							<path class="st48" d="M213,236.6c-13.5-0.2-24.5,6.6-24.7,15.2c-0.2,8.6,10.7,15.8,24.1,16c13.5,0.2,24.5-6.6,24.7-15.2
								C237.3,244.1,226.5,236.9,213,236.6z"/>
							<g>
								<g>
									<path class="st36" d="M212.4,270.9c-16.1-0.3-29-8.9-28.8-19.2s13.4-18.4,29.5-18.1c16.1,0.3,29,8.9,28.8,19.2
										C241.8,263.1,228.5,271.2,212.4,270.9z M213,236.6c-13.5-0.2-24.5,6.6-24.7,15.2c-0.2,8.6,10.7,15.8,24.1,16
										c13.5,0.2,24.5-6.6,24.7-15.2C237.3,244.1,226.5,236.9,213,236.6z"/>
								</g>
							</g>
							<path class="st37" d="M185.4,251.7c0.2-10.1,12.9-18.1,28.6-18.1c-0.3,0-0.6,0-0.9,0c-16.1-0.3-29.3,7.8-29.5,18.1
								s12.8,18.9,28.8,19.2c0.3,0,0.6,0,0.9,0C197.6,270.3,185.2,261.8,185.4,251.7z"/>
							<path class="st38" d="M213,236.6c-0.3,0-0.5,0-0.8,0c13.1,0.5,23.5,7.6,23.3,16c-0.2,8.4-10.8,15.1-23.9,15.2
								c0.3,0,0.5,0,0.8,0c13.5,0.2,24.5-6.6,24.7-15.2C237.3,244.1,226.5,236.9,213,236.6z"/>
						</g>
						<g>
							<path class="st39" d="M241.8,258.8L241.8,258.8l0.2-6c-0.2,10.3-13.4,18.4-29.5,18.1c-16.1-0.3-29-8.9-28.8-19.2
								c0,0-0.1,6.7-0.1,7c-0.2,9.5,12.8,17.4,28.9,17.7c16.1,0.3,29.3-7.2,29.5-16.7C241.8,259.4,241.8,259.1,241.8,258.8z"/>
						</g>
					</g>
					<path class="st5" d="M223.7,251c-0.1,0-0.1,0-0.2,0c-2.6,0.1-5.1-0.5-7.1-1.5l1.8-5.3l7.9-0.3L223.7,251z M222.6,254.1
						c-0.2,0-0.3,0-0.5,0c-5.9,0.2-10.1,3.8-9.4,8c0.1,0.7,0.4,1.3,0.7,1.9l5.8-0.2l0,0l0,0L222.6,254.1z M207.3,258.7
						c2.2-1.6,3.3-3.8,2.9-6.2c-0.1-0.7-0.4-1.3-0.7-1.9l-1.3-1.7c-2.4-2.5-6.5-4.1-10.9-3.9c-0.1,0-0.1,0-0.2,0L207.3,258.7z"/>
				</g>
				<g>
					<g>
						<g>
							<linearGradient id="SVGID_11_" gradientUnits="userSpaceOnUse" x1="156.1062" y1="333.082" x2="204.9144" y2="333.082">
								<stop  offset="0" style="stop-color:#6E39EC"/>
								<stop  offset="1" style="stop-color:#5E7EEC"/>
							</linearGradient>
							<path class="st49" d="M180.8,317.5c-13.5-0.2-24.5,6.6-24.7,15.2c-0.2,8.6,10.7,15.8,24.1,16c13.5,0.2,24.5-6.6,24.7-15.2
								C205.1,324.9,194.2,317.7,180.8,317.5z"/>
							<g>
								<g>
									<path class="st36" d="M180.2,351.7c-16.1-0.3-29-8.9-28.8-19.2c0.2-10.3,13.4-18.4,29.5-18.1c16.1,0.3,29,8.9,28.8,19.2
										C209.5,343.9,196.3,352,180.2,351.7z M180.8,317.5c-13.5-0.2-24.5,6.6-24.7,15.2c-0.2,8.6,10.7,15.8,24.1,16
										c13.5,0.2,24.5-6.6,24.7-15.2C205.1,324.9,194.2,317.7,180.8,317.5z"/>
								</g>
							</g>
							<path class="st37" d="M153.1,332.6c0.2-10.1,12.9-18.1,28.6-18.1c-0.3,0-0.6,0-0.9,0c-16.1-0.3-29.3,7.8-29.5,18.1
								c-0.2,10.3,12.8,18.9,28.8,19.2c0.3,0,0.6,0,0.9,0C165.4,351.2,152.9,342.7,153.1,332.6z"/>
							<path class="st38" d="M180.8,317.5c-0.3,0-0.5,0-0.8,0c13.1,0.5,23.5,7.6,23.3,16s-10.8,15.1-23.9,15.2c0.3,0,0.5,0,0.8,0
								c13.5,0.2,24.5-6.6,24.7-15.2C205.1,324.9,194.2,317.7,180.8,317.5z"/>
						</g>
						<g>
							<path class="st39" d="M209.5,339.7L209.5,339.7l0.2-6c-0.2,10.3-13.4,18.4-29.5,18.1c-16.1-0.3-29-8.9-28.8-19.2
								c0,0-0.1,6.7-0.1,7C151,349,164,357,180.1,357.2c16.1,0.3,29.3-7.2,29.5-16.7C209.6,340.3,209.6,340,209.5,339.7z"/>
						</g>
					</g>
					<path class="st5" d="M191.4,331.8c-0.1,0-0.1,0-0.2,0c-2.6,0.1-5.1-0.5-7.1-1.5l1.8-5.3l7.9-0.3L191.4,331.8z M190.4,335
						c-0.2,0-0.3,0-0.5,0c-5.9,0.2-10.1,3.8-9.4,8c0.1,0.7,0.4,1.3,0.7,1.9l5.8-0.2l0,0l0,0L190.4,335z M175,339.5
						c2.2-1.6,3.3-3.8,2.9-6.2c-0.1-0.7-0.4-1.3-0.7-1.9l-1.3-1.7c-2.4-2.5-6.5-4.1-10.9-3.9c-0.1,0-0.1,0-0.2,0L175,339.5z"/>
				</g>
				<g>
					<g>
						<g>
							<linearGradient id="SVGID_12_" gradientUnits="userSpaceOnUse" x1="156.1062" y1="322.6157" x2="204.9144" y2="322.6157">
								<stop  offset="0" style="stop-color:#6E39EC"/>
								<stop  offset="1" style="stop-color:#5E7EEC"/>
							</linearGradient>
							<path class="st50" d="M180.8,307c-13.5-0.2-24.5,6.6-24.7,15.2c-0.2,8.6,10.7,15.8,24.1,16c13.5,0.2,24.5-6.6,24.7-15.2
								C205.1,314.5,194.2,307.3,180.8,307z"/>
							<g>
								<g>
									<path class="st36" d="M180.2,341.3c-16.1-0.3-29-8.9-28.8-19.2c0.2-10.3,13.4-18.4,29.5-18.1c16.1,0.3,29,8.9,28.8,19.2
										C209.5,333.4,196.3,341.6,180.2,341.3z M180.8,307c-13.5-0.2-24.5,6.6-24.7,15.2c-0.2,8.6,10.7,15.8,24.1,16
										c13.5,0.2,24.5-6.6,24.7-15.2C205.1,314.5,194.2,307.3,180.8,307z"/>
								</g>
							</g>
							<path class="st37" d="M153.1,322.1C153.3,312,166,304,181.7,304c-0.3,0-0.6,0-0.9,0c-16.1-0.3-29.3,7.8-29.5,18.1
								c-0.2,10.3,12.8,18.9,28.8,19.2c0.3,0,0.6,0,0.9,0C165.4,340.7,152.9,332.2,153.1,322.1z"/>
							<path class="st38" d="M180.8,307c-0.3,0-0.5,0-0.8,0c13.1,0.5,23.5,7.6,23.3,16c-0.2,8.4-10.8,15.1-23.9,15.2
								c0.3,0,0.5,0,0.8,0c13.5,0.2,24.5-6.6,24.7-15.2C205.1,314.5,194.2,307.3,180.8,307z"/>
						</g>
						<g>
							<path class="st39" d="M209.5,329.2L209.5,329.2l0.2-6c-0.2,10.3-13.4,18.4-29.5,18.1c-16.1-0.3-29-8.9-28.8-19.2
								c0,0-0.1,6.7-0.1,7c-0.2,9.5,12.8,17.4,28.9,17.7c16.1,0.3,29.3-7.2,29.5-16.7C209.6,329.8,209.6,329.5,209.5,329.2z"/>
						</g>
					</g>
					<path class="st5" d="M191.4,321.4c-0.1,0-0.1,0-0.2,0c-2.6,0.1-5.1-0.5-7.1-1.5l1.8-5.3l7.9-0.3L191.4,321.4z M190.4,324.5
						c-0.2,0-0.3,0-0.5,0c-5.9,0.2-10.1,3.8-9.4,8c0.1,0.7,0.4,1.3,0.7,1.9l5.8-0.2l0,0h0L190.4,324.5z M175,329
						c2.2-1.6,3.3-3.8,2.9-6.2c-0.1-0.7-0.4-1.3-0.7-1.9l-1.3-1.7c-2.4-2.5-6.5-4.1-10.9-3.9c-0.1,0-0.1,0-0.2,0L175,329z"/>
				</g>
				<g>
					<g>
						<g>
							<linearGradient id="SVGID_13_" gradientUnits="userSpaceOnUse" x1="156.1062" y1="311.9402" x2="204.9144" y2="311.9402">
								<stop  offset="0" style="stop-color:#6E39EC"/>
								<stop  offset="1" style="stop-color:#5E7EEC"/>
							</linearGradient>
							<path class="st51" d="M180.8,296.3c-13.5-0.2-24.5,6.6-24.7,15.2c-0.2,8.6,10.7,15.8,24.1,16c13.5,0.2,24.5-6.6,24.7-15.2
								C205.1,303.8,194.2,296.6,180.8,296.3z"/>
							<g>
								<g>
									<path class="st36" d="M180.2,330.6c-16.1-0.3-29-8.9-28.8-19.2c0.2-10.3,13.4-18.4,29.5-18.1c16.1,0.3,29,8.9,28.8,19.2
										C209.5,322.8,196.3,330.9,180.2,330.6z M180.8,296.3c-13.5-0.2-24.5,6.6-24.7,15.2c-0.2,8.6,10.7,15.8,24.1,16
										c13.5,0.2,24.5-6.6,24.7-15.2C205.1,303.8,194.2,296.6,180.8,296.3z"/>
								</g>
							</g>
							<path class="st37" d="M153.1,311.4c0.2-10.1,12.9-18.1,28.6-18.1c-0.3,0-0.6,0-0.9,0c-16.1-0.3-29.3,7.8-29.5,18.1
								c-0.2,10.3,12.8,18.9,28.8,19.2c0.3,0,0.6,0,0.9,0C165.4,330,152.9,321.5,153.1,311.4z"/>
							<path class="st38" d="M180.8,296.3c-0.3,0-0.5,0-0.8,0c13.1,0.5,23.5,7.6,23.3,16c-0.2,8.4-10.8,15.1-23.9,15.2
								c0.3,0,0.5,0,0.8,0c13.5,0.2,24.5-6.6,24.7-15.2C205.1,303.8,194.2,296.6,180.8,296.3z"/>
						</g>
						<g>
							<path class="st39" d="M209.5,318.5L209.5,318.5l0.2-6c-0.2,10.3-13.4,18.4-29.5,18.1c-16.1-0.3-29-8.9-28.8-19.2
								c0,0-0.1,6.7-0.1,7c-0.2,9.5,12.8,17.4,28.9,17.7c16.1,0.3,29.3-7.2,29.5-16.7C209.6,319.1,209.6,318.8,209.5,318.5z"/>
						</g>
					</g>
					<path class="st5" d="M191.4,310.7c-0.1,0-0.1,0-0.2,0c-2.6,0.1-5.1-0.5-7.1-1.5l1.8-5.3l7.9-0.3L191.4,310.7z M190.4,313.8
						c-0.2,0-0.3,0-0.5,0c-5.9,0.2-10.1,3.8-9.4,8c0.1,0.7,0.4,1.3,0.7,1.9l5.8-0.2l0,0h0L190.4,313.8z M175,318.4
						c2.2-1.6,3.3-3.8,2.9-6.2c-0.1-0.7-0.4-1.3-0.7-1.9l-1.3-1.7c-2.4-2.5-6.5-4.1-10.9-3.9c-0.1,0-0.1,0-0.2,0L175,318.4z"/>
				</g>
			</g>
			<g>
				<g>
					<g>
						<polygon class="st34" points="183.1,320 183,388.8 115.3,349.8 115.4,281 						"/>
					</g>
					<polygon class="st52" points="115.1,311.2 115.1,317.1 166.6,348.9 183.1,320 					"/>
					<g>
						<polygon class="st53" points="183.1,320 167.9,343.6 101.8,303.1 115.4,281 						"/>
					</g>
				</g>
				<g>
					<g>
						<polygon class="st54" points="269.7,268.8 269.6,337.7 183,388.8 183.1,320 						"/>
					</g>
					<polygon class="st52" points="183.1,320 195.3,349.7 277.6,301.2 264.7,273.7 					"/>
					<g>
						<polygon class="st55" points="183.1,320 197.1,344.4 285,292.4 269.7,268.8 						"/>
					</g>
				</g>
			</g>
		</g>
		<g>
			<g>
				<g>
					<path class="st11" d="M55.6,216.7h4v30c7.9-4.2,15.9-8.1,23.9-12c2.9-1.4,5.9-2.9,8.8-4.4v-42.9h2.6
						c-0.7-5.8-2.6-14.5-6.5-18.9c-7.8-8.6-13.6-5.3-20.8-4.3c-4.1,0.6-21.2,7.2-23.9,11.7c-2,3.4-2.4,6.7-1.8,12.4h13.8V216.7z"/>
					<polygon class="st12" points="67.6,196.6 71.9,207.9 77.7,195.3 72.8,173.7 69.6,173.9 					"/>
					<path class="st12" d="M72.3,169.7l-3.9,0.7l-0.9,3.8c0,0,0.7,2.5,4.2,1.8c2.1-0.4,2.8-3.6,2.8-3.6L72.3,169.7z"/>
					<g>
						<path class="st56" d="M65.4,170.4c-2.6-0.6-4.9-1.9-5.6-3.4c-0.8-1.7-0.2-7.4-0.2-7.4l15.4-1c0,0-0.1,6-0.4,8
							C74.3,168.9,69.3,171.3,65.4,170.4z"/>
					</g>
					<g class="st26">
						<path class="st3" d="M59.5,159.6c0,0,0,0.2,0,0.5c3.3,3.6,9.4,3.8,11.3,7.6c0.4,0.7,0.5,1.4,0.4,2.1c1.9-0.8,3.3-2,3.4-3.2
							c0.2-1.9,0.4-8,0.4-8L59.5,159.6z"/>
					</g>
					<path class="st57" d="M95.7,192.6c0.1,2.6-1.2,6.3-1.4,10.6c-0.2,3.7-0.4,8-0.5,12.5c-0.1,3-0.7,10.9-1.3,18.5
						c-0.1,1.2-0.2,2.3-0.2,3.5c-0.3,5.5-0.5,10.4-0.3,12.8c-22,15.1-52.3,2.4-52.6,0.9c-0.7-5.6,4-20.8,4.1-23
						c0.7-17.2-2.5-23.8-4.2-35.3c0-0.2-0.1-0.4-0.1-0.6c-0.5-3.4-0.8-6.3-0.8-8.8v0c0-2.3,0.2-4.4,0.8-6.2c0-0.2,0.1-0.3,0.2-0.5
						c0.2-0.7,0.5-1.3,0.9-1.9c0.5-0.8,1.9-1.5,3.8-2.4c0.1,0,0.2-0.1,0.2-0.1c4.1-1.8,10-4,13.4-7.4c0.2,0.4-0.8,1.1-1,2.1
						c-0.3,1.7,0.1,4,0.4,4.8c2.1,4.9,9.4,28.7,15.1,31.9c0.2,0.1,0.4,0.2,0.6,0.3c4.4,1.3,7.3-31.1,7.4-34.1c0-1.2-0.9-3.1-1.9-4.7
						c-1.1-1.7-2.2-3.2-2.2-3.2c1.6,0.4,6,0.9,9.7,2c2.2,0.7,4.1,1.5,5.2,2.7C96.5,172.6,95.5,188.4,95.7,192.6z"/>
					<path class="st31" d="M44.7,235.2c0.1-0.3,0.2-0.8,0.5-0.9c0.3-0.1,0.7,0.2,0.9,0.2c0.7,0.2,1.4,0.4,2,0.6c1.3,0.4,2.7,0.7,4,1
						c0.7,0.2,1.4,0.3,2.2,0.3c0.6,0,1.2,0,1.8,0c0.4,0,0.4,0.2,0.4,0.6c0,0.3,0,0.6,0,0.9c0,0.3,0.1,1.2-0.1,1.4
						c-0.1,0.1-0.3,0.1-0.5,0.1c-0.8,0.1-1.7,0.2-2.5,0.2c-3,0-6-1-8.7-2.2c-0.2-0.1-0.3-0.2-0.5-0.2c0,0-0.1,0-0.1-0.1
						c0,0,0-0.1,0-0.1c0.2-0.6,0.3-1.1,0.5-1.7C44.6,235.3,44.7,235.2,44.7,235.2z"/>
					<path class="st31" d="M92.6,234.1c-0.1,1.2-0.2,2.3-0.2,3.5c-0.4,0.2-0.8,0.4-1.2,0.5c-2.8,1.1-5.9,1.1-9,1
						c-0.2,0-0.3,0-0.5-0.1c0,0-0.1,0-0.1,0c0,0,0-0.1,0-0.1c0-0.6-0.1-1.2-0.1-1.7c0,0,0-0.1,0-0.2c0-0.3-0.1-0.8,0.2-1
						c0.2-0.2,0.7-0.1,0.9-0.1c0.7,0,1.4-0.1,2.1-0.1c1.4-0.1,2.7-0.3,4.1-0.5c0.7-0.1,1.4-0.3,2.1-0.5
						C91.5,234.6,92,234.3,92.6,234.1C92.6,234.1,92.6,234.1,92.6,234.1z"/>
					<path class="st5" d="M73.3,168.4c0.7-0.7,1.3-1.5,1.5-2.7c0.2-1.7-0.1-3.7-0.1-3.7s0.2,0,1.5,0.2l1.3,1.4h1.4v3.7h1.3
						c-0.2,1.2-0.3,2.3-0.6,3.5c-0.3,1.6,0,3.5-0.8,4.9c-0.3-0.2-7.7-5.3-8.4-5.5C71.3,169.5,72.5,169.1,73.3,168.4z"/>
					<path class="st31" d="M78.9,163.4c2.7,2,8.7,9.7,8.7,9.7l-4.8,4.8l3.5,4.4l-11.5,36.9c0,0-2.4-16.4-2.3-16.7
						c1.2-2.9,6.6-27.2,6-34.8c-0.8-3.7-4.8-7.1-4.8-7.1S77.9,162.6,78.9,163.4z"/>
					<path id="XMLID_75_" class="st5" d="M57.3,166.7c0.1-0.2,0.3-2.2,0.4-2.4c0.2-0.5,1.8-2.4,1.8-2.4c0.3,0.9,0.6,1.9,1.1,2.7
						c0.5,0.8,1.3,1.5,2,2.2c1.1,1,2.4,1.7,3.7,2.3c2.2,1,4.1,0.9,4.1,0.9c-0.1,0.1-6.5,7.7-6.6,7.6
						C63.3,176.8,56.1,169.8,57.3,166.7z"/>
					<path class="st31" d="M56,178.1l-6.4-5.5c0,0,9.1-9.9,9.8-10.7c-0.4,0.8-0.8,3.9-0.1,6.8c4.1,15.6,12.8,33.4,13.6,34.6
						c0.7,5.3,1.9,9.7,1.9,15.8c-0.7-3.4-20.6-38-20.6-38L56,178.1z"/>
					<g>
						<g>
							<path class="st58" d="M77.8,162.8c-2,1.6-4.7,2.1-7.5,1.7c-3.6-0.4-7.3-2.1-9.9-4.2c-2.5-2.1-7.1-10.7-7.9-14.2
								c-0.1-0.6-0.3-1.2-0.3-1.7c-1.3-9.7,7.4-12.1,14.1-17.2c7.1-5.5,16-4,16.9,7.4C84.1,146,84,157.9,77.8,162.8z"/>
							<path class="st4" d="M82.8,134c-0.6,0,0.3-4.5-7.8-1.6c-5.7,2-9.6-2.4-11.2-0.2c-1.4,1.9-1.8,5.8-1.3,9.1
								c0.2,1.6-1.7,5.5-2.5,5.2c-1.4-0.4,1.2,1.5,0.5,2.6c-1.7,2.8-1.1,9.1-0.6,10.7c-2.3-1.6-4.4-3.8-5.6-5.7
								c-0.2-0.3-0.4-0.7-0.7-1c-1-1-1.9-2.1-2.6-3.4c-1.6-2.7-3.1-5.5-3.9-8.6c-3.9-14.7,7.6-16.7,7.6-16.7s8.5-11.7,20.7-5.4
								C85.5,124,83.8,134,82.8,134z"/>
						</g>
						<path class="st58" d="M63.8,151.8c-1.4,1.1-3.9,0.1-5.7-2.1c-1.8-2.2-2.1-4.9-0.7-6c1.4-1.1,3.9-0.1,5.7,2.1
							C64.8,148,65.1,150.7,63.8,151.8z"/>
					</g>
				</g>
			</g>
			<g>
				<path class="st2" d="M62.4,224.9c2-0.1,3.4-1.5,5-3.7c2.5-3.3,1.8-5.9,2.4-9.7c-0.1-0.3-10.6-24.9-23.4-35.9
					c-3-2.6-7.3-3.1-10.8,0.4c-3.7,3.7-3,7.9-1,11.8c2,3.8,16.8,26.8,25.5,35.4C60.6,223.5,62.2,224.7,62.4,224.9z"/>
			</g>
		</g>
		<g>
			<g>
				
					<ellipse transform="matrix(0.9999 -1.094711e-02 1.094711e-02 0.9999 -2.4262 1.3437)" class="st39" cx="121.5" cy="222.3" rx="27.4" ry="29.2"/>
				<g>
					<g>
						
							<linearGradient id="SVGID_14_" gradientUnits="userSpaceOnUse" x1="5750.3564" y1="222.3432" x2="5796.1519" y2="222.3432" gradientTransform="matrix(-1 0 0 1 5897.5532 0)">
							<stop  offset="0" style="stop-color:#6E39EC"/>
							<stop  offset="1" style="stop-color:#5E7EEC"/>
						</linearGradient>
						<path class="st59" d="M116.4,199.5c11.8-4.6,25,1.8,29.4,14.5c4.4,12.6-1.7,26.7-13.5,31.3c-11.8,4.6-25-1.8-29.4-14.5
							C98.4,218.1,104.5,204.1,116.4,199.5z"/>
						<g>
							<path class="st36" d="M98.6,232.4c-5.2-15.1,2-31.9,16.2-37.4c14.2-5.6,29.9,2.2,35.2,17.3c5.2,15.1-2,31.9-16.2,37.4
								C119.6,255.3,103.8,247.5,98.6,232.4z M102.8,230.8c4.4,12.6,17.6,19.1,29.4,14.5c11.8-4.6,17.9-18.7,13.5-31.3
								c-4.4-12.6-17.6-19.1-29.4-14.5C104.5,204.1,98.4,218.1,102.8,230.8z"/>
						</g>
						<path class="st37" d="M148.4,212.9c-5.1-14.8-20.4-22.6-34.4-17.6c0.3-0.1,0.5-0.2,0.8-0.3c14.2-5.6,29.9,2.2,35.2,17.3
							c5.2,15.1-2,31.9-16.2,37.4c-0.3,0.1-0.5,0.2-0.8,0.3C146.7,244.2,153.6,227.7,148.4,212.9z"/>
						<path class="st38" d="M116.4,199.5c0.2-0.1,0.5-0.2,0.7-0.3c-11.4,4.9-17.2,18.6-12.9,31c4.3,12.4,17.1,18.9,28.7,14.7
							c-0.2,0.1-0.5,0.2-0.7,0.3c-11.8,4.6-25-1.8-29.4-14.5C98.4,218.1,104.5,204.1,116.4,199.5z"/>
					</g>
				</g>
			</g>
			<path class="st5" d="M134.5,219.7c-0.1,0-0.1,0-0.2,0c-2.3,0.1-4.6-0.8-6.5-2.3l0.9-7.3l7-0.2L134.5,219.7z M134,224
				c-0.2,0-0.3,0-0.5,0c-5.3,0.2-8.5,5-7.3,10.8c0.2,0.9,0.5,1.8,0.9,2.7l5.1-0.2l0,0l0,0L134,224z M121,230
				c1.7-2.1,2.4-5.2,1.7-8.5c-0.2-0.9-0.5-1.8-0.9-2.7l-1.3-2.4c-2.4-3.5-6.3-5.8-10.2-5.6c-0.1,0-0.1,0-0.2,0L121,230z"/>
		</g>
		<g>
			<path class="st3" d="M123.2,234.7c-0.3-0.9-0.8-1.6-1.8-1.9c0,0-0.1,0-0.1-0.1c-2-0.6-4.4-2.2-15.8-3.9c-0.2,0-0.4-0.1-0.5-0.1
				c0,0-0.1-0.1-0.2-0.2c-2.1,1.3-3.7,3-4.2,5.8c-0.2,1.1-0.2,2.1,0,3.1c1.8,1,2.8,1.4,2.8,1.4c1.4,0.6,2.3,1.6,3.6,2.5
				c0.8,0.5,1.8,1,2.7,1.4c2.1,0.9,4.6,3.1,7,1.7c0.7-0.4,0.6-1.3,1.2-1.6c0.7-0.4,0.7,0.3,1.7-0.7c1.3-1.2-0.1-1.5,0.7-2.5
				c0.2-0.3,0.8-0.1,1-0.4c0.1-0.1,0.1-0.2,0.1-0.3c0.5-1,0.3-1.7-0.1-2.6c0.3,0,0.7,0.1,1.3,0.2c0.2-0.2,0.5-0.2,0.6-0.5
				C123.4,235.5,123.3,235.1,123.2,234.7z"/>
			<path class="st11" d="M102.5,239.1c0.1,0,5.1-10.1,5.1-10.2c-0.1-0.3-3.3-1.2-4.5-1.3c0.1,0-1.5,6.2-1.7,6.7
				c-0.2,0.4-0.3,0.9-0.5,1.3c-0.2,0.4-1.1,1.8-1.1,2.2C99.7,238.3,102,239.2,102.5,239.1z"/>
			<path class="st2" d="M106.1,227.4c0.1,0-0.9,2.2-1.8,4c-0.8,1.7-1.7,3.6-2.4,5.1c-0.7,1.3-1.7,3.3-1.8,3.2l-29.8-11.6l-4.3-1.5
				l-1.7-0.6c-0.4-0.2-0.9-0.4-1.3-0.6l0,0c-0.4-0.3-0.9-0.6-1.2-0.9c-0.3-0.3-0.6-0.6-0.8-0.9c-1.3-1.6-2-3.5-2-5.6
				c0-0.9,0.2-1.8,0.5-2.7c0-0.1,0-0.1,0.1-0.2c1.2-3,3.8-4.8,6.8-5.2c0.8-0.1,1.7-0.1,2.5,0C68.9,209.9,106.1,227.4,106.1,227.4z"
				/>
		</g>
		<path class="st3" d="M147.5,218.6c0-0.3,0.2-0.7,0.4-1c0.5-0.7,1.1-1.1,1.9-1c0,0,0.1,0,0.1,0c0.6,0,1.7,0.1,3,0.1
			c1.6,3.7,0.9,7.8,0.7,11.8c-1.2,0.1-2.3,0-3.1-1c-0.5-0.5-0.1-1.2-0.5-1.6c-0.4-0.5-0.6,0-1.2-1.1c-0.7-1.3,0.5-1.3,0.1-2.3
			c-0.1-0.3-0.6-0.3-0.7-0.6c0-0.1,0-0.2,0-0.3c-0.1-0.9,0.2-1.5,0.8-2.1c-0.2-0.1-0.6-0.2-1.1-0.2
			C147.6,219,147.5,218.9,147.5,218.6z"/>
		<g>
			<path class="st1" d="M256.1,112.3c1.2,3.9-2.2,12.3,1.8,12l3.9-0.2c5.3-0.8,11-7.6,10.9-10.1c-0.7-11.1-7-44.4-7-44.4
				c-0.1-5.9-7.1-13.7-11.3-13.2c-5,0.6-7.3,5.6-6.8,10C247.5,66.3,252.8,101.2,256.1,112.3z"/>
		</g>
		<g>
			<g>
				
					<ellipse transform="matrix(1.094711e-02 -0.9999 0.9999 1.094711e-02 85.7502 334.177)" class="st39" cx="211.8" cy="123.7" rx="29.8" ry="28"/>
				<g>
					<g>
						<linearGradient id="SVGID_15_" gradientUnits="userSpaceOnUse" x1="185.5479" y1="123.7895" x2="232.3944" y2="123.7895">
							<stop  offset="0" style="stop-color:#6E39EC"/>
							<stop  offset="1" style="stop-color:#5E7EEC"/>
						</linearGradient>
						<path class="st60" d="M217.1,100.4c-12.1-4.7-25.6,1.9-30.1,14.8c-4.5,12.9,1.7,27.3,13.9,32c12.1,4.7,25.6-1.9,30.1-14.8
							C235.4,119.5,229.2,105.1,217.1,100.4z"/>
						<g>
							<path class="st36" d="M199.3,151.8c-14.5-5.7-21.9-22.9-16.6-38.3s21.5-23.4,36-17.7c14.5,5.7,21.9,22.9,16.6,38.3
								C229.9,149.5,213.8,157.5,199.3,151.8z M217.1,100.4c-12.1-4.7-25.6,1.9-30.1,14.8c-4.5,12.9,1.7,27.3,13.9,32
								c12.1,4.7,25.6-1.9,30.1-14.8C235.4,119.5,229.2,105.1,217.1,100.4z"/>
						</g>
						<path class="st37" d="M184.3,114.1c5.3-15.2,20.9-23.1,35.2-18c-0.3-0.1-0.5-0.2-0.8-0.3c-14.5-5.7-30.6,2.3-36,17.7
							s2.1,32.6,16.6,38.3c0.3,0.1,0.5,0.2,0.8,0.3C186.1,146.1,179,129.3,184.3,114.1z"/>
						<path class="st38" d="M217.1,100.4c-0.2-0.1-0.5-0.2-0.7-0.3c11.7,5,17.5,19.1,13.2,31.7c-4.4,12.7-17.5,19.3-29.4,15.1
							c0.2,0.1,0.5,0.2,0.7,0.3c12.1,4.7,25.6-1.9,30.1-14.8C235.4,119.5,229.2,105.1,217.1,100.4z"/>
					</g>
				</g>
			</g>
			<path class="st5" d="M217.7,121.1c-0.1,0-0.1,0-0.2,0c-2.4,0.1-4.5-0.8-6.1-2.3l3-7.4l7.3-0.3L217.7,121.1z M215.9,125.5
				c-0.2,0-0.3,0-0.5,0c-5.4,0.2-10.1,5.1-10.4,11c-0.1,1,0,1.9,0.2,2.8l5.3-0.2l0,0l0,0L215.9,125.5z M201,131.6
				c2.3-2.1,3.9-5.3,4.1-8.7c0.1-0.9,0-1.9-0.2-2.7l-0.7-2.4c-1.5-3.6-4.9-5.9-8.9-5.8c-0.1,0-0.1,0-0.2,0L201,131.6z"/>
		</g>
		<g>
			<path class="st16" d="M228.8,160.3c-0.5,0.3-1.3,0.2-1.7-0.3c-0.2-0.3-0.3-0.8-0.7-0.8c-0.4,0-0.6,0.6-1,0.6
				c-0.1,0-0.3-0.1-0.3-0.2c-0.3-0.4-0.4-1-0.9-1.2c-0.4-0.1-0.8,0.2-1.2,0.2c-0.5-0.1-0.7-0.7-0.8-1.2c0-0.2-0.1-0.4-0.2-0.5
				c-0.2-0.1-0.4,0.1-0.5,0.2c-0.1,0.2-0.3,0.4-0.5,0.4c-0.3,0.1-0.5-0.2-0.6-0.5c-0.4-0.8-0.6-1.8-0.4-2.7c0-0.2,0.1-0.4,0.1-0.6
				c0,0,0-0.1,0-0.1c0-0.1,0-0.2,0.1-0.3c0.2-0.7,0.4-1.4,0.8-1.9c0-0.1,0-0.1,0.1-0.1c1.4-1.3,2.1-1.4,3.2-2.8
				c-2.3,0.7-3.1,2.9-5,1.6c-0.9-0.6,0.4-1.1,0.9-1.5c0.6-0.4,0.9-0.9,1.4-1.4c3.7-3.6,6.7-1.6,9.1-3.6c1.4-1.1,2.3-1.5,3.7-0.2
				c0.6,0.6,1.1,1.3,1.7,2c0.5,0.5,1.9,1.4,2.1,2c0.3,0.7-1.8,2.1-2.3,2.7c-0.8,1-1.1,2-1.7,3.1c-0.4,0.7-0.9,1.4-1.4,2
				c-0.7,0.9-1.4,2.3-2.4,3.1c-0.1,0.2-0.2,0.5-0.3,0.7C229.7,159.5,229.3,160,228.8,160.3z"/>
			<path class="st1" d="M238.9,150.1l1.6-1.6l0.4-0.4l27.1-26.3l1.6-1.6c0.3-0.4,0.7-0.7,0.9-1.1l0,0c1.2-1.7,2.2-3.7,2-5.7
				c-0.2-1.9-1-4.2-2.5-5.7c-1.3-1.3-2.9-1.9-4.6-2.1c-2.2-0.2-4.5,0.4-6.4,1.5c-0.1,0.1-0.2,0.1-0.3,0.2c-0.4,0.3-0.9,0.6-1.3,1
				c-1.7,1.5-3.6,3.4-5.6,5.6c-0.2,0.2-0.4,0.4-0.6,0.7c-1.6,1.8-3.4,3.7-5.1,5.7c-0.8,0.9-1.6,1.9-2.4,2.9
				c-1.4,1.7-2.8,3.4-4.1,5.1c-1.7,2.1-3.2,4.1-4.7,5.9c-2.2,2.8-4,5.2-5.5,7.2c0.5,0.9,1.1,1.7,1.7,2.4c1.2,1.4,2.6,3,4.2,4.3
				c0.2,0.2,0.4,0.3,0.6,0.5C237,149.2,237.9,149.7,238.9,150.1z"/>
		</g>
		<path class="st3" d="M189.7,140.1c0,0.4-0.1,0.8-0.3,1.2c-0.5,0.9-1.2,1.5-2.2,1.5c0,0-0.1,0-0.1,0.1c-0.7,0.1-2,0.2-3.6,0.3
			c-2.5-4.2-2.2-9.2-2.5-14c1.4-0.3,2.8-0.3,3.9,0.8c0.6,0.6,0.3,1.4,0.9,1.9c0.6,0.6,0.7-0.1,1.6,1.1c1,1.5-0.4,1.6,0.1,2.7
			c0.2,0.4,0.8,0.3,0.9,0.7c0,0.1,0.1,0.2,0.1,0.3c0.3,1.1,0,1.8-0.6,2.6c0.3,0.1,0.8,0.1,1.3,0.1
			C189.5,139.6,189.7,139.8,189.7,140.1z"/>
	</g>
	<g>
		<g>
			
				<ellipse transform="matrix(0.9999 -1.094711e-02 1.094711e-02 0.9999 -3.8418 2.7791)" class="st39" cx="251.9" cy="352.3" rx="27.4" ry="29.2"/>
			<g>
				<g>
					
						<linearGradient id="SVGID_16_" gradientUnits="userSpaceOnUse" x1="5619.9492" y1="352.3672" x2="5665.7446" y2="352.3672" gradientTransform="matrix(-1 0 0 1 5897.5532 0)">
						<stop  offset="0" style="stop-color:#6E39EC"/>
						<stop  offset="1" style="stop-color:#5E7EEC"/>
					</linearGradient>
					<path class="st61" d="M246.8,329.5c11.8-4.6,25,1.8,29.4,14.5c4.4,12.6-1.7,26.7-13.5,31.3s-25-1.8-29.4-14.5
						C228.9,348.2,234.9,334.1,246.8,329.5z"/>
					<g>
						<path class="st36" d="M229,362.4c-5.2-15.1,2-31.9,16.2-37.4c14.2-5.6,29.9,2.2,35.2,17.3c5.2,15.1-2,31.9-16.2,37.4
							C250,385.3,234.2,377.5,229,362.4z M233.2,360.8c4.4,12.6,17.6,19.1,29.4,14.5s17.9-18.7,13.5-31.3
							c-4.4-12.6-17.6-19.1-29.4-14.5C234.9,334.1,228.9,348.2,233.2,360.8z"/>
					</g>
					<path class="st37" d="M278.8,342.9c-5.1-14.8-20.4-22.6-34.4-17.6c0.3-0.1,0.5-0.2,0.8-0.3c14.2-5.6,29.9,2.2,35.2,17.3
						c5.2,15.1-2,31.9-16.2,37.4c-0.3,0.1-0.5,0.2-0.8,0.3C277.1,374.2,284,357.7,278.8,342.9z"/>
					<path class="st38" d="M246.8,329.5c0.2-0.1,0.5-0.2,0.7-0.3c-11.4,4.9-17.2,18.6-12.9,31c4.3,12.4,17.1,18.9,28.7,14.7
						c-0.2,0.1-0.5,0.2-0.7,0.3c-11.8,4.6-25-1.8-29.4-14.5C228.9,348.2,234.9,334.1,246.8,329.5z"/>
				</g>
			</g>
		</g>
		<path class="st5" d="M265,349.7c-0.1,0-0.1,0-0.2,0c-2.3,0.1-4.6-0.8-6.5-2.3l0.9-7.3l7-0.2L265,349.7z M264.4,354
			c-0.2,0-0.3,0-0.5,0c-5.3,0.2-8.5,5-7.3,10.8c0.2,0.9,0.5,1.8,0.9,2.7l5.1-0.2l0,0h0L264.4,354z M251.4,360
			c1.7-2.1,2.4-5.2,1.7-8.5c-0.2-0.9-0.5-1.8-0.9-2.7l-1.3-2.4c-2.4-3.5-6.3-5.8-10.2-5.6c-0.1,0-0.1,0-0.2,0L251.4,360z"/>
	</g>
</g>
</svg>
