<svg width="41" height="65" viewBox="0 0 41 65" fill="none" xmlns="http://www.w3.org/2000/svg">
<path d="M39.3358 0.691406L1.16419 1.00085C0.521375 1.00085 0 1.52225 0 2.16504V63.1922C0 63.5008 0.122636 63.7969 0.341097 64.0153C0.559163 64.2338 0.855589 64.3564 1.16421 64.3564L39.3358 64.047C39.6444 64.047 39.9408 63.9244 40.1589 63.7059C40.3774 63.4874 40.5 63.1914 40.5 62.8828V1.8556C40.5 1.54698 40.3774 1.25095 40.1589 1.03248C39.9408 0.814011 39.6444 0.691406 39.3358 0.691406ZM38.1716 61.7186L2.32859 62.028V3.32944L26.5338 3.01999V12.1363C26.5343 12.5838 26.7909 12.9915 27.1945 13.1852C27.5978 13.3789 28.0765 13.3241 28.4258 13.0443L31.3365 10.7159L34.0495 13.0038C34.3947 13.2961 34.8783 13.3619 35.2893 13.1727C35.7002 12.9822 35.9638 12.5713 35.9646 12.1189V3.02005H38.1883L38.1716 61.7186ZM33.6191 9.62736L32.0882 8.33479C31.6585 7.98191 31.0388 7.98191 30.6092 8.33479L28.8626 9.73776L28.863 3.02582H33.6194L33.6191 9.62736Z" fill="#3E0765"/>
<path d="M34.8363 16.0132H5.18763C4.54481 16.0132 4.02344 16.5342 4.02344 17.1774C4.02344 17.8206 4.54483 18.3416 5.18763 18.3416H34.8363C35.4795 18.3416 36.0005 17.8206 36.0005 17.1774C36.0005 16.5342 35.4795 16.0132 34.8363 16.0132Z" fill="#3E0765"/>
<path d="M34.8363 21H5.18763C4.54481 21 4.02344 21.521 4.02344 22.1642C4.02344 22.8074 4.54483 23.3284 5.18763 23.3284H34.8363C35.4795 23.3284 36.0005 22.8074 36.0005 22.1642C36.0005 21.521 35.4795 21 34.8363 21Z" fill="#3E0765"/>
<path d="M34.8363 26H5.18763C4.54481 26 4.02344 26.521 4.02344 27.1642C4.02344 27.8074 4.54483 28.3284 5.18763 28.3284H34.8363C35.4795 28.3284 36.0005 27.8074 36.0005 27.1642C36.0005 26.521 35.4795 26 34.8363 26Z" fill="#3E0765"/>
</svg>
