<svg width="47" height="71" viewBox="0 0 47 71" fill="none" xmlns="http://www.w3.org/2000/svg">
<path d="M43.289 0.000385749C43.9542 0.0313844 44.5307 0.664638 44.4998 1.32982C44.4688 1.99496 43.8351 2.57151 43.1703 2.54011H6.35043C5.17687 2.54011 4.10568 2.81378 3.43433 3.21454C2.76299 3.6153 2.54158 4.00234 2.54158 4.44478V5.71436C2.54158 6.15675 2.763 6.52386 3.43433 6.92465C4.10567 7.32542 5.17732 7.61901 6.35043 7.61901H40.631C42.2353 7.61901 43.7167 8.03439 44.8764 8.76944C46.0358 9.50411 46.9785 10.6369 46.9785 12.0624L46.9785 66.0562C46.9785 67.4817 46.0357 68.5946 44.8755 69.3296C43.7157 70.0647 42.2344 70.5 40.6301 70.5H6.34951C4.74517 70.5 3.26382 70.0647 2.1041 69.3296C0.944374 68.5945 0.00105667 67.4817 0.00105667 66.0562L0.00106049 5.71391C-0.000709534 5.29942 0.00106049 4.86766 0.00106049 4.44433C0.00106049 2.96831 0.939423 1.73864 2.12405 1.03181C3.30815 0.325041 4.78769 0 6.34952 0L43.289 0.000385749ZM2.53988 9.26539L2.53988 66.0571C2.53988 66.2763 2.77678 66.747 3.47248 67.1881C4.16817 67.6287 5.21809 67.9617 6.34913 67.9617H40.6297C41.7607 67.9617 42.8106 67.6287 43.5063 67.1881C44.202 66.7475 44.4389 66.2763 44.4389 66.0571L44.4389 12.0633C44.4389 11.844 44.202 11.3733 43.5063 10.9322C42.8106 10.4912 41.7607 10.1586 40.6297 10.1586H6.34914C4.95021 10.1586 3.65188 9.83045 2.53988 9.26539ZM26.1482 16.5066C26.7722 16.5655 27.3014 17.1496 27.2986 17.7762V20.7321C27.7273 20.9247 28.1139 21.0965 28.469 21.3073L30.9489 19.3234C31.4276 18.9364 32.195 18.9722 32.6352 19.4027L35.8094 22.5769C36.2562 23.014 36.3014 23.7974 35.9086 24.2832L33.9247 26.783C34.1298 27.1311 34.2892 27.5119 34.48 27.9334H37.4559C38.1206 27.9334 38.7255 28.5383 38.7255 29.203V34.2819C38.7255 34.9466 38.1205 35.5515 37.4559 35.5515H34.48C34.287 35.9766 34.1116 36.3521 33.9048 36.7019L35.9086 39.2017C36.2908 39.6848 36.2456 40.4527 35.8094 40.888L32.6352 44.0622C32.1999 44.4984 31.4321 44.5436 30.9489 44.1614L28.4491 42.1576C28.0979 42.3657 27.7211 42.5429 27.2987 42.7328V45.7087C27.2987 46.3734 26.6938 46.9783 26.0291 46.9783H20.9502C20.2855 46.9783 19.6806 46.3734 19.6806 45.7087V42.7328C19.2577 42.5429 18.8813 42.3657 18.5302 42.1576L16.0304 44.1614C15.5472 44.5436 14.7794 44.4984 14.3441 44.0622L11.1698 40.888C10.7336 40.4527 10.6885 39.6849 11.0706 39.2017L13.0745 36.7019C12.8677 36.3516 12.6923 35.9765 12.4992 35.5515H9.52341C8.85872 35.5515 8.25383 34.9466 8.25383 34.2819V29.203C8.25383 28.5383 8.85873 27.9334 9.52341 27.9334H12.4992C12.6901 27.5118 12.8495 27.131 13.0546 26.783L11.0707 24.2832C10.6779 23.7974 10.723 23.014 11.1699 22.5769L14.3441 19.4027C14.7843 18.9722 15.5517 18.9364 16.0304 19.3234L18.5103 21.3073C18.8654 21.0965 19.252 20.9247 19.6806 20.7321V17.7762C19.6806 17.1115 20.2855 16.5066 20.9502 16.5066H26.1482ZM24.7595 19.0458H22.2203V21.5849C22.2141 22.1314 21.8147 22.6499 21.2877 22.7952C20.7116 22.9537 19.8418 23.4785 19.0461 23.9456C18.6086 24.202 18.0157 24.1609 17.6175 23.8464L15.3161 22.021L13.7689 23.5682L15.5943 25.8697C15.9065 26.2598 15.9556 26.8412 15.7134 27.2783C15.2555 28.0772 14.7197 28.9811 14.563 29.5399C14.416 30.073 13.8859 30.4747 13.3327 30.4725H10.7936V33.0116H13.3327C13.8805 33.0054 14.4084 33.3982 14.563 33.9243C14.7202 34.4832 15.2556 35.387 15.7134 36.1859C15.964 36.6274 15.9149 37.2203 15.5943 37.6145L13.7689 39.896L15.336 41.4631L17.6175 39.6382C18.0112 39.318 18.6046 39.2684 19.0461 39.519C19.8423 39.9867 20.7116 40.511 21.2877 40.6695C21.8209 40.8165 22.2225 41.3466 22.2203 41.8997V44.4389H24.7595V41.8997C24.7568 41.3466 25.1589 40.8165 25.6921 40.6695C26.2687 40.5109 27.138 39.9862 27.9337 39.519C28.3752 39.2684 28.9681 39.3176 29.3623 39.6382L31.6438 41.4631L33.2109 39.896L31.3855 37.6145C31.0654 37.2208 31.0158 36.6274 31.2664 36.1859C31.7243 35.387 32.2601 34.4831 32.4168 33.9243C32.5709 33.3987 33.0988 33.0068 33.6471 33.0116H36.1862V30.4725H33.6471C33.094 30.4725 32.5639 30.0731 32.4168 29.5399C32.2596 28.981 31.7242 28.0772 31.2664 27.2783C31.0242 26.8413 31.0733 26.2598 31.3855 25.8697L33.2109 23.5682L31.6637 22.021L29.3623 23.8464C28.9642 24.1609 28.3717 24.202 27.9337 23.9456C27.1375 23.478 26.2682 22.9537 25.6921 22.7952C25.1651 22.65 24.7657 22.1314 24.7595 21.5849V19.0458ZM23.4899 25.3942C26.9808 25.3942 29.8384 28.2514 29.8384 31.7427C29.8384 35.234 26.9812 38.0911 23.4899 38.0911C19.9991 38.0911 17.1414 35.234 17.1414 31.7427C17.1414 28.2514 19.9986 25.3942 23.4899 25.3942ZM23.4899 27.9334C21.3713 27.9334 19.6811 29.6237 19.6811 31.7427C19.6811 33.8612 21.3713 35.552 23.4899 35.552C25.6085 35.552 27.2987 33.8617 27.2987 31.7427C27.2987 29.6241 25.6085 27.9334 23.4899 27.9334Z" fill="#3E0765"/>
</svg>
