<?xml version="1.0" encoding="utf-8"?>
<!-- Generator: Adobe Illustrator 24.3.0, SVG Export Plug-In . SVG Version: 6.00 Build 0)  -->
<svg version="1.1" id="Graphic_Element" xmlns="http://www.w3.org/2000/svg" xmlns:xlink="http://www.w3.org/1999/xlink" x="0px"
	 y="0px" viewBox="0 0 380 380" style="enable-background:new 0 0 380 380;" xml:space="preserve">
<style type="text/css">
	.st0{fill:#5237C4;}
	.st1{fill:#CCD2E1;}
	.st2{fill:#A1A1FF;}
	.st3{fill:#8C94B4;}
	.st4{fill:#8481F7;}
</style>
<g>
	<path class="st0" d="M227.8,36c-5.8,0.1-11.1-1-15.1-5.7c-6.4-7.6-5-21.4,8.7-25.6c11.9-0.1,23.7-0.2,35.6-0.2
		c27.8,0,55.6,0.1,83.4,0.1c4.5,1.1,9,2.1,13.2,4.3c9.2,4.9,14.8,12.7,18.5,22.2c2.6,8.7,0.9,17.5,0,26.2c-0.9,1.6-0.5,3.3-0.7,5
		c-3.9,30.8-7.8,61.6-11.7,92.4c-10.6-11.5-20.1-24-30.4-35.9c-1.2-1.4-0.5-2.3,0.1-3.5c3.3-6.5,6.5-13.1,9.9-19.6
		c1.3-2.5,1.3-3.7-1.7-4.7c-8.3-3.1-16.6-6.4-24.7-9.9c-2.7-1.1-4.1-0.6-5.9,1.5c-8.4,10.3-17,20.5-25.6,30.8
		c-0.9,1.1-1.6,2.5-3.4,3.1c0-1.8,0-3.2,0-4.6c0-24.2,0-48.4,0-72.6c0-2,0.3-3.6-2.9-3.6C259.5,36.1,243.6,36,227.8,36z"/>
	<path class="st1" d="M238.8,250.8c0.5-0.4,1-0.8,1.6-1.2c2.1,8.4,4.3,16.7,6.4,25.1c-0.3,1-0.6,2-0.8,3
		c-4.7,23.2-9.4,46.4-13.9,69.7c-1.8,9.2-4.3,18.3-5,27.6c-16.5,0-33,0-49.5,0c5.5-17.5,11.8-34.8,19.5-51.6
		c9.7-21,20.8-41.2,33.9-60.3C233.7,259.2,237.1,255.5,238.8,250.8z"/>
	<path class="st0" d="M238.8,250.8c-1.8,4.7-5.1,8.4-7.9,12.4c-13.1,19.1-24.2,39.3-33.9,60.3c-7.7,16.7-13.9,34-19.5,51.6
		c-12.5,0-25.1,0-37.6,0c4.7-40.3,23.4-72.5,56.5-96C210.3,269.3,224.7,260.2,238.8,250.8z"/>
	<path class="st1" d="M314.3,266.8c-5,11.8-10.4,23.3-14.9,35.2c-8.6,22.5-15.3,45.6-20.4,69.2c-0.3,1.3-0.5,2.5-0.7,3.8
		c-6.3,0-12.6,0-18.9,0c0.6-9.1,0.9-18.2,1.7-27.2c0.7-8,1.1-16.1,1.6-24.1c0.9-14.3,2-28.5,2.9-42.8c10.5-11,21.2-21.8,32.2-32.2
		c1.3,0,2.1,0.9,2.9,1.7C305.2,255.9,309.8,261.4,314.3,266.8z"/>
	<path class="st0" d="M265.5,281c-1,14.3-2.1,28.5-2.9,42.8c-0.5,8-0.9,16.1-1.6,24.1c-0.8,9.1-1.2,18.2-1.7,27.2
		c-10.7,0-21.5,0-32.2,0c0.7-9.4,3.3-18.4,5-27.6c4.5-23.3,9.2-46.5,13.9-69.7c0.2-1,0.5-2,0.8-3C253,276.8,259.3,278.9,265.5,281z"
		/>
	<path class="st0" d="M372.2,331.3c0-14.9,0.1-29.8,0.1-44.6c0-30.1-0.1-60.3-0.1-90.4c-4.2-1.1-8.3-2.2-12.5-3.3
		c-7.9,10.1-14.8,21-22,31.6c-8.5,13.8-15.9,28.1-23.5,42.3c-5,11.8-10.4,23.3-14.9,35.2c-8.6,22.5-15.3,45.6-20.4,69.2
		c-0.3,1.3-0.5,2.5-0.7,3.8c18.8,0,37.7,0,56.5,0c11.8,0,23.5,0,35.3,0.2c1.8,0,2.5-0.5,2.5-2.4C372.3,359,372.3,345.1,372.2,331.3z
		"/>
	<path class="st2" d="M372.3,196.2c-4.2-1.1-8.3-2.2-12.5-3.3c0-12.7,0-25.5,0-38.2c3.9-30.8,7.8-61.6,11.7-92.4
		c0.2-1.7-0.2-3.4,0.7-5c0.1,1.2,0.1,2.3,0.1,3.5c0,43.7,0,87.4,0,131C372.4,193.3,372.3,194.8,372.3,196.2z"/>
	<path class="st2" d="M372.2,31.2c-3.7-9.5-9.3-17.3-18.5-22.2c-4.2-2.2-8.7-3.2-13.2-4.3c9.8,0,19.6-0.1,29.4-0.2
		c1.8,0,2.6,0.4,2.6,2.4C372.3,15,372.2,23.1,372.2,31.2z"/>
	<path class="st1" d="M359.8,154.8c0,12.7,0,25.5,0,38.2c-7.9,10.1-14.8,21-22,31.6c-19.6,0-39.3,0-58.9,0.1
		c-0.3-0.1-0.5-0.2-0.8-0.3c0-2.6,0.1-5.1,0.1-7.7c8.5-8.4,16.9-16.7,25.4-25.1c7-6.9,13.9-13.8,20.8-20.8c2.1-2.1,3-4.4,1.4-7.4
		c-1.4-2.8-3.7-3.4-6.5-3.3c-2,0.1-3,1.5-4.2,2.6c-12.4,12.2-24.7,24.5-37,36.7c-19.6,0-39.3-0.1-58.9,0c-3.1,0-4-0.8-4-3.9
		c0.1-24.5,0-48.9,0.2-73.4c0-3.7-1.1-4.6-4.6-4.5c-8.7,0.2-17.5,0.1-26.9,0.1C198.7,90,213.3,63,227.8,36c15.8,0,31.6,0,47.5-0.2
		c3.2,0,2.9,1.6,2.9,3.6c0,24.2,0,48.4,0,72.6c0,1.4,0,2.9,0,4.6c1.8-0.6,2.5-2,3.4-3.1c8.6-10.2,17.1-20.4,25.6-30.8
		c1.7-2.1,3.2-2.7,5.9-1.5c8.2,3.5,16.4,6.8,24.7,9.9c2.9,1.1,3,2.3,1.7,4.7c-3.4,6.5-6.6,13-9.9,19.6c-0.6,1.2-1.3,2.2-0.1,3.5
		C339.7,130.7,349.2,143.2,359.8,154.8z M240.4,73.6C240.4,73.6,240.4,73.6,240.4,73.6c-2.1,0-4.2-0.1-6.2,0
		c-3.7,0.2-6.2,2.8-6.2,6.2c0,3.4,2.5,6.1,6.2,6.3c4.3,0.2,8.6,0.2,12.9,0c3.6-0.2,6.1-3,6-6.4c-0.1-3.3-2.5-5.8-6-6.1
		C244.8,73.5,242.6,73.6,240.4,73.6z"/>
	<path class="st0" d="M278.1,224.3c0.3,0.1,0.5,0.2,0.8,0.3c2.7,4.9,7,8.5,10.3,12.9c2.8,3.8,7,6.6,8.6,11.3
		c-11,10.4-21.8,21.2-32.2,32.2c-6.3-2.1-12.5-4.2-18.8-6.2c-2.1-8.4-4.3-16.7-6.4-25.1C253,241.2,265.5,232.7,278.1,224.3z"/>
	<path class="st3" d="M278.1,199.3c12.3-12.2,24.7-24.5,37-36.7c1.2-1.2,2.2-2.6,4.2-2.6c2.8-0.1,5.1,0.5,6.5,3.3
		c1.5,3,0.6,5.3-1.4,7.4c-6.9,7-13.8,13.9-20.8,20.8c-8.4,8.4-16.9,16.7-25.4,25.1C278.2,210.8,278.1,205.1,278.1,199.3z"/>
	<path class="st2" d="M278.1,199.3c-19.6,0-39.3-0.1-58.9,0c-3.1,0-4-0.8-4-3.9c0.1-24.5,0-48.9,0.2-73.4c0-3.7-1.1-4.6-4.6-4.5
		c-8.7,0.2-17.5,0.1-26.9,0.1C198.7,90,213.3,63,227.8,36c-5.8,0.1-11.1-1-15.1-5.7c-6.4-7.6-5-21.4,8.7-25.6
		c-0.9-0.1-1.8-0.2-2.7-0.2c-69,0-137.9,0-206.9-0.1c-3.1,0-3.9,0.8-3.9,3.9C8,129.3,8,250.2,7.9,371.1c0,3.2,0.7,4.2,4.1,4.2
		c22.1-0.2,44.2-0.1,66.3-0.1c20.5,0,41.1-0.1,61.6-0.1c4.7-40.3,23.4-72.5,56.5-96c13.9-9.8,28.3-18.9,42.4-28.3
		c0.5-0.4,1-0.8,1.6-1.2c12.6-8.4,25.1-16.9,37.7-25.3c0-2.6,0.1-5.1,0.1-7.7C278.2,210.8,278.1,205.1,278.1,199.3z M58,35.9
		c-0.7,0-1.3,0-1.9,0.1C56.6,35.9,57.3,35.9,58,35.9z M52,42.3c0-3.1,0.2-4.7,1.3-5.5C52.2,37.5,52,39.1,52,42.3z M58.1,149
		c-0.8,0-1.7-0.1-2.5,0C56.5,149,57.3,149,58.1,149c3,0,4.6,0,5.4-0.7C62.7,149,61.1,149,58.1,149z M60.1,98.8c1.1,0,2.1-0.1,3.2,0
		C62.3,98.7,61.2,98.7,60.1,98.8z M62.8,36c1.1,0.3,1.6,1,1.8,2.3C64.5,37.1,63.9,36.3,62.8,36z M64.4,139.4c0-1,0.2-1.8,0.8-2.3
		C64.6,137.6,64.4,138.3,64.4,139.4z M67.7,136.3c1.1-0.2,2.3-0.4,3.4-0.7C70,135.9,68.8,136.1,67.7,136.3z M67.4,48.9
		c1.3,0.2,2.8,0.1,4.1,0.5C70.2,49.1,68.7,49.1,67.4,48.9z M77,51.8c-1.5-0.9-3.2-1.7-5.1-2.3C73.8,50.2,75.5,50.9,77,51.8z
		 M74.6,66c0.5,0.7,0.8,1.6,1,2.5C75.4,67.6,75.1,66.7,74.6,66z M76.5,107.8c0.4,1.2,0.5,2.4,0.5,3.7
		C77.1,110.2,76.9,108.9,76.5,107.8z M170.3,42.2c-2.6,0.1-4,0.4-4.7,1.4C166.3,42.7,167.7,42.3,170.3,42.2z M133.4,54.8
		c3.4,0,6.8,0,10.2,0C140.2,54.8,136.8,54.8,133.4,54.8c-3.9,0-7.9,0-11.8,0C125.5,54.7,129.4,54.8,133.4,54.8z M115.4,43.7
		c-0.3,0.4-0.4,0.8-0.6,1.4C115,44.5,115.1,44,115.4,43.7z M114.7,51.9c0-1.2-0.1-2.2-0.1-3.1C114.7,49.6,114.7,50.7,114.7,51.9z
		 M83.6,57.2c0.7,0.8,1.4,1.8,2,2.7C85,59,84.3,58.1,83.6,57.2z M86.8,99.6c0.5,1,0.9,2,1.3,3C87.7,101.5,87.3,100.5,86.8,99.6z
		 M87.9,64.6c0.6,1.7,1.2,3.4,1.6,5.3C89.1,68,88.6,66.2,87.9,64.6z M106.2,149.1c6.2-0.1,12.3-0.1,18.5-0.1
		C118.5,149,112.4,149,106.2,149.1z M127.5,136.4c-5.5,0-11,0-16.5,0C116.5,136.4,122,136.4,127.5,136.4c5.5,0,11,0,16.5,0
		C138.5,136.5,133,136.5,127.5,136.4z M133.4,117.6c-7,0-13.9,0-20.9,0C119.4,117.6,126.4,117.6,133.4,117.6c7.7,0,15.4,0,23.2,0
		C148.8,117.6,141.1,117.6,133.4,117.6z M165.1,107.9c0,0.3,0,0.7,0,1.1C165.1,108.6,165.1,108.2,165.1,107.9z M139.7,86.2
		c-8.5,0-17.1,0-25.6,0C122.6,86.2,131.2,86.2,139.7,86.2c9.7,0,19.4,0,29.1,0C159.1,86.2,149.4,86.2,139.7,86.2z M177.6,54.8
		c-2.5,0-4.9-0.1-7.4,0C172.7,54.7,175.1,54.8,177.6,54.8c1.2,0,2.4,0,3.5,0C179.9,54.8,178.7,54.8,177.6,54.8z"/>
	<path class="st4" d="M297.8,248.8c-1.6-4.7-5.8-7.5-8.6-11.3c-3.3-4.4-7.6-8-10.3-12.9c19.6,0,39.3,0,58.9-0.1
		c-8.5,13.8-15.9,28.1-23.5,42.3c-4.5-5.4-9.1-10.9-13.6-16.3C299.9,249.6,299.1,248.7,297.8,248.8z"/>
	<path class="st0" d="M240.4,73.6c2.2,0,4.4-0.1,6.6,0c3.5,0.3,5.9,2.8,6,6.1c0.1,3.4-2.4,6.2-6,6.4c-4.3,0.2-8.6,0.2-12.9,0
		c-3.7-0.1-6.2-2.8-6.2-6.3c0-3.4,2.5-6,6.2-6.2C236.2,73.5,238.3,73.6,240.4,73.6C240.4,73.6,240.4,73.6,240.4,73.6z"/>
</g>
</svg>
