<?xml version="1.0" encoding="utf-8"?>
<!-- Generator: Adobe Illustrator 24.3.0, SVG Export Plug-In . SVG Version: 6.00 Build 0)  -->
<svg version="1.1" id="Layer_1" xmlns="http://www.w3.org/2000/svg" xmlns:xlink="http://www.w3.org/1999/xlink" x="0px" y="0px"
	 viewBox="0 0 1044.1 797" style="enable-background:new 0 0 1044.1 797;" xml:space="preserve">
<style type="text/css">
	.st0{fill:#FFFFFF;}
</style>
<g id="_x23_ffffffff">
</g>
<g id="_x23_6b4beeff">
	<path class="st0" d="M663.9,17c1.3-4.9,5.9-8.7,11-9c4-0.4,8,1.4,10.7,4.4c114.6,120.7,229.3,241.4,343.9,362.1
		c2.1,2.3,4.4,4.4,6.3,6.8c3.5,4.6,3.1,11.5-0.8,15.7c-116.5,128.5-233,257-349.5,385.4c-4.4,5.3-13.1,5.9-18,1
		c-5.3-4.6-5.2-13.5-0.1-18.2c110.1-121.3,220.1-242.8,330.2-364.1c-325.8,0-651.7,0-977.5,0c-6.3,0.6-12.6-3.9-13.6-10.2
		c-1.7-7.5,4.9-15.2,12.6-14.8c325.9,0,651.8,0,977.7,0C886.7,260.5,776.8,144.8,666.9,29.1C663.9,25.9,662.6,21.2,663.9,17z"/>
</g>
</svg>
