<?xml version="1.0" encoding="utf-8"?>
<!-- Generator: Adobe Illustrator 24.3.0, SVG Export Plug-In . SVG Version: 6.00 Build 0)  -->
<svg version="1.1" id="Graphic_Element" xmlns="http://www.w3.org/2000/svg" xmlns:xlink="http://www.w3.org/1999/xlink" x="0px"
	 y="0px" viewBox="0 0 300 300" style="enable-background:new 0 0 300 300;" xml:space="preserve">
<style type="text/css">
	.st0{fill:#5D48D8;}
	.st1{fill:#8481F7;}
	.st2{fill:#A1A1FF;}
	.st3{fill:#5237C4;}
	.st4{fill:#CCD2E1;}
	.st5{fill:#F7DE61;}
</style>
<g>
	<g>
		
			<ellipse transform="matrix(2.739341e-02 -0.9996 0.9996 2.739341e-02 2.3637 198.3559)" class="st0" cx="103.1" cy="98" rx="78.7" ry="78.7"/>
		<g>
			<path class="st1" d="M103.1,192.1C51.2,192.1,9,149.8,9,98S51.2,3.9,103.1,3.9s94.1,42.2,94.1,94.1S155,192.1,103.1,192.1z
				 M103.1,19.3c-43.4,0-78.7,35.3-78.7,78.7c0,43.4,35.3,78.7,78.7,78.7c43.4,0,78.7-35.3,78.7-78.7
				C181.8,54.6,146.5,19.3,103.1,19.3z"/>
		</g>
		<path class="st2" d="M14.8,98c0-50.9,40.7-92.5,91.2-94c-1,0-1.9,0-2.9,0C51.2,3.9,9,46.1,9,98s42.2,94.1,94.1,94.1
			c1,0,1.9,0,2.9,0C55.4,190.5,14.8,148.9,14.8,98z"/>
		<path class="st3" d="M103.1,19.3c-0.8,0-1.7,0-2.5,0c42.2,1.3,76.2,36.1,76.2,78.6c0,42.5-33.9,77.3-76.2,78.6c0.8,0,1.7,0,2.5,0
			c43.4,0,78.7-35.3,78.7-78.7C181.8,54.6,146.5,19.3,103.1,19.3z"/>
	</g>
	<path class="st4" d="M136.5,90.3c-0.2,0-0.4,0-0.6,0c-8.1,0-15.5-3-21.2-7.9l8.7-23h24.7L136.5,90.3z M131.4,104
		c-0.5,0-1.1,0-1.6,0c-18.5,0-33.4,15-33.4,33.4c0,3,0.4,5.9,1.1,8.7h18l0,0h0L131.4,104z M81.5,121.5c7.6-6.5,12.4-16.1,12.4-26.8
		c0-2.9-0.4-5.8-1-8.5l-2.9-7.7C84,67.1,72.2,59.3,58.6,59.3c-0.2,0-0.4,0-0.6,0L81.5,121.5z"/>
	<g>
		
			<ellipse transform="matrix(0.9238 -0.3828 0.3828 0.9238 -66.9397 88.3795)" class="st5" cx="188.6" cy="212.4" rx="106.6" ry="66"/>
		<path class="st3" d="M290.3,186c-0.8,10.1-8.5,21.1-15.9,32.1c-26.8,39.9-88.7,67.2-137.9,60.7c-21.7-2.8-40.3-22.1-48.8-34.5
			c-0.4,0.5,7.7,35.9,29,45.5c23.7,10.8,69.3,12.6,110.5-8.2c56.8-28.7,61.1-58.5,63.1-64.7C294.1,205,290.7,186.2,290.3,186z"/>
		<g>
			
				<ellipse transform="matrix(0.9238 -0.3828 0.3828 0.9238 -66.9402 88.3805)" class="st0" cx="188.6" cy="212.4" rx="89.1" ry="55.1"/>
			<g>
				<path class="st1" d="M140,284.8c-49.2-6.4-67.5-44.1-40.7-84.1c26.8-39.9,88.7-67.2,137.9-60.7c49.2,6.4,67.5,44.1,40.7,84.1
					S189.2,291.2,140,284.8z M229.3,151.9c-41.2-5.4-92.9,17.4-115.3,50.8c-22.4,33.4-7.2,64.9,34,70.3s92.9-17.4,115.3-50.8
					S270.4,157.3,229.3,151.9z"/>
			</g>
			<path class="st2" d="M104.8,201.5c26.3-39.2,86.4-66.1,135.1-61c-0.9-0.1-1.8-0.3-2.7-0.4c-49.2-6.4-111.1,20.8-137.9,60.7
				c-26.8,39.9-8.6,77.6,40.7,84.1c0.9,0.1,1.8,0.2,2.7,0.3C95.6,277.7,78.5,240.6,104.8,201.5z"/>
			<path class="st3" d="M229.3,151.9c-0.8-0.1-1.6-0.2-2.4-0.3c39.4,6.3,53.6,37.2,31.6,69.9c-22,32.7-72.1,55.3-112.9,51.1
				c0.8,0.1,1.6,0.2,2.4,0.3c41.2,5.4,92.9-17.4,115.3-50.8S270.4,157.3,229.3,151.9z"/>
		</g>
	</g>
	<path class="st4" d="M216,204.4c-0.2,0-0.3,0-0.5,0c-7.3,0-11.7-2.6-13-7l25.2-20.3h22.2L216,204.4z M201.1,216.5
		c-0.5,0-0.9,0-1.4,0c-16.6,0-41.4,13.2-55.3,29.5c-2.3,2.6-4.1,5.2-5.5,7.6h16.2l0,0h0L201.1,216.5z M143,232
		c11.7-5.7,23.3-14.2,31.4-23.7c2.2-2.6,4.1-5.1,5.5-7.5l3.2-6.8c3.3-10-1.5-16.8-13.8-16.8c-0.2,0-0.3,0-0.5,0L143,232z"/>
	<g>
		<g>
			<path class="st4" d="M182.2,135c-0.8-1.5-1.5-2.8-2.3-4.1c-1.2-2.3-2.5-4.5-3.7-6.8c-0.2-0.4-0.6-0.7-1-1
				c-3.3-1.8-6.7-3.6-10-5.5c-0.3-0.1-0.5-0.3-0.8-0.5c0.2-0.3,0.5-0.4,0.7-0.5c3.3-1.8,6.7-3.7,10.1-5.5c0.5-0.2,0.8-0.6,1-1
				c1.8-3.4,3.7-6.8,5.5-10.1c0.1-0.2,0.2-0.4,0.4-0.7c0.5,0.9,0.9,1.6,1.3,2.4c1.5,2.8,3.1,5.6,4.6,8.4c0.3,0.5,0.6,0.8,1.1,1.1
				c3.4,1.8,6.7,3.7,10.1,5.5c0.2,0.1,0.5,0.2,0.7,0.5c-1.3,0.7-2.5,1.4-3.8,2.1c-2.3,1.3-4.7,2.6-7.1,3.8c-0.4,0.2-0.7,0.5-1,1
				c-1.8,3.4-3.7,6.7-5.5,10.1C182.6,134.4,182.5,134.6,182.2,135z"/>
			<path class="st4" d="M207.3,129.1c1.1,2,2.2,3.8,3.1,5.7c0.7,1.5,1.7,2.4,3.1,3.1c1.9,0.9,3.7,2,5.6,3c-0.1,0.3-0.4,0.4-0.6,0.5
				c-2.1,1.2-4.3,2.3-6.4,3.5c-0.4,0.2-0.6,0.4-0.8,0.8c-1.1,2.1-2.3,4.2-3.4,6.3c-0.1,0.3-0.3,0.5-0.5,0.9
				c-0.2-0.3-0.3-0.6-0.5-0.8c-1.1-2.1-2.3-4.1-3.4-6.2c-0.2-0.4-0.5-0.7-1-1c-2.1-1.1-4.1-2.2-6.1-3.4c-0.3-0.2-0.6-0.2-0.8-0.6
				c0.8-0.5,1.6-0.9,2.4-1.3c1.5-0.8,3-1.7,4.5-2.5c0.5-0.2,0.8-0.5,1-1C204.7,133.8,205.9,131.5,207.3,129.1z"/>
			<path class="st4" d="M182.2,152.3c0.7,1.2,1.2,2.2,1.8,3.3c0.2,0.4,0.5,0.7,0.9,0.9c1.1,0.6,2.1,1.1,3.3,1.8
				c-1.2,0.7-2.2,1.2-3.3,1.8c-0.4,0.2-0.7,0.5-0.9,0.9c-0.6,1.1-1.1,2.1-1.7,3.2c-0.5-0.5-0.8-1.1-1-1.7c-0.6-1.6-1.7-2.6-3.3-3.2
				c-0.5-0.2-1-0.6-1.7-0.9c0.9-0.5,1.7-1,2.6-1.4c0.9-0.4,1.5-1,1.9-1.9C181.2,154.1,181.7,153.3,182.2,152.3z"/>
		</g>
	</g>
</g>
</svg>
