<?xml version="1.0" encoding="utf-8"?>
<!-- Generator: Adobe Illustrator 24.3.0, SVG Export Plug-In . SVG Version: 6.00 Build 0)  -->
<svg version="1.1" id="Graphic_Element" xmlns="http://www.w3.org/2000/svg" xmlns:xlink="http://www.w3.org/1999/xlink" x="0px"
	 y="0px" viewBox="0 0 300 300" style="enable-background:new 0 0 300 300;" xml:space="preserve">
<style type="text/css">
	.st0{fill:#8481F7;}
	.st1{fill:#5237C4;}
	.st2{fill:#CCD2E1;}
	.st3{fill:#8C94B4;}
	.st4{fill:#A1A1FF;}
</style>
<g>
	<path class="st0" d="M69.2,229.9c-7.8,10.2-18.1,15.5-31.1,14.9c-17-0.7-31.9-15.3-32.9-32.4c-1.1-18.1,11.3-34.2,28.6-37.2
		c6.4-1.1,12.7-0.6,18.8,1.6c0.9,0.3,1.7,0.8,2.7,0.5c2.4,2.3,5.4,3.7,8.1,5.5c3.7,4.2,7.3,8.4,9.4,13.7c3.2,8.1,3,16.2,1,24.4
		C72.3,224,70.8,227,69.2,229.9z"/>
	<path class="st0" d="M116.1,46.7c-1-6.8-0.7-13.4,1.8-20c5.6-14.5,20.6-24,35.8-22.4C170,6,182.6,17.9,185.2,33.9
		c1.6,9.9-1.2,18.5-6.4,26.7c-2.3,2.3-4.7,4.7-7,7c-6.9,4.5-14.4,7.2-22.8,6.9c-4.6-0.2-8.9-1.6-13.2-3c-2.8-1.8-5.6-3.5-8.3-5.3
		c-2.7-3.3-5.4-6.6-8.1-10C118.3,53,117.2,49.9,116.1,46.7z"/>
	<path class="st1" d="M54,112.1c-4.4,1-8.8,2.5-13.4,2.5c-20.6,0-37-17.3-35.3-37.8c1.2-13.7,8.2-24,21-29.4
		c12.8-5.5,24.9-3.6,36.1,4.9c3.8,2.9,6.1,7.1,9.2,10.5c1.1,3.2,2.1,6.4,3.2,9.6c0.8,6.2,0.8,12.4-1.4,18.4c-1.4,3-2.7,6-4.1,9
		c-2.6,2.2-4.6,4.9-6.8,7.5C59.6,108.3,56.9,110.4,54,112.1z"/>
	<path class="st0" d="M180.5,241c3.1,6.2,5.4,12.6,5.2,19.7c-0.3,16.7-13,31.1-29.5,33.8c-21.3,3.6-41.9-13.5-40.7-36.9
		c0.1-1.4,0.4-2.9,0.5-4.3c1-3.2,2.1-6.4,3.1-9.6c2.1-3.4,4.6-6.5,7.2-9.6c2.7-2.1,5.9-3.5,8.1-6.2c3.9-0.5,7.4-2.2,11.1-3.1
		c3.3,0,6.7,0,10,0c0.9,1,2.2,0.7,3.2,0.9c5.7,1.2,10.3,4.4,15,7.4C175.7,236.1,178.3,238.4,180.5,241z"/>
	<path class="st1" d="M239.7,121.5c6.8-4.4,14-7.1,22.3-6.9c16.5,0.3,30.8,13.2,33.5,29.4c3.6,21.4-13.4,41.9-36.8,40.7
		c-6.7-0.4-12.7-3-18.4-6.3c-2.5-2.3-4.6-5-7.4-6.9c-0.4-0.7-0.6-1.5-1.1-2.2c-3.9-5.9-5.9-12.5-6.1-19.5c0.4-3.3,0.8-6.6,1.2-9.9
		c1.6-3.9,3.4-7.8,5.7-11.3C235.1,126.1,237.4,123.8,239.7,121.5z"/>
	<path class="st2" d="M134.5,228c-2.2,2.7-5.4,4.1-8.1,6.2c-0.1-0.3-0.2-0.6-0.4-0.9c-14.7-24.7-29.4-49.5-44.1-74.2
		c-0.4-0.7-0.6-1.5-1.6-1.8c-5.6,8.6-11.2,17.1-16.8,25.6c-2.7-1.8-5.7-3.2-8.1-5.5c5.9-9.1,11.6-18.3,17.7-27.3
		c1.5-2.3,1.4-3.8,0-6c-6.5-10.6-12.7-21.3-19-32c2.9-1.6,5.6-3.7,8.7-5c6,10.1,11.9,20.2,18.2,30.7c5-7.7,9.6-15,14.4-22.1
		c1.2-1.9,1-2.6-1-3.6c-8.3-4.1-16.6-8.3-24.8-12.4c1.4-3,2.7-6,4.1-9c8.7,4.3,17.4,8.5,26,12.9c2.2,1.1,3.1,0.7,4.4-1.3
		c7.8-12.1,15.6-24.1,23.5-36.2c2.8,1.8,5.6,3.5,8.3,5.3c-0.4,0.6-0.7,1.3-1.1,1.9c-6.9,10.7-13.8,21.3-20.7,32
		c-2.6,4.1-2.6,4.1,1.6,6.2c1.9,1,3.9,2,5.8,3c-1.4,3-2.8,5.9-4.3,8.9c-2.9-1.4-5.9-2.7-8.7-4.3c-2-1.1-3-0.8-4.2,1.1
		c-5.2,8.2-10.4,16.4-15.8,24.4c-1.4,2.1-1.3,3.6-0.1,5.8C103.8,176.2,119.1,202.1,134.5,228z"/>
	<path class="st2" d="M232.9,171.5c2.8,1.9,4.9,4.6,7.4,6.9c-19.9,20.9-39.9,41.8-59.8,62.7c-2.2-2.6-4.8-4.9-6.6-7.8
		C193.6,212.6,213.2,192,232.9,171.5z"/>
	<path class="st2" d="M239.7,121.5c-2.3,2.3-4.7,4.7-7,7c-3.6-3.5-7.1-7-10.7-10.6c-16.7-16.8-33.5-33.6-50.2-50.3
		c2.3-2.3,4.7-4.7,7-7C199.1,80.9,219.4,101.2,239.7,121.5z"/>
	<path class="st3" d="M119.2,243.8c-1,3.2-2.1,6.4-3.1,9.6c-9.4-4.7-18.8-9.3-28.2-14c-6.2-3.1-12.4-6.3-18.7-9.4
		c1.5-2.9,3.1-5.9,4.6-8.8C89,228.7,104.1,236.2,119.2,243.8z"/>
	<path class="st3" d="M74.9,72.3c-1.1-3.2-2.1-6.4-3.2-9.6c14.3-5.2,28.6-10.4,42.9-15.6c0.5-0.2,1-0.3,1.5-0.4
		c1.1,3.1,2.2,6.3,3.3,9.4C104.6,61.5,89.8,66.9,74.9,72.3z"/>
	<path class="st2" d="M145.6,224.9c0-18.4,0-36.9,0-55.3c3.3,0,6.6,0,10,0c0,18.4,0,36.9,0,55.3C152.3,224.9,149,224.9,145.6,224.9z
		"/>
	<path class="st3" d="M225.8,149.7c-13.7-1.9-27.5-3.8-41.2-5.6c0.3-3.3,1.4-6.6,1.2-9.9c13.7,1.9,27.5,3.8,41.2,5.6
		C226.6,143.1,226.2,146.4,225.8,149.7z"/>
	<path class="st4" d="M185.8,134.2c0.2,3.4-0.9,6.6-1.2,9.9c-3.5,10.5-10,18.4-20.3,22.9c-2.8,1.2-5.8,1.6-8.6,2.6
		c-3.3,0-6.6,0-10,0c-6.5-1.5-12.7-3.8-17.8-8.4c-10.4-9.4-14.1-21-11.3-34.7c0.2-1,0.4-2,0.6-3.1c1.4-3,2.8-5.9,4.3-8.9
		c2.6-2.1,4.4-5,7-7.1c10.7-8.2,22.4-10.3,35-5.4c12.3,4.8,19.6,14.1,21.8,27.2C185.5,130.8,185.6,132.5,185.8,134.2z"/>
</g>
</svg>
