<?xml version="1.0" encoding="utf-8"?>
<!-- Generator: Adobe Illustrator 24.3.0, SVG Export Plug-In . SVG Version: 6.00 Build 0)  -->
<svg version="1.1" id="Graphic_Element" xmlns="http://www.w3.org/2000/svg" xmlns:xlink="http://www.w3.org/1999/xlink" x="0px"
	 y="0px" viewBox="0 0 380 380" style="enable-background:new 0 0 380 380;" xml:space="preserve">
<style type="text/css">
	.st0{fill:#A1A1FF;}
	.st1{fill:#8481F7;}
	.st2{fill:#5237C4;}
	.st3{fill:#CCD2E1;}
	.st4{fill:#8C94B4;}
	.st5{fill:#5EAE5F;}
	.st6{fill:#96CE93;}
	.st7{fill:#49A149;}
	.st8{fill:#95CE92;}
	.st9{fill:#47A047;}
</style>
<g>
	<path class="st0" d="M5.6,96.7c2.6-3.3,6.6-4.6,10.1-6.7c32.3-18.9,64.7-37.7,97-56.5c1.9-1.1,3.3-1.3,5.4-0.1
		C155.1,54.8,192,76.1,229,97.4c12.9,7.4,25.7,15,38.6,22.5c-2.7,1.7-5.4,3.5-8.4,4.6c-5-2.7-10-5.5-15-8.2c3.1,4,6.7,7.3,8.5,11.9
		c-0.5,1-1.4,1.3-2.3,1.8c-26.1,15.1-52.2,30.3-78.3,45.4c-6.5-1.8-13-3.6-19.5-5.4c-0.1,0.2-0.2,0.4-0.2,0.6
		c4.6,2.7,9.2,5.3,13.8,8c-2.2,2.2-5.5,2.7-7.6,5.1c-0.2,0-0.5,0-0.7,0.1c-6.3-3.1-12-7.2-18.1-10.5c-12.2-6.4-23.6-14.1-35.7-20.6
		c-11-5.9-21.4-12.8-32.4-18.8c-14.9-8.1-29.5-16.8-44.2-25.1C20.2,104.8,13.2,100.2,5.6,96.7z M130.7,51.6c0.5,0.5,1.1,0.9,1.6,1.4
		c4,5.1,4,7.7-0.7,12.3c-1.8,1.8-1.2,2.4,0.6,3.4c11.7,6.7,23.4,13.5,35.1,20.2c4.5,2.6,8.9,5.2,14,8.2c-11.7,0.8-22.2,3-32.2,7.1
		c-10.8,4.4-20.6,10.3-27.1,20.5c-1.7,2.7-1.7,7.8-4.6,8c-2.9,0.2-6.1-2.9-9.2-4.6c-0.4-0.2-0.8-0.5-1.3-0.8
		c-12.8-7.3-25.6-14.7-38.4-22c-1.4-0.8-2.7-1.4-4.5-0.6c-6.4,2.7-13,3.3-19.8,1.3c-1-0.3-2.1-0.8-3.5,0.2
		c31.7,18.3,63.3,36.5,95.3,55.1c-0.6-2.3-2.1-3.2-3.1-4.3c-9.6-10-10.7-22.1-2.7-33.3c4.9-6.8,11.7-11.3,19.2-14.6
		c20-8.7,40.8-10,62.1-6.1c5.1,0.9,9.9,2.8,15.3,4.2c-0.7-2-2.2-2.4-3.3-3C213,98.2,202.5,92.1,192,86
		c-19.6-11.3-39.3-22.6-58.9-33.8c-0.5-0.8-1.3-0.8-2.1-1c-0.8-1.7-2.6-1.9-4-2.7c-2.9-1.7-5.8-3.4-8.7-5.1
		c-1.5-0.9-2.8-1.4-4.5-0.4c-3.7,2.2-7.4,4.3-11.1,6.5c8.2-2.5,16.2-2.1,24.3,0C128,50.7,129.3,51.2,130.7,51.6z M35.9,88.9
		c-4.7,1.3-8.3,4.7-13.2,6.9c4.6,2.6,8.3,4.7,12.1,6.9c0.3-0.1,0.6-0.3,0.9-0.4c-3.8-4.7-3.4-9.1,0.5-13.1c0.1-0.2,0.2-0.3,0.3-0.5
		C36.3,88.8,36.1,88.9,35.9,88.9z M99.2,52.3c-1.7,0-3,1.1-4.4,1.9C82,61.5,69.3,69,56.6,76.4c-5.2,3-10.4,6.1-15.6,9.1
		c0.8,0.6,1.3,0.7,1.7,0.5c7.5-2.1,14.8-1.9,21.9,1.4c1.4,0.6,2.7,0,3.9-0.7c10.2-6,20.4-12,30.7-18c2-1.2,2.3-2,0.4-3.7
		c-4.3-4.1-4.4-6.3-0.9-11.4C99,53.3,99,52.7,99.2,52.3c0.3-0.3,1-0.4,0.3-1C99.4,51.6,99.3,51.9,99.2,52.3z M196.3,118.4
		c-5.7-0.4-11.2,0.6-16,4.1c-3.8,2.8-4.9,7.1-2.9,11.3c1.5,3,3.9,5.2,6.7,7c2,1.3,4,2.6,5.4,4.6c2.2,3,1.1,5.8-2.6,6.2
		c-5.8,0.7-11.2-0.4-16-4c-1.7-1.3-3.6-3.3-3-4.9c1.4-4.4-1.9-5-4.3-6.4c-4-2.5-7.2-1.2-8.8,3.3c-1.1,3.3-0.4,6.5,1.8,8.7
		c3.1,3,1.5,4-1.3,5.3c-1,0.5-2.6,0.8-2.4,2.4c0.2,1.7,8.8,5.3,10.1,4.1c4.1-3.5,8.3-2.5,12.9-1.3c7.5,1.9,14.9,1.5,21.9-2.1
		c7-3.5,8.1-10.2,2.7-16c-1.9-2.1-4.3-3.5-6.5-5c-1.4-0.9-2.7-1.8-3.5-3.3c-1.7-3-0.8-5.7,2.6-6.1c6.8-0.9,13,0.7,17.8,6
		c1.3,1.4,2.4,3,0.8,5c-0.8,1.1,0,1.5,0.8,2c1.3,0.8,2.6,1.6,3.9,2.3c4.5,2.5,7.2,1.4,9-3.5c1.2-3.4,0.2-6.4-1.9-8.7
		c-2.3-2.5-1.7-3.7,1.1-4.8c0.8-0.3,1.5-0.9,2.2-1.4c0.8-0.5,0.9-1,0.2-1.8c-3.1-3.5-8.6-4.5-12.6-2c-1.8,1.1-3.4,1.6-5.6,0.8
		C204.9,118.6,200.7,118.1,196.3,118.4z M52.9,87.5c-5.9,0-9.3,0.8-12.1,2.7c-4.5,3-4.6,7.9-0.3,11.1c5.6,4.2,17.9,4.2,23.4,0
		c4.2-3.1,4.1-7.9-0.3-10.9C60.2,88.1,56.4,87.2,52.9,87.5z M115.9,67.3c4,0.4,7.7-0.4,11-2.6c4.9-3.3,4.9-7.8,0.2-11.2
		c-5.9-4.3-17.6-4.1-23.4,0.3c-3.8,2.9-4,6.5-0.4,9.8C106.8,66.8,111.2,67.8,115.9,67.3z M116.8,86.8c-0.8-0.2-2.2,0.3-3.6,0.9
		c-4.4,1.9-4.8,5.2-1,8.2c1.2,1,3.5,1.9,2.5,3.6c-1,1.8-3.4,1-5.1,0.4c-1.7-0.6-3.2-1.4-3.5-3.5c-0.3-1.9-2-2.9-3.5-2.4
		c-2,0.6-2.1,2.5-1.5,4.4c0.3,0.8,1.7,1.4,0.5,2.6c-2.6,2.7,1.1,3.1,1.6,2.9c3.8-1.6,7.4,0.5,11.1,0.1c2.7-0.3,5.4-1.2,6.4-4
		c0.9-2.7-1.4-4.2-3.3-5.7c-0.3-0.2-0.6-0.4-0.9-0.7c-0.6-0.6-0.8-1.3-0.7-2c0.3-1.1,1.2-1.2,2.1-1.1c2.8,0,5.3,0.5,6.2,3.7
		c0.5,1.9,1.9,3.2,3.7,2.7c2-0.6,2-2.7,1.4-4.5c-0.3-0.8-0.9-1.6-0.2-2.5c2.1-2.9-1.1-3.3-2-2.9C123.6,88.3,120.7,86.9,116.8,86.8z
		 M101.4,51.1c-0.1-0.2-0.2-0.4-0.3-0.5c-0.1,0.2-0.3,0.4-0.3,0.6c0,0.2,0.2,0.4,0.3,0.5C101.2,51.5,101.3,51.3,101.4,51.1z
		 M36.9,103.6c-0.1-0.2-0.1-0.4-0.3-0.6c-0.1-0.1-0.3,0.1-0.5,0.2c0.1,0.2,0.1,0.5,0.3,0.6C36.5,103.9,36.7,103.7,36.9,103.6z
		 M38.7,103.9c-0.1,0.2-0.3,0.4-0.3,0.6c0,0.2,0.2,0.4,0.3,0.6c0.1-0.2,0.3-0.4,0.3-0.5C39,104.3,38.8,104.1,38.7,103.9z M39,87.2
		c-0.1-0.2-0.2-0.4-0.3-0.6c-0.1,0.2-0.3,0.4-0.3,0.5c0,0.2,0.2,0.4,0.3,0.6C38.8,87.6,38.9,87.4,39,87.2z"/>
	<path class="st0" d="M307.6,143.1c10.7,6.1,21.5,12.2,32.2,18.3c11.1,6.3,22.1,12.7,33.1,19.1c0.8,0.5,1.9,0.7,2,1.9
		c-0.5,0.2-1,0.2-1.4,0.5c-17.5,10.1-35,20.2-52.5,30.3c-7.3,4.2-14.8,8.3-22,12.7c-11.3,6.8-22.7,13.5-34.3,19.6
		c-0.5-0.4-0.9-0.8-1.5-1.1c-16.8-8.7-33-18.6-49.4-28c-5.4-3.1-10.3-7-16.1-9.3c0-0.2,0-0.5,0-0.7c2.9-1.5,5.9-3,8.8-4.6
		c13.7,8,27.4,16,41.9,24.4c-3.9-9.5-3.9-9.6,2.6-15.9c-10.1-5.7-20-11.4-30-17c0.4-0.3,0.7-0.7,1.1-1c11.5-6.7,23-13.4,34.6-20
		c9.2-5.2,18-11,27.5-15.7c9.3,5.2,18.5,10.4,27.7,15.7c1.5,0.9,2.8,1.1,4.6,0.5c5.2-1.9,10.5-2.9,16.1-2c2.4,0.4,4.8,1.6,8.5,1.4
		c-14.4-8.4-27.9-16.2-41.4-24.1C301.6,145.2,305,144.7,307.6,143.1z M280.4,226.1c0.5-0.3,1.1-0.5,1.6-0.8c1-0.5,2.1-0.8,3.1-1.4
		c16-9.3,32-18.5,48-27.8c1.4-0.8,2.9-1.6,4.2-2.5c1.2-0.9,2.9-1.1,4.1-3.4c-7.5,3.1-14.5,3.9-21.2,1.4c-4.7-1.8-8.1-0.8-12,1.6
		c-9.5,5.9-19.3,11.5-29.5,17.4c6,4,6.8,8.7,3,14.3c-0.7,0.3-1.6,0.1-2,1c-0.3,0.1-0.7,0.2-1,0.4c0.3,0.2,0.6,0.5,0.9,0.6
		C280.3,227.2,280.3,226.6,280.4,226.1z M345.1,188.5c4.1-1,7.1-4,10.8-5.7c0.6-0.3,1.5-1.2,0.6-1.7c-4.1-2.1-7.6-5.5-12.9-6.6
		c5.1,5.4,5.2,8.2,0.7,13.8c0.1,0.3,0.2,0.6,0.3,1C344.8,189,344.9,188.8,345.1,188.5z M265.4,227.4c3.5,0.2,6.6-0.9,9.7-2.5
		c2.4-1.3,4.4-3,4.6-5.9c0.2-3.2-2-5-4.3-6.5c-6-3.7-16.8-3.2-22.4,0.9c-4,2.9-4.1,7.2-0.2,10.3
		C256.4,226.6,260.9,227.1,265.4,227.4z M328.2,190.6c3.6-0.2,7.1-0.8,10.2-2.5c2.5-1.3,4.7-3.2,4.9-6.2c0.2-3.1-2.1-5-4.6-6.3
		c-7.3-3.7-14.7-3.7-21.7,0.6c-5,3-4.7,8.3,0.2,11.4C320.7,189.7,324.5,190.1,328.2,190.6z M268.6,174c-0.8,0-1.3,0-1.8,0
		c-2.7,0-5.5,0.3-6.6,3.3c-1,2.9,0.9,4.7,3.2,6.1c0.4,0.3,0.8,0.6,1.2,1c0.6,0.6,0.9,1.3,0.6,2c-0.4,0.9-1.2,1.4-2.1,1.2
		c-2.7-0.6-5.9-0.7-6.7-4.3c-0.5-2-2-2.7-3.7-2.2c-2,0.5-1.8,2.4-1.4,4.1c0.2,0.9,1.5,1.6,0.6,2.7c-3,3.3,1.3,3.1,1.8,2.9
		c2.9-1.2,5.7,0,8.5,0.1c3.2,0,6.7,0.1,8.2-3.2c1.5-3.4-1.4-5.1-3.8-6.8c-0.7-0.5-1.3-1.2-1.1-2.2c0.3-1.2,1.4-1.5,2.4-1.3
		c2.7,0.4,5.6,0.6,6.4,4.1c0.5,1.9,2.1,2.9,3.7,2.4c2-0.6,2-2.6,1.5-4.4c-0.2-0.8-1.6-1.5-0.3-2.6c0.6-0.4,1.5-0.8,0.7-1.7
		c-0.8-0.8-2.2-1.9-2.9-1.4C274.1,175.6,271.2,173.6,268.6,174z M276.2,228.3c-8.3,2.3-16.4,2-24.5-0.7c3.8,2.7,7.7,4.9,11.5,7.2
		c0.8,0.4,1.4,1,2.4,0.4C269.2,233,273.1,231.4,276.2,228.3z"/>
	<path class="st1" d="M5.6,96.7c7.6,3.5,14.6,8.1,21.8,12.3c14.8,8.4,29.4,17,44.2,25.1c10.9,6,21.4,12.9,32.4,18.8
		c12.1,6.5,23.5,14.2,35.7,20.6c6.2,3.2,11.9,7.3,18.1,10.5c-0.1,11.6-0.2,23.1-0.3,34.7c-1.4-0.5-2.8-1-4.2-1.6
		c-9.1-6.2-18.7-11.6-28.5-16.5c-0.6-1.1-1.6-1.5-2.6-2c-12.9-7.3-25.7-14.7-38.6-21.9c-6.1-3.4-11.8-7.4-18.3-10
		c-0.6-1.4-1.9-1.5-3.1-1.6c-0.2-0.4-0.2-1.1-0.5-1.3c-6.7-4-13.2-8.4-20.4-11.4c-3.9-3-8.1-5.6-12.7-7.5c-6.8-4-13.5-8.1-20.3-12
		c-2.3-1.3-3.1-2.7-3-5.3C5.5,117.2,5.5,106.9,5.6,96.7z"/>
	<path class="st1" d="M157.7,281.3C108.1,252.7,58.6,224.1,9,195.5c-2.7-1.6-3.8-3.2-3.7-6.4c0.3-10,0.3-20,0.4-30
		c8.4,3.9,16.1,9,24.1,13.5c17,9.7,34,19.5,50.9,29.3c16.9,9.7,33.7,19.5,50.6,29.2c8.9,5.1,17.5,10.5,26.7,15.1
		C157.8,258,157.8,269.7,157.7,281.3z"/>
	<path class="st2" d="M264.6,245.5c11.7-6.1,23.1-12.8,34.3-19.6c7.2-4.4,14.7-8.5,22-12.7c17.5-10.1,35-20.2,52.5-30.3
		c0.4-0.2,0.9-0.3,1.4-0.5c0,10.7,0,21.5,0.1,32.2c0,2-1.1,2.8-2.5,3.7c-6.1,3.5-12.1,7-18.1,10.5c-1,0.6-2.4,0.8-2.6,2.4
		c-3.3,0.7-6.4,1.7-8,5.1c-0.1,0.1-0.2,0.2-0.3,0.4c-1.7-0.4-3.2-0.1-4.3,1.3c-5.9,2.6-11.2,6.2-16.7,9.5c-1.4,0.8-3.5,1-3.6,3.3
		c-1.5,0-2.8,0.2-3.8,1.5c-12.3,6.6-24.1,13.8-36,21c-1.3,0.3-2.9,0.4-3,2.3c-1.5-0.1-2.8,0.5-4.1,1.2c-2.4,1.2-4.3,3.3-7.2,3.4
		c0.1-2.6,0.1-5.2,0.3-7.8C265.9,263.4,265.3,254.4,264.6,245.5z"/>
	<path class="st2" d="M374.9,244.9c0,10.8,0,21.5,0.1,32.3c0,2.3-1.5,2.9-3,3.8c-27.5,16-55,32-82.5,47.9c-8,4.6-15.8,9.6-24.1,13.7
		c0-0.3,0-0.6-0.1-0.9c0-11,0-22,0-33c3.5-3,7.8-4.9,11.7-7.3c22.5-13.2,45.1-26.3,67.7-39.3C354.8,256.3,364.5,250,374.9,244.9z"/>
	<path class="st3" d="M272.8,122.9c6,2.1,11,6.1,16.5,9c4.7,2.5,9.2,5.4,13.7,8.1c-5.5,1.9-10.2,5.3-15.1,8.1
		c-22.5,13.1-44.9,26.2-67.4,39.3c-9.3,5.4-18.7,10.6-28,16c-8-4.6-16-9.1-24-13.8c-1.6-1-4-1.1-4.6-3.4
		C200.2,165.1,236.5,144,272.8,122.9z"/>
	<path class="st0" d="M157.8,246.3c-9.2-4.6-17.8-10-26.7-15.1c-16.9-9.7-33.7-19.5-50.6-29.2c-17-9.8-33.9-19.6-50.9-29.3
		c-8-4.6-15.7-9.6-24.1-13.5c0.1-1.6,1.6-1.7,2.6-2.3c6.8-4.1,13.6-8.1,20.4-12.1c4.6,1.9,8.7,4.5,12.7,7.5
		c-5.8,3.3-5.1,10,1.5,12.8c6.5,2.7,13,2.4,19.5-0.1c1.3,0.1,2.6,0.1,3.1,1.6c-7.8,4-15.9,3.4-24.3,2.3c31.5,18.2,63,36.4,94.6,54.6
		c-5.6-6.9-11.1-13.5-10.7-23c9.8,5,19.4,10.4,28.5,16.5c-0.2,0.5-0.9,1.2-0.2,1.6c3.2,1.9,5.9,4.9,10.2,4.4
		c1.5-0.2,2.6,0.7,3.7,1.4c4.5,2.6,9,5.2,13.5,7.8c-2.1,3-5.7,3.8-8.4,5.8c-6.5-1.8-12.9-3.5-19.4-5.3c-0.4-0.7-0.9-0.7-1.6-0.6
		c-0.2-0.2-0.5-0.4-0.7-0.6c-0.1,0.1-0.2,0.3-0.3,0.4c0.3,0.1,0.6,0.1,1,0.2c0.3,0.6,0.8,0.8,1.4,0.8c4.1,3.4,9.1,5.5,13.6,8.3
		c-2.2,2.2-5.5,2.7-7.6,5.1C158.3,246.2,158.1,246.2,157.8,246.3z M35.9,151.4c-4.7,1.3-8.2,4.6-13.2,7c5,2.4,8.6,5.6,13.2,6.9
		c0.1,0.4,0.1,1,0.8,1.1c0.1,0,0.3-0.2,0.3-0.2c-0.2-0.4-0.5-0.8-0.8-1.1c-4.4-5.4-4.4-7.9,0-13.4c0.1-0.1,0.4-0.4,0.4-0.4
		C36.2,150.8,36.1,151.1,35.9,151.4z M38.7,166.3c-0.1,0.2-0.3,0.4-0.3,0.6c0,0.2,0.2,0.4,0.3,0.6c0.1-0.2,0.3-0.4,0.3-0.5
		C39,166.7,38.8,166.5,38.7,166.3z"/>
	<path class="st1" d="M265.3,341.7c0,0.3,0,0.6,0.1,0.9c-1.3,1.1-2-0.3-2.9-0.8c-21.9-12.6-43.7-25.2-65.5-37.8
		c1.2-11.5,0.4-22.9,0.7-34.4c14.3,8.3,28.6,16.5,42.8,24.8c8.1,4.7,16.4,9,24.2,14.3c0,9.8,0,19.7,0,29.5
		C264.7,339.3,264.2,340.6,265.3,341.7z"/>
	<path class="st0" d="M264.7,308.6c-7.8-5.3-16.1-9.6-24.2-14.3c-14.2-8.3-28.5-16.5-42.8-24.8c0-0.2-0.1-0.5,0-0.7
		c3-1.5,5.9-3.1,8.9-4.6c13.7,8,27.4,16,41.9,24.4c-3.8-9.1-3.4-11.4,1.8-14.7c1.3,0.3,2.8-0.3,3.9,0.9c-5.9,4.9-5.9,9.3,0.4,12.4
		c6.7,3.4,13.6,3.7,20.5,0.1c5.9-3.1,6.3-7.5,1.1-11.9c0.1-1.9,1.7-2,3-2.3c6.2,5.3,6.5,6.6,2.7,14.1c-0.7,0.3-1.6,0.1-2,1
		c-0.6,0.1-1.2,0.2-1.4,0.9c-0.1,0.3,0.1,1,0.4,0.7c0.5-0.6,2-0.1,1.8-1.4c0.5-0.3,1.1-0.5,1.6-0.8c1-0.5,2.1-0.8,3.1-1.4
		c11.5-6.7,23-13.3,34.4-20c6.9-4.1,14.1-7.6,20.5-12.4c0.3-0.2,1.1,0,0.8-0.6c-0.2-0.4-0.8-0.1-1,0.3c-8.4,2.1-16.7,2.7-24.7-1.4
		c0.9-1.3,2.3-1.6,3.8-1.5c5.8,3,11.8,2.7,17.8,0.7c3.2-1.1,5.9-3.1,6.7-6.5c0.8-3.4-2.1-5-4.2-6.9c1.2-1.4,2.6-1.7,4.3-1.3
		c0.2,0.2,0.4,0.4,0.7,0.6c1.6,1.9,3.3,3.6,3.4,6.4c0.1,2.7-1.3,4.8-2.6,7c4.3-1,7.6-3.8,11.3-5.7c1.2-0.6,0.7-1.4-0.3-1.9
		c-3.6-2-7.2-4-10.8-6c-0.5-0.3-1-0.6-1.4-0.8c1.6-3.3,4.7-4.4,8-5.1c6.3,2.7,12,6.4,17.9,9.9c1.8,1.1,4.3,1.4,5.3,3.7
		c-10.4,5.2-20.2,11.4-30.2,17.2c-22.6,13-45.2,26.1-67.7,39.3c-4,2.3-8.2,4.2-11.7,7.3C265.1,308.6,264.9,308.6,264.7,308.6z
		 M253.4,290.5c-0.4-0.5-0.9-0.7-1.6-0.5c-0.1,0-0.2,0.2-0.2,0.3c0.5,0.2,1.1,0.4,1.6,0.6c3,2.9,6.9,4.4,10.4,6.4
		c0.8,0.5,1.8,0.5,2.5,0c3.4-1.9,7-3.6,10-6.4C268.5,292.6,261,292.8,253.4,290.5z M343.5,251.9c-0.1-0.2-0.2-0.4-0.3-0.5
		c-0.1,0.2-0.3,0.4-0.3,0.6c0,0.2,0.2,0.4,0.3,0.6C343.3,252.3,343.4,252.1,343.5,251.9z"/>
	<path class="st4" d="M191.8,301c-10-5.3-19.9-10.9-29.4-17.1c0,0-0.1-0.3-0.1-0.3c1.3-1.1,0.7-2.6,0.7-3.9c0.1-9.1,0-18.3,0.1-27.4
		c0-1.3-0.6-2.8,0.8-3.8c0,0.8,0.6,1.3,1.3,1.7c9.2,5.2,18.3,10.4,27.4,15.7C192.3,277.6,192.1,289.3,191.8,301z"/>
	<path class="st1" d="M272.8,122.9c-36.3,21.1-72.6,42.2-108.9,63.3c-1.3,1.1-0.8,2.5-0.8,3.8c-0.1,8.7,0,17.4-0.1,26
		c0,1.3,0.4,2.7-0.6,3.9c0-9.4-0.2-18.8,0-28.2c0.1-3.6-0.5-6.3-3.9-8c2.1-2.4,5.4-2.9,7.6-5.1c2.2-0.7,4-2,5.9-3.2
		c26.1-15.1,52.2-30.3,78.3-45.4c0.9-0.5,1.8-0.8,2.3-1.8c2.4-0.7,4.7-1.8,6.5-3.7c3-1.1,5.7-2.9,8.4-4.6
		C269.6,120.5,271.2,121.6,272.8,122.9z"/>
	<path class="st1" d="M192.5,203.4c9.3-5.3,18.7-10.6,28-16c22.5-13.1,44.9-26.2,67.4-39.3c4.9-2.9,9.7-6.2,15.1-8.1
		c1.5,1.1,3.4,1.5,4.5,3c-2.6,1.7-6,2.2-7.7,5.1c-2.1,0.1-3.9,0.8-5.2,2.5c-2.6,0.7-4.6,2.3-6.7,3.7c-1.4,0.4-2.7,1.1-3.6,2.2
		c-9.5,4.6-18.4,10.5-27.5,15.7c-11.6,6.6-23.1,13.3-34.6,20c-0.4,0.2-0.8,0.6-1.1,1c-1.2,0.6-2.8,0.8-3.1,2.5
		c-2.7,0.3-4.9,1.7-6.7,3.6c-1.8,0.4-3.4,1.1-4.6,2.5c-2.9,1.5-5.9,3-8.8,4.6c-2-0.2-3.2-2.3-5.2-2.3
		C192.4,203.9,192.4,203.6,192.5,203.4z"/>
	<path class="st2" d="M191.8,301c0.3-11.7,0.5-23.4,0.8-35.1c0.4-0.1,0.9-0.1,1.3-0.2c0.1,2.4,2,2.6,3.7,3.2c0,0.2,0,0.5,0,0.7
		c-0.3,11.5,0.5,23-0.7,34.4C195.3,303,193.5,302,191.8,301z"/>
	<path class="st2" d="M157.8,246.3c0.2,0,0.5-0.1,0.7-0.1c3.8,1.9,3.9,5.3,3.9,9c-0.2,9.5-0.1,19-0.1,28.4c0,0,0.1,0.3,0.1,0.3
		c-1.6-0.9-3.1-1.8-4.7-2.6C157.8,269.7,157.8,258,157.8,246.3z"/>
	<path class="st2" d="M133.1,52.2C152.7,63.5,172.3,74.8,192,86c10.5,6,21,12.1,31.5,18.2c1.1,0.7,2.6,1,3.3,3
		c-5.3-1.4-10.2-3.2-15.3-4.2c-21.3-3.9-42.1-2.6-62.1,6.1c-7.5,3.3-14.4,7.7-19.2,14.6c-8,11.2-7,23.4,2.7,33.3
		c1.1,1.1,2.5,1.9,3.1,4.3c-32.1-18.5-63.6-36.7-95.3-55.1c1.4-1,2.4-0.5,3.5-0.2c6.8,2,13.4,1.4,19.8-1.3c1.8-0.8,3.1-0.2,4.5,0.6
		c12.8,7.3,25.6,14.7,38.4,22c0.4,0.2,0.8,0.6,1.3,0.8c3.1,1.7,6.3,4.9,9.2,4.6c2.9-0.2,2.8-5.3,4.6-8c6.5-10.2,16.3-16.1,27.1-20.5
		c10-4.1,20.5-6.3,32.2-7.1c-5.1-3-9.6-5.6-14-8.2c-11.7-6.8-23.4-13.5-35.1-20.2c-1.8-1-2.4-1.6-0.6-3.4c4.7-4.6,4.7-7.2,0.7-12.3
		C132.5,52.7,132.8,52.5,133.1,52.2z M99.1,127.3c-0.1-0.8-0.9-1.1-1.5-1.4c-7.8-4.5-15.5-9-23.3-13.5c-1.6-0.9-6.6,0.6-7.6,2.2
		c-0.6,1,0.1,1.3,0.7,1.7c8.2,4.7,16.4,9.5,24.7,14.2C93.6,131.5,99.1,128.9,99.1,127.3z M142.8,70.8c8,4.6,15.9,8.9,23.6,13.7
		c3,1.9,5.3,1.8,8.2-0.2c1.9-1.3,2.3-1.9,0-3.1c-6.8-3.8-13.7-7.4-20.1-11.7C150.1,66.6,146.7,67,142.8,70.8z"/>
	<path class="st2" d="M196.3,118.4c4.3-0.3,8.6,0.2,12.6,1.7c2.2,0.8,3.8,0.3,5.6-0.8c4-2.5,9.5-1.6,12.6,2c0.7,0.8,0.6,1.3-0.2,1.8
		c-0.7,0.5-1.4,1.1-2.2,1.4c-2.7,1.1-3.4,2.3-1.1,4.8c2.1,2.3,3.2,5.3,1.9,8.7c-1.8,4.9-4.4,6-9,3.5c-1.3-0.7-2.6-1.5-3.9-2.3
		c-0.8-0.5-1.6-0.9-0.8-2c1.6-2,0.4-3.6-0.8-5c-4.8-5.2-11-6.8-17.8-6c-3.4,0.4-4.3,3.1-2.6,6.1c0.8,1.5,2.1,2.4,3.5,3.3
		c2.3,1.5,4.6,2.9,6.5,5c5.3,5.8,4.3,12.5-2.7,16c-7,3.5-14.5,3.9-21.9,2.1c-4.6-1.1-8.8-2.2-12.9,1.3c-1.3,1.2-9.9-2.4-10.1-4.1
		c-0.2-1.5,1.4-1.9,2.4-2.4c2.8-1.2,4.4-2.3,1.3-5.3c-2.2-2.2-2.9-5.4-1.8-8.7c1.5-4.6,4.7-5.9,8.8-3.3c2.3,1.5,5.7,2,4.3,6.4
		c-0.5,1.6,1.3,3.6,3,4.9c4.8,3.5,10.2,4.7,16,4c3.7-0.4,4.8-3.3,2.6-6.2c-1.4-1.9-3.4-3.3-5.4-4.6c-2.8-1.8-5.2-3.9-6.7-7
		c-2-4.2-0.9-8.5,2.9-11.3C185.2,118.9,190.6,118,196.3,118.4z"/>
	<path class="st2" d="M99.2,52.3c-0.2,0.5-0.2,1-0.5,1.4c-3.5,5-3.4,7.3,0.9,11.4c1.9,1.8,1.6,2.6-0.4,3.7c-10.3,6-20.5,12-30.7,18
		c-1.2,0.7-2.5,1.3-3.9,0.7C57.5,84.2,50.2,84,42.7,86c-0.5,0.1-1,0-1.7-0.5c5.2-3,10.4-6.1,15.6-9.1C69.3,69,82,61.5,94.8,54.2
		C96.2,53.4,97.5,52.2,99.2,52.3L99.2,52.3z"/>
	<path class="st2" d="M52.9,87.5c3.5-0.3,7.3,0.6,10.7,3c4.3,3,4.4,7.7,0.3,10.9c-5.6,4.2-17.8,4.2-23.4,0
		c-4.3-3.2-4.1-8.1,0.3-11.1C43.7,88.3,47,87.5,52.9,87.5z"/>
	<path class="st2" d="M115.9,67.3c-4.7,0.4-9.1-0.5-12.6-3.7c-3.6-3.3-3.4-6.9,0.4-9.8c5.8-4.4,17.5-4.6,23.4-0.3
		c4.7,3.4,4.7,7.9-0.2,11.2C123.6,66.9,119.8,67.8,115.9,67.3z"/>
	<path class="st2" d="M116.8,86.8c3.8,0,6.8,1.4,10,0.1c0.9-0.4,4.1,0,2,2.9c-0.6,0.9-0.1,1.6,0.2,2.5c0.6,1.8,0.6,3.9-1.4,4.5
		c-1.8,0.6-3.2-0.7-3.7-2.7c-0.9-3.2-3.4-3.7-6.2-3.7c-0.9,0-1.8,0-2.1,1.1c-0.2,0.8,0.1,1.5,0.7,2c0.3,0.3,0.6,0.5,0.9,0.7
		c1.9,1.4,4.3,2.9,3.3,5.7c-0.9,2.7-3.7,3.6-6.4,4c-3.7,0.5-7.3-1.6-11.1-0.1c-0.4,0.2-4.2-0.2-1.6-2.9c1.1-1.2-0.3-1.7-0.5-2.6
		c-0.6-1.9-0.4-3.8,1.5-4.4c1.6-0.5,3.2,0.5,3.5,2.4c0.4,2.1,1.9,2.9,3.5,3.5c1.7,0.6,4.1,1.4,5.1-0.4c1-1.7-1.3-2.6-2.5-3.6
		c-3.8-3.1-3.4-6.3,1-8.2C114.6,87.1,116,86.7,116.8,86.8z"/>
	<path class="st2" d="M158.6,183.8c3.3,1.7,4,4.4,3.9,8c-0.2,9.4,0,18.8,0,28.2c0,0.5-0.1,1-0.1,1.5c-1.7-0.7-3.5-1.5-4.8-2.9
		c0.1-11.6,0.2-23.1,0.3-34.7C158.1,183.8,158.3,183.8,158.6,183.8z"/>
	<path class="st2" d="M127,49.6c-8.1-2.2-16.1-2.5-24.3,0c3.7-2.2,7.4-4.3,11.1-6.5c1.7-1,3.1-0.5,4.5,0.4c2.9,1.7,5.8,3.4,8.7,5.1
		C127,48.9,127,49.2,127,49.6z"/>
	<path class="st2" d="M36.1,89.2c-3.9,4.1-4.3,8.4-0.5,13.1c-0.3,0.1-0.6,0.3-0.9,0.4c-3.7-2.1-7.4-4.2-12.1-6.9
		c5-2.2,8.5-5.6,13.2-6.9L36.1,89.2z"/>
	<path class="st2" d="M172.1,175.5c-1.9,1.3-3.7,2.6-5.9,3.2c-4.6-2.7-9.2-5.3-13.8-8c0.1-0.2,0.2-0.4,0.2-0.6
		C159.1,171.9,165.6,173.7,172.1,175.5z"/>
	<path class="st2" d="M259.1,124.5c-1.8,1.9-4,3-6.5,3.7c-1.8-4.7-5.4-8-8.5-11.9C249.1,119,254.1,121.8,259.1,124.5z"/>
	<path class="st5" d="M127,49.6c0-0.3,0-0.7,0-1c1.4,0.8,3.2,1,4,2.7c-0.1,0.1-0.2,0.3-0.3,0.4C129.3,51.2,128,50.7,127,49.6z"/>
	<path class="st5" d="M133.1,52.2c-0.3,0.3-0.5,0.5-0.8,0.8c-0.5-0.5-1.1-0.9-1.6-1.4c0.1-0.1,0.2-0.3,0.3-0.4
		C131.7,51.4,132.6,51.4,133.1,52.2z"/>
	<path class="st6" d="M101.4,51.1c-0.1,0.2-0.2,0.4-0.3,0.6c-0.1-0.2-0.3-0.4-0.3-0.5c0-0.2,0.2-0.4,0.3-0.6
		C101.2,50.7,101.3,50.9,101.4,51.1z"/>
	<path class="st7" d="M36.9,103.6c-0.2,0.1-0.5,0.2-0.6,0.2c-0.1-0.1-0.2-0.4-0.3-0.6c0.2-0.1,0.4-0.2,0.5-0.2
		C36.8,103.2,36.8,103.4,36.9,103.6z"/>
	<path class="st6" d="M38.7,103.9c0.1,0.2,0.3,0.4,0.3,0.6c0,0.2-0.2,0.4-0.3,0.5c-0.1-0.2-0.3-0.4-0.3-0.6
		C38.4,104.3,38.6,104.1,38.7,103.9z"/>
	<path class="st6" d="M39,87.2c-0.1,0.2-0.2,0.4-0.4,0.5c-0.1-0.2-0.3-0.4-0.3-0.6c0-0.2,0.2-0.4,0.3-0.5C38.8,86.8,38.9,87,39,87.2
		z"/>
	<path class="st6" d="M99.2,52.3c0.1-0.3,0.2-0.7,0.3-1C100.2,51.8,99.5,52,99.2,52.3L99.2,52.3z"/>
	<path class="st7" d="M35.9,88.9c0.2-0.1,0.3-0.2,0.5-0.3c-0.1,0.2-0.2,0.3-0.3,0.5C36.1,89.2,35.9,88.9,35.9,88.9z"/>
	<path class="st1" d="M254.1,274.8c-1.1-1.2-2.6-0.6-3.9-0.9c0.2-2.2-1.9-2.5-3.1-3.2c-4.2-2.6-8.6-5-13-7.4
		c-4.5-2.5-8.7-5.8-13.8-7.3c-0.8-2.4-3.4-2.4-5.1-3.6c-6.1-3.6-12.1-7.1-18.2-10.7c1.3-11.5,0.3-23,0.7-34.5
		c5.8,2.3,10.7,6.2,16.1,9.3c16.4,9.4,32.6,19.3,49.4,28c0.5,0.3,1,0.7,1.5,1.1c0.6,8.9,1.3,17.8,0.4,26.7c-0.3,2.6-0.2,5.2-0.3,7.8
		C260.7,279.3,257.9,276,254.1,274.8z"/>
	<path class="st2" d="M281.7,224.9c3.7-5.5,2.9-10.3-3-14.3c10.2-6,19.9-11.5,29.5-17.4c4-2.5,7.3-3.4,12-1.6
		c6.7,2.6,13.7,1.7,21.2-1.4c-1.3,2.3-3,2.5-4.1,3.4c-1.3,1-2.8,1.7-4.2,2.5c-16,9.3-32,18.6-48,27.8c-1,0.6-2,0.9-3.1,1.4
		C281.9,225.2,281.8,225,281.7,224.9z"/>
	<path class="st2" d="M217.9,195.7c0.3-1.7,1.9-1.8,3.1-2.5c10,5.7,19.9,11.3,30,17c-6.4,6.3-6.4,6.4-2.6,15.9
		c-14.5-8.4-28.2-16.4-41.9-24.4c1.2-1.4,2.8-2.1,4.6-2.5c5.3,3.1,10.5,6.2,15.8,9.3c4.8,2.8,6.1,2.6,10.6-2
		C230.9,202.9,224.4,199.3,217.9,195.7z"/>
	<path class="st2" d="M294.7,150.7c1.3-1.7,3.1-2.4,5.2-2.5c13.5,7.8,26.9,15.7,41.3,24.1c-3.7,0.2-6-1-8.5-1.4
		c-5.6-0.8-10.9,0.1-16.1,2c-1.7,0.6-3,0.4-4.6-0.5c-9.2-5.3-18.5-10.5-27.7-15.7c1-1.1,2.2-1.9,3.6-2.2c5.3,3.1,10.5,6.2,15.8,9.3
		c4.9,2.9,6.5,2.7,10.8-1.8C307.9,158.2,301.3,154.4,294.7,150.7z"/>
	<path class="st2" d="M265.4,227.4c-4.5-0.3-8.9-0.8-12.7-3.7c-3.9-3-3.8-7.4,0.2-10.3c5.6-4.1,16.5-4.6,22.4-0.9
		c2.4,1.5,4.5,3.3,4.3,6.5c-0.2,2.9-2.2,4.6-4.6,5.9C272,226.5,268.9,227.6,265.4,227.4z"/>
	<path class="st2" d="M328.2,190.6c-3.7-0.4-7.6-0.9-11-3c-5-3.1-5.2-8.3-0.2-11.4c7-4.3,14.4-4.2,21.7-0.6c2.5,1.3,4.8,3.2,4.6,6.3
		c-0.2,3-2.5,4.9-4.9,6.2C335.3,189.8,331.9,190.4,328.2,190.6z"/>
	<path class="st2" d="M268.6,174c2.6-0.4,5.5,1.6,8.4-0.5c0.7-0.5,2.1,0.5,2.9,1.4c0.8,0.9-0.2,1.3-0.7,1.7c-1.3,1,0.1,1.7,0.3,2.6
		c0.5,1.8,0.5,3.8-1.5,4.4c-1.6,0.5-3.2-0.6-3.7-2.4c-0.9-3.4-3.7-3.7-6.4-4.1c-1-0.1-2.1,0.1-2.4,1.3c-0.3,1,0.3,1.7,1.1,2.2
		c2.4,1.7,5.3,3.4,3.8,6.8c-1.5,3.3-5,3.2-8.2,3.2c-2.8,0-5.6-1.2-8.5-0.1c-0.6,0.2-4.8,0.5-1.8-2.9c0.9-1-0.4-1.8-0.6-2.7
		c-0.4-1.7-0.6-3.5,1.4-4.1c1.6-0.4,3.2,0.2,3.7,2.2c0.8,3.6,4,3.7,6.7,4.3c0.9,0.2,1.8-0.3,2.1-1.2c0.3-0.8,0-1.5-0.6-2
		c-0.4-0.3-0.7-0.7-1.2-1c-2.3-1.4-4.2-3.1-3.2-6.1c1-3,3.8-3.2,6.6-3.3C267.3,174,267.8,174,268.6,174z"/>
	<path class="st2" d="M197.7,207.1c-0.4,11.5,0.5,23-0.7,34.5c-1.7-1-3.5-1.9-5.2-2.9c0.2-11.5,0.4-23,0.7-34.5
		c2.1,0,3.2,2.1,5.2,2.3C197.7,206.6,197.7,206.9,197.7,207.1z"/>
	<path class="st2" d="M276.2,228.3c-3.1,3.1-7,4.7-10.6,6.9c-1,0.6-1.6,0-2.4-0.4c-3.8-2.3-7.7-4.5-11.5-7.2
		C259.8,230.3,267.9,230.6,276.2,228.3z"/>
	<path class="st2" d="M344.3,188.4c4.5-5.6,4.4-8.4-0.7-13.8c5.3,1.1,8.8,4.5,12.9,6.6c1,0.5,0.1,1.4-0.6,1.7
		c-3.7,1.7-6.8,4.7-10.8,5.7C344.8,188.4,344.6,188.4,344.3,188.4z"/>
	<path class="st0" d="M280.4,226.1c-0.1,0.5-0.1,1.1-0.9,0.9c-0.3-0.1-0.6-0.4-0.9-0.6c0.3-0.1,0.7-0.2,1-0.4
		C279.9,226,280.2,226,280.4,226.1z"/>
	<path class="st0" d="M280.4,226.1c-0.2,0-0.5-0.1-0.7-0.1c0.4-0.9,1.3-0.8,2-1c0.1,0.1,0.2,0.3,0.3,0.4
		C281.5,225.6,281,225.8,280.4,226.1z"/>
	<path class="st6" d="M344.3,188.4c0.3,0,0.5,0.1,0.8,0.1c-0.1,0.3-0.3,0.6-0.4,0.8C344.5,189,344.4,188.7,344.3,188.4z"/>
	<path class="st2" d="M124.9,200.4c-0.4,9.5,5.1,16.1,10.7,23c-31.5-18.2-63-36.4-94.6-54.6c8.4,1.2,16.6,1.7,24.3-2.3
		c6.5,2.5,12.2,6.6,18.3,10c12.9,7.2,25.8,14.6,38.6,21.9C123.3,198.9,124.3,199.3,124.9,200.4z M99.8,189.6
		C91.9,185,84,180.8,76.5,176c-3.1-2-5.4-2.1-8.4,0c-1.9,1.3-2.3,1.9,0,3.2c6.6,3.7,13.4,7.2,19.7,11.5
		C92.2,193.7,95.8,193.9,99.8,189.6z"/>
	<path class="st2" d="M62.2,164.9c-6.5,2.5-13,2.8-19.5,0.1c-6.6-2.8-7.3-9.5-1.5-12.8c7.2,3.1,13.7,7.4,20.4,11.4
		C62,163.8,62.1,164.5,62.2,164.9z"/>
	<path class="st2" d="M157.6,218.5c1.3,1.5,3.1,2.2,4.8,2.9c0.3,0.5,0.6,1,1,1.5c-4.2,0.5-7-2.5-10.2-4.4c-0.7-0.4,0-1.1,0.2-1.6
		C154.8,217.5,156.2,218,157.6,218.5z"/>
	<path class="st2" d="M340,253.9c-6.4,4.8-13.7,8.3-20.5,12.4c-11.4,6.8-22.9,13.4-34.4,20c-1,0.6-2,0.9-3.1,1.4
		c-0.1-0.1-0.2-0.3-0.3-0.4c3.7-7.4,3.5-8.8-2.7-14.1c11.9-7.2,23.8-14.4,36-21c8,4.1,16.3,3.5,24.7,1.4
		C339.8,253.7,339.9,253.8,340,253.9z"/>
	<path class="st2" d="M254.1,274.8c3.8,1.2,6.6,4.5,10.6,5.3c2.9-0.2,4.8-2.2,7.2-3.4c1.4-0.7,2.6-1.2,4.1-1.2
		c5.2,4.3,4.8,8.8-1.1,11.9c-6.8,3.6-13.8,3.3-20.5-0.1C248.2,284,248.2,279.7,254.1,274.8z"/>
	<path class="st2" d="M339.1,237.9c2.1,1.9,5,3.5,4.2,6.9c-0.8,3.4-3.5,5.4-6.7,6.5c-6,2.1-12,2.3-17.8-0.7c0.1-2.3,2.2-2.5,3.6-3.3
		C327.9,244.2,333.2,240.6,339.1,237.9z"/>
	<path class="st1" d="M264.7,308.6c0.2,0,0.4,0,0.6,0c0,11,0,22,0,33c-1.1-1-0.7-2.3-0.7-3.5C264.6,328.3,264.7,318.5,264.7,308.6z"
		/>
	<path class="st4" d="M163.3,222.9c-0.3-0.5-0.6-1-1-1.5c0-0.5,0.1-1,0.1-1.5c1-1.2,0.6-2.6,0.6-3.9c0.1-8.7,0-17.4,0.1-26
		c0-1.3-0.5-2.8,0.8-3.8c0.6,2.3,3,2.4,4.6,3.4c7.9,4.7,16,9.2,24,13.8c0,0.2,0,0.5,0,0.7c-0.2,11.5-0.4,23-0.7,34.5
		c-1.9-1-4-1.4-5.4-3.1c-1.9-1.2-3.9-2.3-5.8-3.5c-4.5-2.6-9-5.2-13.5-7.8C165.9,223.6,164.8,222.7,163.3,222.9z"/>
	<path class="st1" d="M180.5,232.1c1.9,1.2,3.9,2.3,5.8,3.5c-7.5,4.3-15,8.7-22.5,13c-1.3,1.1-0.8,2.6-0.8,3.8
		c-0.1,9.1,0,18.3-0.1,27.4c0,1.3,0.6,2.8-0.7,3.9c0-9.5-0.1-19,0.1-28.4c0.1-3.8,0-7.1-3.9-9c2.1-2.4,5.4-2.9,7.6-5.1
		c2.2-0.6,3.9-2.2,5.9-3.2C174.9,235.9,178.4,235.1,180.5,232.1z"/>
	<path class="st2" d="M35.8,165.2c-4.6-1.3-8.2-4.5-13.2-6.9c5-2.4,8.5-5.7,13.2-7l0.2,0.2c-4.4,5.4-4.4,8,0,13.4
		C36,165,35.9,165.1,35.8,165.2z"/>
	<path class="st2" d="M172.1,237.9c-2,1.1-3.7,2.6-5.9,3.2c-4.5-2.9-9.5-4.9-13.6-8.3c0,0,0.1-0.2,0.1-0.2
		C159.1,234.4,165.6,236.1,172.1,237.9z"/>
	<path class="st8" d="M38.7,166.3c0.1,0.2,0.3,0.4,0.3,0.6c0,0.2-0.2,0.4-0.3,0.5c-0.1-0.2-0.3-0.4-0.3-0.6
		C38.4,166.7,38.6,166.5,38.7,166.3z"/>
	<path class="st7" d="M36.1,164.9c0.3,0.4,0.5,0.7,0.8,1.1c0,0-0.2,0.2-0.3,0.2c-0.6-0.1-0.6-0.6-0.8-1.1
		C35.9,165.1,36,165,36.1,164.9z"/>
	<path class="st7" d="M151.1,232c0.6-0.1,1.2,0,1.6,0.6c0,0-0.1,0.2-0.1,0.2C151.9,232.7,151.4,232.6,151.1,232L151.1,232z"/>
	<path class="st7" d="M151.1,231.9c-0.3-0.1-0.6-0.1-1-0.2c0.1-0.1,0.2-0.3,0.3-0.4C150.6,231.6,150.9,231.8,151.1,231.9
		L151.1,231.9z"/>
	<path class="st7" d="M35.9,151.4c0.2-0.3,0.3-0.6,0.6-0.2c0,0-0.3,0.2-0.4,0.4C36.1,151.6,35.9,151.4,35.9,151.4z"/>
	<path class="st2" d="M220.3,255.9c5.1,1.5,9.2,4.8,13.8,7.3c4.4,2.4,8.7,4.8,13,7.4c1.2,0.8,3.3,1,3.1,3.2
		c-5.2,3.3-5.6,5.6-1.8,14.7c-14.5-8.4-28.2-16.4-41.9-24.4c1.2-1.4,2.8-2.1,4.6-2.5c5.4,3.1,11,5.9,16,9.5c3.6,2.5,6,1.4,9-0.6
		c1.5-1,1.3-1.6-0.1-2.3c-6.1-3.4-11.9-7.3-18.2-10.2C218.1,256.7,219.3,256.5,220.3,255.9z"/>
	<path class="st1" d="M211.2,261.7c-1.8,0.4-3.4,1.1-4.6,2.5c-3,1.5-5.9,3.1-8.9,4.6c-1.7-0.5-3.6-0.8-3.7-3.2
		c0.5-1.1,1.7-1.4,2.6-2c6-4.1,12.9-6.8,18.6-11.4c1.7,1.3,4.3,1.2,5.1,3.6c-0.9,0.6-2.2,0.8-2.4,2.2
		C215.2,258.5,213,259.8,211.2,261.7z"/>
	<path class="st2" d="M345.2,237.1c3.6,2,7.2,4,10.8,6c1,0.5,1.4,1.3,0.3,1.9c-3.7,1.9-7,4.6-11.3,5.7c1.3-2.3,2.7-4.3,2.6-7
		c-0.1-2.8-1.8-4.5-3.4-6.4C344.4,237.2,344.8,237.2,345.2,237.1z"/>
	<path class="st2" d="M253.4,290.5c7.5,2.3,15.1,2.1,22.8,0.3c-3,2.9-6.6,4.5-10,6.4c-0.8,0.4-1.7,0.4-2.5,0
		c-3.6-2-7.4-3.6-10.4-6.4L253.4,290.5z"/>
	<path class="st8" d="M280.4,288.5c0.2,1.4-1.2,0.9-1.8,1.4c-0.3,0.3-0.4-0.3-0.4-0.7c0.2-0.7,0.8-0.9,1.4-0.9
		C279.9,288.4,280.2,288.4,280.4,288.5z"/>
	<path class="st8" d="M343.5,251.9c-0.1,0.2-0.2,0.4-0.3,0.6c-0.1-0.2-0.3-0.4-0.3-0.6c0-0.2,0.2-0.4,0.3-0.6
		C343.3,251.5,343.4,251.7,343.5,251.9z"/>
	<path class="st9" d="M280.4,288.5c-0.2,0-0.5-0.1-0.7-0.1c0.4-0.9,1.3-0.8,2-1c0.1,0.1,0.2,0.3,0.3,0.4
		C281.5,288,281,288.2,280.4,288.5z"/>
	<path class="st7" d="M253.2,290.8c-0.5-0.2-1.1-0.4-1.6-0.6c0.1-0.1,0.1-0.2,0.2-0.3c0.7-0.2,1.2,0,1.6,0.5
		C253.4,290.5,253.2,290.8,253.2,290.8z"/>
	<path class="st5" d="M345.2,237.1c-0.4,0-0.7,0.1-1.1,0.1c-0.2-0.2-0.4-0.4-0.7-0.6c0.1-0.1,0.2-0.2,0.3-0.4
		C344.2,236.6,344.7,236.8,345.2,237.1z"/>
	<path class="st9" d="M339.7,253.6c0.3-0.4,0.8-0.7,1-0.3c0.3,0.6-0.5,0.5-0.8,0.6C339.9,253.8,339.8,253.7,339.7,253.6z"/>
	<path class="st3" d="M215.2,252.3c-5.7,4.7-12.6,7.3-18.6,11.4c-0.9,0.6-2.1,0.9-2.6,2c-0.4,0.1-0.9,0.1-1.3,0.2
		c-9.1-5.2-18.3-10.5-27.4-15.7c-0.7-0.4-1.2-0.8-1.3-1.7c7.5-4.3,15-8.7,22.5-13c1.4,1.7,3.6,2.2,5.4,3.1c1.7,1,3.5,1.9,5.2,2.9
		C203.1,245.2,209.1,248.7,215.2,252.3z"/>
	<path class="st0" d="M294.7,150.7c6.6,3.7,13.2,7.5,19.8,11.2c-4.3,4.5-5.9,4.8-10.8,1.8c-5.2-3.1-10.5-6.2-15.8-9.3
		C290.1,153,292.1,151.3,294.7,150.7z"/>
	<path class="st0" d="M217.9,195.7c6.5,3.6,13,7.2,19.6,10.8c-4.4,4.6-5.7,4.8-10.6,2c-5.3-3.1-10.5-6.2-15.8-9.3
		C213,197.4,215.2,196.1,217.9,195.7z"/>
	<path class="st0" d="M99.1,127.3c0.1,1.6-5.5,4.1-7.1,3.2c-8.2-4.7-16.4-9.5-24.7-14.2c-0.7-0.4-1.3-0.7-0.7-1.7
		c1-1.6,6-3.2,7.6-2.2c7.8,4.5,15.6,9,23.3,13.5C98.2,126.3,98.9,126.5,99.1,127.3z"/>
	<path class="st0" d="M142.8,70.8c3.9-3.9,7.2-4.3,11.6-1.3c6.4,4.3,13.3,7.9,20.1,11.7c2.3,1.3,1.9,1.8,0,3.1
		c-2.8,2-5.1,2.1-8.2,0.2C158.8,79.8,150.9,75.5,142.8,70.8z"/>
	<path class="st0" d="M99.8,189.6c-4.1,4.3-7.6,4.1-12.1,1.1c-6.3-4.3-13.1-7.8-19.7-11.5c-2.3-1.3-1.9-1.9,0-3.2c3-2.1,5.3-2,8.4,0
		C84,180.8,91.9,185,99.8,189.6z"/>
	<path class="st0" d="M211.2,261.7c1.9-1.9,4-3.2,6.7-3.6c6.4,2.9,12.1,6.8,18.2,10.2c1.3,0.7,1.5,1.3,0.1,2.3c-2.9,2-5.4,3.1-9,0.6
		C222.2,267.7,216.5,264.8,211.2,261.7z"/>
</g>
</svg>
